{
.appVersion = "1098";
classes = (
{
automatic = 1;
code = "A Aacute Abreve Abreveacute Abrevedotbelow Abrevegrave Abrevehookabove Abrevetilde Acircumflex Acircumflexacute Acircumflexdotbelow Acircumflexgrave Acircumflexhookabove Acircumflextilde Adblgrave Adieresis Adotbelow Agrave Ahookabove Ainvertedbreve Amacron Aogonek Aring Aringacute Atilde AE AEacute B C Cacute Ccaron Ccedilla Ccircumflex Cdotaccent D DZcaron Eth Dcaron Dcroat Dzcaron E Eacute Ebreve Ecaron Ecircumflex Ecircumflexacute Ecircumflexdotbelow Ecircumflexgrave Ecircumflexhookabove Ecircumflextilde Edblgrave Edieresis Edotaccent Edotbelow Egrave Ehookabove Einvertedbreve Emacron Eogonek Etilde F G Gbreve Gcaron Gcircumflex Gcommaaccent Gdotaccent H Hbar Hcircumflex I IJ Iacute Ibreve Icircumflex Idblgrave Idieresis Idotaccent Idotbelow Igrave Ihookabove Iinvertedbreve Imacron Iogonek Itilde J Jcircumflex K Kcommaaccent L LJ Lacute Lcaron Lcommaaccent Ldot Lj Lslash M N NJ Nacute Ncaron Ncommaaccent Eng Nj Ntilde O Oacute Obreve Ocircumflex Ocircumflexacute Ocircumflexdotbelow Ocircumflexgrave Ocircumflexhookabove Ocircumflextilde Odblgrave Odieresis Odieresismacron Odotaccentmacron Odotbelow Ograve Ohookabove Ohorn Ohornacute Ohorndotbelow Ohorngrave Ohornhookabove Ohorntilde Ohungarumlaut Oinvertedbreve Omacron Oogonek Oslash Oslashacute Otilde Otildemacron OE P Thorn Q R Racute Rcaron Rcommaaccent Rdblgrave Rinvertedbreve S Sacute Scaron Scedilla Scircumflex Scommaaccent Germandbls Schwa T Tbar Tcaron Tcedilla Tcommaaccent U Uacute Ubreve Ucircumflex Udblgrave Udieresis Udotbelow Ugrave Uhookabove Uhorn Uhornacute Uhorndotbelow Uhorngrave Uhornhookabove Uhorntilde Uhungarumlaut Uinvertedbreve Umacron Uogonek Uring Utilde V W Wacute Wcircumflex Wdieresis Wgrave X Y Yacute Ycircumflex Ydieresis Ydotbelow Ygrave Yhookabove Ymacron Ytilde Z Zacute Zcaron Zdotaccent Delta Omega";
name = Uppercase;
},
{

glyphs = (
{
glyphname = A;
lastChange = "2017-12-05 20:42:37 +0000";
layers = (
{
anchors = (
{
name = bottom;
position = "{297, 0}";
},
{
name = ogonek;
position = "{620, 12}";
},
{
name = top;
position = "{371, 847}";
}
);
background = {
paths = (
{
closed = 1;
nodes = (
"308 776 LINE",
"276 693 LINE SMOOTH",
"210 522 OFFCURVE",
"-5 88 OFFCURVE",
"-5 44 CURVE SMOOTH",
"-5 20 OFFCURVE",
"11 -6 OFFCURVE",
"76 -33 CURVE",
"137 219 OFFCURVE",
"284 539 OFFCURVE",
"352 707 CURVE"
);
},
{
closed = 1;
nodes = (
"487 12 OFFCURVE",
"500 -16 OFFCURVE",
"541 -16 CURVE SMOOTH",
"561 -16 OFFCURVE",
"593 -4 OFFCURVE",
"620 12 CURVE",
"551 108 OFFCURVE",
"521 299 OFFCURVE",
"480 493 CURVE SMOOTH",
"439 687 OFFCURVE",
"417 805 OFFCURVE",
"322 805 CURVE SMOOTH",
"305 805 OFFCURVE",
"284 801 OFFCURVE",
"263 793 CURVE",
"277 776 OFFCURVE",
"301 755 OFFCURVE",
"318 708 CURVE SMOOTH",
"378 540 OFFCURVE",
"446 148 OFFCURVE",
"473 64 CURVE SMOOTH"
);
},
{
closed = 1;
nodes = (
"145 231 LINE",
"337 238 LINE SMOOTH",
"378 240 OFFCURVE",
"429 249 OFFCURVE",
"436 306 CURVE",
"167 306 LINE"
);
}
);
};
hints = (
{
horizontal = 1;
place = "{238, 68}";
},
{
horizontal = 1;
place = "{-33, 21}";
target = up;
type = BottomGhost;
},
{
horizontal = 1;
place = "{-16, 21}";
target = up;
type = BottomGhost;
},
{
horizontal = 1;
place = "{805, -20}";
target = down;
type = TopGhost;
}
);
layerId = UUID0;
paths = (
{
closed = 1;
nodes = (
"308 776 LINE",
"223 539 OFFCURVE",
"-5 94 OFFCURVE",
"-5 44 CURVE SMOOTH",
"-5 20 OFFCURVE",
"11 -6 OFFCURVE",
"76 -33 CURVE",
"137 219 OFFCURVE",
"284 539 OFFCURVE",
"352 707 CURVE"
);
},
{
closed = 1;
nodes = (
"487 12 OFFCURVE",
"500 -16 OFFCURVE",
"541 -16 CURVE SMOOTH",
"561 -16 OFFCURVE",
"593 -4 OFFCURVE",
"620 12 CURVE",
"551 108 OFFCURVE",
"521 299 OFFCURVE",
"480 493 CURVE SMOOTH",
"439 687 OFFCURVE",
"417 805 OFFCURVE",
"322 805 CURVE SMOOTH",
"305 805 OFFCURVE",
"284 801 OFFCURVE",
"263 793 CURVE",
"277 776 OFFCURVE",
"301 755 OFFCURVE",
"318 708 CURVE SMOOTH",
"378 540 OFFCURVE",
"446 148 OFFCURVE",
"473 64 CURVE SMOOTH"
);
},
{
closed = 1;
nodes = (
"145 231 LINE",
"337 238 LINE SMOOTH",
"378 240 OFFCURVE",
"429 249 OFFCURVE",
"436 306 CURVE",
"167 306 LINE"
);
}
);
width = 645;
},
{
anchors = (
{
name = bottom;
position = "{271, 0}";
},
{
name = ogonek;
position = "{635, 12}";
},
{
name = top;
position = "{419, 847}";
}
);
background = {
paths = (
{
closed = 1;
nodes = (
"291 753 LINE",
"287 741 LINE SMOOTH",
"230 576 OFFCURVE",
"0 114 OFFCURVE",
"-16 66 CURVE SMOOTH",
"-19 59 OFFCURVE",
"-20 51 OFFCURVE",
"-20 44 CURVE SMOOTH",
"-20 20 OFFCURVE",
"-1 -6 OFFCURVE",
"76 -33 CURVE",
"139 219 OFFCURVE",
"312 537 OFFCURVE",
"372 707 CURVE SMOOTH",
"378 725 OFFCURVE",
"382 736 OFFCURVE",
"382 746 CURVE"
);
},
{
closed = 1;
nodes = (
"474 12 OFFCURVE",
"490 -16 OFFCURVE",
"540 -16 CURVE SMOOTH",
"564 -16 OFFCURVE",
"602 -4 OFFCURVE",
"635 12 CURVE",
"566 108 OFFCURVE",
"540 300 OFFCURVE",
"495 493 CURVE SMOOTH",
"450 688 OFFCURVE",
"446 805 OFFCURVE",
"315 805 CURVE SMOOTH",
"296 805 OFFCURVE",
"272 801 OFFCURVE",
"248 793 CURVE",
"262 776 OFFCURVE",
"286 755 OFFCURVE",
"303 708 CURVE SMOOTH",
"363 540 OFFCURVE",
"430 148 OFFCURVE",
"458 64 CURVE"
);
},
{
closed = 1;
nodes = (
"145 231 LINE",
"337 238 LINE SMOOTH",
"378 240 OFFCURVE",
"429 249 OFFCURVE",
"436 306 CURVE",
"167 306 LINE"
);
}
);
};
layerId = UUID1;
paths = (
{
closed = 1;
nodes = (
"298 776 LINE",
"217 527 OFFCURVE",
"-20 94 OFFCURVE",
"-20 44 CURVE SMOOTH",
"-20 20 OFFCURVE",
"0 -6 OFFCURVE",
"82 -33 CURVE",
"144 214 OFFCURVE",
"306 538 OFFCURVE",
"363 709 CURVE"
);
},
{
closed = 1;
nodes = (
"475 12 OFFCURVE",
"490 -16 OFFCURVE",
"540 -16 CURVE SMOOTH",
"564 -16 OFFCURVE",
"602 -4 OFFCURVE",
"635 12 CURVE",
"566 108 OFFCURVE",
"540 300 OFFCURVE",
"495 493 CURVE SMOOTH",
"450 688 OFFCURVE",
"446 805 OFFCURVE",
"315 805 CURVE SMOOTH",
"296 805 OFFCURVE",
"272 801 OFFCURVE",
"248 793 CURVE",
"262 776 OFFCURVE",
"286 755 OFFCURVE",
"303 708 CURVE SMOOTH",
"363 540 OFFCURVE",
"431 148 OFFCURVE",
"458 64 CURVE SMOOTH"
);
},
{
closed = 1;
nodes = (
"135 221 LINE",
"337 228 LINE SMOOTH",
"385 230 OFFCURVE",
"429 249 OFFCURVE",
"436 306 CURVE",
"167 306 LINE"
);
}
);
width = 645;
},
{
anchors = (
{
name = bottom;
position = "{321, 0}";
},
{
name = ogonek;
position = "{697, 12}";
},
{
name = top;
position = "{395, 847}";
}
);
background = {
paths = (
{
closed = 1;
nodes = (
"315 776 LINE",
"287 693 LINE SMOOTH",
"227 517 OFFCURVE",
"-19 88 OFFCURVE",
"-19 44 CURVE SMOOTH",
"-19 21 OFFCURVE",
"9 -6 OFFCURVE",
"126 -33 CURVE",
"190 204 OFFCURVE",
"378 534 OFFCURVE",
"419 712 CURVE"
);
},
{
closed = 1;
nodes = (
"479 14 OFFCURVE",
"500 -16 OFFCURVE",
"569 -16 CURVE SMOOTH",
"601 -16 OFFCURVE",
"652 -4 OFFCURVE",
"697 12 CURVE",
"628 108 OFFCURVE",
"600 292 OFFCURVE",
"557 494 CURVE SMOOTH",
"515 692 OFFCURVE",
"500 805 OFFCURVE",
"332 805 CURVE SMOOTH",
"310 805 OFFCURVE",
"279 801 OFFCURVE",
"249 793 CURVE",
"262 777 OFFCURVE",
"287 755 OFFCURVE",
"304 708 CURVE SMOOTH",
"364 540 OFFCURVE",
"431 144 OFFCURVE",
"460 65 CURVE SMOOTH"
);
},
{
closed = 1;
nodes = (
"146 201 LINE",
"369 208 LINE SMOOTH",
"431 210 OFFCURVE",
"460 250 OFFCURVE",
"467 306 CURVE",
"198 306 LINE"
);
}
);
};
layerId = "BF8042A9-B348-454C-A59B-E2F834F64B4C";
paths = (
{
closed = 1;
nodes = (
"315 777 LINE",
"242 524 OFFCURVE",
"-19 94 OFFCURVE",
"-19 44 CURVE SMOOTH",
"-19 21 OFFCURVE",
"9 -6 OFFCURVE",
"126 -33 CURVE",
"190 204 OFFCURVE",
"378 534 OFFCURVE",
"419 712 CURVE"
);
},
{
closed = 1;
nodes = (
"479 14 OFFCURVE",
"500 -16 OFFCURVE",
"569 -16 CURVE SMOOTH",
"601 -16 OFFCURVE",
"652 -4 OFFCURVE",
"697 12 CURVE",
"628 108 OFFCURVE",
"600 292 OFFCURVE",
"557 494 CURVE SMOOTH",
"515 692 OFFCURVE",
"500 805 OFFCURVE",
"332 805 CURVE SMOOTH",
"310 805 OFFCURVE",
"279 801 OFFCURVE",
"249 793 CURVE",
"262 777 OFFCURVE",
"287 755 OFFCURVE",
"304 708 CURVE SMOOTH",
"364 540 OFFCURVE",
"431 144 OFFCURVE",
"460 65 CURVE SMOOTH"
);
},
{
closed = 1;
nodes = (
"146 201 LINE",
"369 208 LINE SMOOTH",
"431 210 OFFCURVE",
"460 250 OFFCURVE",
"467 306 CURVE",
"198 306 LINE"
);
}
);
width = 693;
}
);
leftKerningGroup = A;
rightKerningGroup = A;
unicode = 0041;
},
{
glyphname = AE;
lastChange = "2017-12-05 20:42:37 +0000";
layers = (
{
anchors = (
{
name = bottom;
position = "{562, 0}";
},
{
name = top;
position = "{636, 847}";
}
);
background = {
paths = (
{
closed = 1;
nodes = (
"-25 20 OFFCURVE",
"-6 -6 OFFCURVE",
"71 -33 CURVE",
"148 215 OFFCURVE",
"343 528 OFFCURVE",
"412 695 CURVE",
"430 691 OFFCURVE",
"448 688 OFFCURVE",
"467 685 CURVE",
"465 603 OFFCURVE",
"455 512 OFFCURVE",
"443 425 CURVE",
"392 425 LINE SMOOTH",
"318 425 OFFCURVE",
"258 412 OFFCURVE",
"258 332 CURVE SMOOTH",
"258 321 OFFCURVE",
"259 310 OFFCURVE",
"260 299 CURVE",
"297 315 OFFCURVE",
"363 324 OFFCURVE",
"430 329 CURVE",
"414 221 OFFCURVE",
"400 125 OFFCURVE",
"400 69 CURVE SMOOTH",
"400 65 LINE",
"367 38 OFFCURVE",
"356 5 OFFCURVE",
"352 -12 CURVE",
"410 1 OFFCURVE",
"467 5 OFFCURVE",
"519 5 CURVE SMOOTH",
"624 5 OFFCURVE",
"711 -12 OFFCURVE",
"757 -12 CURVE SMOOTH",
"828 -12 OFFCURVE",
"880 44 OFFCURVE",
"892 144 CURVE",
"826 122 OFFCURVE",
"685 106 OFFCURVE",
"543 106 CURVE",
"544 184 OFFCURVE",
"551 262 OFFCURVE",
"559 334 CURVE",
"586 335 OFFCURVE",
"610 335 OFFCURVE",
"626 335 CURVE SMOOTH",
"655 335 OFFCURVE",
"686 334 OFFCURVE",
"722 334 CURVE SMOOTH",
"763 334 OFFCURVE",
"790 357 OFFCURVE",
"790 425 CURVE SMOOTH",
"790 435 OFFCURVE",
"789 445 OFFCURVE",
"788 455 CURVE",
"755 428 OFFCURVE",
"704 422 OFFCURVE",
"653 422 CURVE SMOOTH",
"569 422 LINE",
"583 525 OFFCURVE",
"598 612 OFFCURVE",
"600 670 CURVE",
"636 667 OFFCURVE",
"672 666 OFFCURVE",
"704 666 CURVE SMOOTH",
"816 666 OFFCURVE",
"910 682 OFFCURVE",
"926 799 CURVE",
"842 783 OFFCURVE",
"746 775 OFFCURVE",
"649 775 CURVE SMOOTH",
"571 775 OFFCURVE",
"433 780 OFFCURVE",
"358 790 CURVE",
"306 681 LINE SMOOTH",
"226 512 OFFCURVE",
"-25 91 OFFCURVE",
"-25 44 CURVE SMOOTH"
);
}
);
};
hints = (
{
place = "{417, 113}";
},
{
place = "{484, 103}";
},
{
horizontal = 1;
place = "{-8, 92}";
},
{
horizontal = 1;
place = "{5, 79}";
},
{
horizontal = 1;
place = "{340, 79}";
},
{
horizontal = 1;
place = "{687, 25}";
},
{
horizontal = 1;
place = "{687, 84}";
},
{
horizontal = 1;
place = "{793, -20}";
target = down;
type = TopGhost;
},
{
horizontal = 1;
place = "{-33, 21}";
target = up;
type = BottomGhost;
}
);
layerId = UUID0;
paths = (
{
closed = 1;
nodes = (
"138 215 OFFCURVE",
"339 542 OFFCURVE",
"408 709 CURVE",
"510 693 OFFCURVE",
"595 687 OFFCURVE",
"661 687 CURVE SMOOTH",
"753 687 OFFCURVE",
"881 688 OFFCURVE",
"899 793 CURVE",
"824 778 OFFCURVE",
"737 771 OFFCURVE",
"651 771 CURVE SMOOTH",
"582 771 OFFCURVE",
"434 781 OFFCURVE",
"368 790 CURVE",
"316 681 LINE SMOOTH",
"235 512 OFFCURVE",
"-15 91 OFFCURVE",
"-15 44 CURVE SMOOTH",
"-15 20 OFFCURVE",
"-6 -16 OFFCURVE",
"61 -33 CURVE"
);
},
{
closed = 1;
nodes = (
"432 2 OFFCURVE",
"483 5 OFFCURVE",
"530 5 CURVE SMOOTH",
"624 5 OFFCURVE",
"702 -8 OFFCURVE",
"743 -8 CURVE SMOOTH",
"807 -8 OFFCURVE",
"854 36 OFFCURVE",
"864 114 CURVE",
"804 97 OFFCURVE",
"673 84 OFFCURVE",
"542 84 CURVE SMOOTH",
"415 84 OFFCURVE",
"387 16 OFFCURVE",
"380 -8 CURVE"
);
},
{
closed = 1;
nodes = (
"530 70 LINE",
"530 74 OFFCURVE",
"530 79 OFFCURVE",
"530 83 CURVE SMOOTH",
"530 331 OFFCURVE",
"587 573 OFFCURVE",
"587 683 CURVE SMOOTH",
"587 695 OFFCURVE",
"586 706 OFFCURVE",
"584 717 CURVE",
"484 712 LINE",
"483 489 OFFCURVE",
"417 189 OFFCURVE",
"417 69 CURVE SMOOTH",
"417 59 OFFCURVE",
"418 49 OFFCURVE",
"420 41 CURVE"
);
},
{
closed = 1;
nodes = (
"343 340 OFFCURVE",
"436 341 OFFCURVE",
"501 341 CURVE SMOOTH",
"528 341 OFFCURVE",
"677 340 OFFCURVE",
"710 340 CURVE SMOOTH",
"748 340 OFFCURVE",
"773 360 OFFCURVE",
"773 419 CURVE SMOOTH",
"773 428 OFFCURVE",
"772 437 OFFCURVE",
"771 445 CURVE",
"740 421 OFFCURVE",
"693 416 OFFCURVE",
"646 416 CURVE SMOOTH",
"615 416 OFFCURVE",
"422 419 OFFCURVE",
"390 419 CURVE SMOOTH",
"322 419 OFFCURVE",
"266 408 OFFCURVE",
"266 338 CURVE SMOOTH",
"266 328 OFFCURVE",
"267 318 OFFCURVE",
"268 309 CURVE"
);
}
);
width = 909;
},
{
anchors = (
{
name = bottom;
position = "{572, 0}";
},
{
name = top;
position = "{646, 847}";
}
);
background = {
paths = (
{
closed = 1;
nodes = (
"-25 20 OFFCURVE",
"-6 -6 OFFCURVE",
"71 -33 CURVE",
"148 215 OFFCURVE",
"343 528 OFFCURVE",
"412 695 CURVE",
"430 691 OFFCURVE",
"448 688 OFFCURVE",
"467 685 CURVE",
"465 603 OFFCURVE",
"455 512 OFFCURVE",
"443 425 CURVE",
"392 425 LINE SMOOTH",
"318 425 OFFCURVE",
"258 412 OFFCURVE",
"258 332 CURVE SMOOTH",
"258 321 OFFCURVE",
"259 310 OFFCURVE",
"260 299 CURVE",
"297 315 OFFCURVE",
"363 324 OFFCURVE",
"430 329 CURVE",
"414 221 OFFCURVE",
"400 125 OFFCURVE",
"400 69 CURVE SMOOTH",
"400 65 LINE",
"367 38 OFFCURVE",
"356 5 OFFCURVE",
"352 -12 CURVE",
"410 1 OFFCURVE",
"467 5 OFFCURVE",
"519 5 CURVE SMOOTH",
"624 5 OFFCURVE",
"711 -12 OFFCURVE",
"757 -12 CURVE SMOOTH",
"828 -12 OFFCURVE",
"880 44 OFFCURVE",
"892 144 CURVE",
"826 122 OFFCURVE",
"685 106 OFFCURVE",
"543 106 CURVE",
"544 184 OFFCURVE",
"551 262 OFFCURVE",
"559 334 CURVE",
"586 335 OFFCURVE",
"610 335 OFFCURVE",
"626 335 CURVE SMOOTH",
"655 335 OFFCURVE",
"686 334 OFFCURVE",
"722 334 CURVE SMOOTH",
"763 334 OFFCURVE",
"790 357 OFFCURVE",
"790 425 CURVE SMOOTH",
"790 435 OFFCURVE",
"789 445 OFFCURVE",
"788 455 CURVE",
"755 428 OFFCURVE",
"704 422 OFFCURVE",
"653 422 CURVE SMOOTH",
"569 422 LINE",
"583 525 OFFCURVE",
"598 612 OFFCURVE",
"600 670 CURVE",
"636 667 OFFCURVE",
"672 666 OFFCURVE",
"704 666 CURVE SMOOTH",
"816 666 OFFCURVE",
"910 682 OFFCURVE",
"926 799 CURVE",
"842 783 OFFCURVE",
"746 775 OFFCURVE",
"649 775 CURVE SMOOTH",
"571 775 OFFCURVE",
"433 780 OFFCURVE",
"358 790 CURVE",
"306 681 LINE SMOOTH",
"226 512 OFFCURVE",
"-25 91 OFFCURVE",
"-25 44 CURVE SMOOTH"
);
}
);
};
layerId = UUID1;
paths = (
{
closed = 1;
nodes = (
"148 215 OFFCURVE",
"343 528 OFFCURVE",
"412 695 CURVE",
"459 681 OFFCURVE",
"601 666 OFFCURVE",
"700 666 CURVE SMOOTH",
"798 666 OFFCURVE",
"910 674 OFFCURVE",
"926 799 CURVE",
"842 783 OFFCURVE",
"746 775 OFFCURVE",
"649 775 CURVE SMOOTH",
"571 775 OFFCURVE",
"433 780 OFFCURVE",
"358 790 CURVE",
"306 681 LINE SMOOTH",
"226 512 OFFCURVE",
"-25 91 OFFCURVE",
"-25 44 CURVE SMOOTH",
"-25 20 OFFCURVE",
"-6 -6 OFFCURVE",
"71 -33 CURVE"
);
},
{
closed = 1;
nodes = (
"410 1 OFFCURVE",
"467 5 OFFCURVE",
"519 5 CURVE SMOOTH",
"624 5 OFFCURVE",
"711 -12 OFFCURVE",
"757 -12 CURVE SMOOTH",
"828 -12 OFFCURVE",
"880 44 OFFCURVE",
"892 144 CURVE",
"825 122 OFFCURVE",
"679 106 OFFCURVE",
"533 106 CURVE SMOOTH",
"391 106 OFFCURVE",
"360 19 OFFCURVE",
"352 -12 CURVE"
);
},
{
closed = 1;
nodes = (
"544 70 LINE",
"544 74 OFFCURVE",
"544 79 OFFCURVE",
"544 83 CURVE SMOOTH",
"544 331 OFFCURVE",
"601 573 OFFCURVE",
"601 683 CURVE SMOOTH",
"601 695 OFFCURVE",
"600 706 OFFCURVE",
"598 717 CURVE",
"468 712 LINE",
"467 489 OFFCURVE",
"401 189 OFFCURVE",
"401 69 CURVE SMOOTH",
"401 59 OFFCURVE",
"402 49 OFFCURVE",
"404 41 CURVE"
);
},
{
closed = 1;
nodes = (
"353 335 OFFCURVE",
"443 335 OFFCURVE",
"513 335 CURVE SMOOTH",
"542 335 OFFCURVE",
"683 334 OFFCURVE",
"719 334 CURVE SMOOTH",
"760 334 OFFCURVE",
"787 357 OFFCURVE",
"787 425 CURVE SMOOTH",
"787 435 OFFCURVE",
"786 445 OFFCURVE",
"785 455 CURVE",
"752 428 OFFCURVE",
"701 422 OFFCURVE",
"650 422 CURVE SMOOTH",
"616 422 OFFCURVE",
"438 425 OFFCURVE",
"404 425 CURVE SMOOTH",
"330 425 OFFCURVE",
"270 412 OFFCURVE",
"270 332 CURVE SMOOTH",
"270 321 OFFCURVE",
"271 310 OFFCURVE",
"272 299 CURVE"
);
}
);
width = 926;
},
{
anchors = (
{
name = bottom;
position = "{572, 0}";
},
{
name = top;
position = "{646, 847}";
}
);
background = {
paths = (
{
closed = 1;
nodes = (
"489 681 OFFCURVE",
"631 666 OFFCURVE",
"730 666 CURVE SMOOTH",
"849 666 OFFCURVE",
"985 675 OFFCURVE",
"1004 809 CURVE",
"905 786 OFFCURVE",
"793 775 OFFCURVE",
"679 775 CURVE SMOOTH",
"588 775 OFFCURVE",
"426 780 OFFCURVE",
"338 790 CURVE",
"286 681 LINE SMOOTH",
"206 512 OFFCURVE",
"-45 91 OFFCURVE",
"-45 44 CURVE SMOOTH",
"-45 20 OFFCURVE",
"-16 -6 OFFCURVE",
"101 -33 CURVE",
"178 215 OFFCURVE",
"373 528 OFFCURVE",
"442 695 CURVE"
);
},
{
closed = 1;
nodes = (
"630 52 LINE",
"630 60 OFFCURVE",
"630 68 OFFCURVE",
"630 77 CURVE SMOOTH",
"630 239 OFFCURVE",
"692 575 OFFCURVE",
"692 683 CURVE SMOOTH",
"692 697 OFFCURVE",
"692 709 OFFCURVE",
"690 721 CURVE",
"501 719 LINE",
"501 528 OFFCURVE",
"446 232 OFFCURVE",
"446 128 CURVE SMOOTH",
"446 88 OFFCURVE",
"452 56 OFFCURVE",
"480 29 CURVE"
);
},
{
closed = 1;
nodes = (
"448 -1 OFFCURVE",
"511 4 OFFCURVE",
"565 4 CURVE SMOOTH",
"680 4 OFFCURVE",
"775 -19 OFFCURVE",
"826 -19 CURVE SMOOTH",
"901 -19 OFFCURVE",
"959 52 OFFCURVE",
"974 191 CURVE",
"900 161 OFFCURVE",
"742 140 OFFCURVE",
"581 140 CURVE SMOOTH",
"425 140 OFFCURVE",
"391 23 OFFCURVE",
"382 -19 CURVE"
);
},
{
closed = 1;
nodes = (
"422 315 OFFCURVE",
"491 322 OFFCURVE",
"629 322 CURVE SMOOTH",
"663 322 OFFCURVE",
"702 321 OFFCURVE",
"744 321 CURVE SMOOTH",
"810 321 OFFCURVE",
"854 340 OFFCURVE",
"854 416 CURVE SMOOTH",
"854 432 OFFCURVE",
"850 450 OFFCURVE",
"844 466 CURVE",
"797 439 OFFCURVE",
"724 433 OFFCURVE",
"650 433 CURVE SMOOTH",
"603 433 OFFCURVE",
"551 436 OFFCURVE",
"504 436 CURVE SMOOTH",
"393 436 OFFCURVE",
"304 423 OFFCURVE",
"304 343 CURVE SMOOTH",
"304 323 OFFCURVE",
"310 300 OFFCURVE",
"314 280 CURVE"
);
},
{
closed = 0;
nodes = (
"515 614 LINE",
"673 614 OFFCURVE",
"795 622 OFFCURVE",
"859 636 CURVE SMOOTH",
"948 655 OFFCURVE",
"994 712 OFFCURVE",
"1004 809 CURVE",
"906 791 OFFCURVE",
"803 781 OFFCURVE",
"700 781 CURVE SMOOTH",
"612 781 OFFCURVE",
"521 787 OFFCURVE",
"444 798 CURVE"
);
}
);
};
layerId = "BF8042A9-B348-454C-A59B-E2F834F64B4C";
paths = (
{
closed = 1;
nodes = (
"184 203 OFFCURVE",
"368 501 OFFCURVE",
"436 660 CURVE",
"484 639 OFFCURVE",
"629 616 OFFCURVE",
"730 616 CURVE SMOOTH",
"849 616 OFFCURVE",
"985 630 OFFCURVE",
"1004 809 CURVE",
"905 786 OFFCURVE",
"793 775 OFFCURVE",
"679 775 CURVE SMOOTH",
"590 775 OFFCURVE",
"433 780 OFFCURVE",
"348 790 CURVE",
"296 681 LINE SMOOTH",
"216 512 OFFCURVE",
"-35 91 OFFCURVE",
"-35 44 CURVE SMOOTH",
"-35 20 OFFCURVE",
"-6 -6 OFFCURVE",
"111 -33 CURVE"
);
},
{
closed = 1;
nodes = (
"448 -1 OFFCURVE",
"511 4 OFFCURVE",
"565 4 CURVE SMOOTH",
"680 4 OFFCURVE",
"775 -19 OFFCURVE",
"826 -19 CURVE SMOOTH",
"901 -19 OFFCURVE",
"959 52 OFFCURVE",
"974 191 CURVE",
"900 161 OFFCURVE",
"742 140 OFFCURVE",
"581 140 CURVE SMOOTH",
"425 140 OFFCURVE",
"391 23 OFFCURVE",
"382 -19 CURVE"
);
},
{
closed = 1;
nodes = (
"630 52 LINE",
"630 60 OFFCURVE",
"630 68 OFFCURVE",
"630 77 CURVE SMOOTH",
"630 239 OFFCURVE",
"692 575 OFFCURVE",
"692 683 CURVE SMOOTH",
"692 697 OFFCURVE",
"692 709 OFFCURVE",
"690 721 CURVE",
"501 719 LINE",
"501 528 OFFCURVE",
"446 232 OFFCURVE",
"446 128 CURVE SMOOTH",
"446 88 OFFCURVE",
"452 56 OFFCURVE",
"480 29 CURVE"
);
},
{
closed = 1;
nodes = (
"422 315 OFFCURVE",
"491 322 OFFCURVE",
"629 322 CURVE SMOOTH",
"663 322 OFFCURVE",
"702 321 OFFCURVE",
"744 321 CURVE SMOOTH",
"810 321 OFFCURVE",
"854 340 OFFCURVE",
"854 416 CURVE SMOOTH",
"854 432 OFFCURVE",
"850 450 OFFCURVE",
"844 466 CURVE",
"797 439 OFFCURVE",
"724 433 OFFCURVE",
"650 433 CURVE SMOOTH",
"603 433 OFFCURVE",
"551 436 OFFCURVE",
"504 436 CURVE SMOOTH",
"393 436 OFFCURVE",
"304 423 OFFCURVE",
"304 343 CURVE SMOOTH",
"304 323 OFFCURVE",
"310 300 OFFCURVE",
"314 280 CURVE"
);
}
);
width = 1009;
}
);
rightMetricsKey = E;
unicode = 00C6;
},
{
glyphname = B;
lastChange = "2017-12-05 20:42:37 +0000";
layers = (
{
hints = (
{
place = "{156, 49}";
},
{
place = "{503, 108}";
},
{
place = "{156, 102}";
},
{
horizontal = 1;
place = "{-24, 71}";
},
{
horizontal = 1;
place = "{728, 74}";
},
{
horizontal = 1;
place = "{847, -20}";
target = down;
type = TopGhost;
}
);
layerId = UUID0;
paths = (
{
closed = 1;
nodes = (
"155 0 OFFCURVE",
"240 -24 OFFCURVE",
"324 -24 CURVE SMOOTH",
"488 -24 OFFCURVE",
"606 75 OFFCURVE",
"606 212 CURVE SMOOTH",
"606 313 OFFCURVE",
"536 391 OFFCURVE",
"422 418 CURVE",
"544 458 OFFCURVE",
"611 536 OFFCURVE",
"611 636 CURVE SMOOTH",
"611 738 OFFCURVE",
"540 802 OFFCURVE",
"428 802 CURVE SMOOTH",
"369 802 OFFCURVE",
"300 786 OFFCURVE",
"246 759 CURVE",
"231 801 OFFCURVE",
"199 828 OFFCURVE",
"142 847 CURVE",
"153 819 OFFCURVE",
"156 789 OFFCURVE",
"156 719 CURVE SMOOTH",
"156 568 OFFCURVE",
"122 241 OFFCURVE",
"90 43 CURVE"
);
},
{
closed = 1;
nodes = (
"461 738 OFFCURVE",
"508 694 OFFCURVE",
"508 616 CURVE SMOOTH",
"508 513 OFFCURVE",
"429 447 OFFCURVE",
"283 428 CURVE",
"286 392 LINE",
"426 384 OFFCURVE",
"503 321 OFFCURVE",
"503 215 CURVE SMOOTH",
"503 105 OFFCURVE",
"430 37 OFFCURVE",
"309 37 CURVE SMOOTH",
"274 37 OFFCURVE",
"241 43 OFFCURVE",
"205 55 CURVE",
"205 198 OFFCURVE",
"258 580 OFFCURVE",
"258 712 CURVE",
"291 728 OFFCURVE",
"337 738 OFFCURVE",
"378 738 CURVE SMOOTH"
);
}
);
width = 679;
},
{
layerId = UUID1;
paths = (
{
closed = 1;
nodes = (
"144 3 OFFCURVE",
"239 -24 OFFCURVE",
"332 -24 CURVE SMOOTH",
"485 -24 OFFCURVE",
"631 54 OFFCURVE",
"631 221 CURVE SMOOTH",
"631 333 OFFCURVE",
"524 401 OFFCURVE",
"444 418 CURVE",
"561 457 OFFCURVE",
"631 543 OFFCURVE",
"631 638 CURVE SMOOTH",
"631 741 OFFCURVE",
"538 802 OFFCURVE",
"438 802 CURVE SMOOTH",
"391 802 OFFCURVE",
"324 792 OFFCURVE",
"261 759 CURVE",
"243 799 OFFCURVE",
"203 827 OFFCURVE",
"127 847 CURVE",
"136 826 OFFCURVE",
"141 786 OFFCURVE",
"141 735 CURVE SMOOTH",
"141 437 OFFCURVE",
"90 179 OFFCURVE",
"75 53 CURVE"
);
},
{
closed = 1;
nodes = (
"458 720 OFFCURVE",
"490 667 OFFCURVE",
"490 612 CURVE SMOOTH",
"490 537 OFFCURVE",
"426 447 OFFCURVE",
"295 428 CURVE",
"298 392 LINE",
"419 387 OFFCURVE",
"480 307 OFFCURVE",
"480 230 CURVE SMOOTH",
"480 122 OFFCURVE",
"409 57 OFFCURVE",
"312 57 CURVE SMOOTH",
"278 57 OFFCURVE",
"244 67 OFFCURVE",
"220 77 CURVE",
"220 213 OFFCURVE",
"273 572 OFFCURVE",
"273 697 CURVE",
"293 706 OFFCURVE",
"338 720 OFFCURVE",
"375 720 CURVE SMOOTH"
);
}
);
width = 691;
},
{
layerId = "BF8042A9-B348-454C-A59B-E2F834F64B4C";
paths = (
{
closed = 1;
nodes = (
"129 7 OFFCURVE",
"249 -24 OFFCURVE",
"359 -24 CURVE SMOOTH",
"550 -24 OFFCURVE",
"681 71 OFFCURVE",
"681 210 CURVE SMOOTH",
"681 309 OFFCURVE",
"606 389 OFFCURVE",
"485 418 CURVE",
"596 457 OFFCURVE",
"672 549 OFFCURVE",
"672 646 CURVE SMOOTH",
"672 740 OFFCURVE",
"603 802 OFFCURVE",
"497 802 CURVE SMOOTH",
"436 802 OFFCURVE",
"358 785 OFFCURVE",
"305 759 CURVE",
"275 807 OFFCURVE",
"203 840 OFFCURVE",
"113 847 CURVE",
"124 820 OFFCURVE",
"127 789 OFFCURVE",
"127 716 CURVE SMOOTH",
"127 527 OFFCURVE",
"99 251 OFFCURVE",
"60 53 CURVE"
);
},
{
closed = 1;
nodes = (
"452 705 OFFCURVE",
"487 666 OFFCURVE",
"487 608 CURVE SMOOTH",
"487 523 OFFCURVE",
"420 443 OFFCURVE",
"334 428 CURVE",
"337 392 LINE",
"428 387 OFFCURVE",
"487 321 OFFCURVE",
"487 226 CURVE SMOOTH",
"487 137 OFFCURVE",
"430 76 OFFCURVE",
"346 76 CURVE SMOOTH",
"316 76 OFFCURVE",
"276 87 OFFCURVE",
"264 99 CURVE",
"264 230 OFFCURVE",
"318 568 OFFCURVE",
"318 688 CURVE",
"348 698 OFFCURVE",
"380 705 OFFCURVE",
"400 705 CURVE SMOOTH"
);
}
);
width = 736;
}
);
unicode = 0042;
},
{
glyphname = C;
lastChange = "2017-12-07 10:35:53 +0000";
layers = (
{
anchors = (
{
name = bottom;
position = "{310, 0}";
},
{
name = top;
position = "{404, 847}";
}
);
hints = (
{
place = "{60, 108}";
},
{
place = "{525, 112}";
},
{
horizontal = 1;
place = "{-15, 78}";
},
{
horizontal = 1;
place = "{748, 58}";
}
);
layerId = UUID0;
paths = (
{
closed = 1;
nodes = (
"521 102 OFFCURVE",
"438 43 OFFCURVE",
"355 43 CURVE SMOOTH",
"240 43 OFFCURVE",
"168 154 OFFCURVE",
"168 331 CURVE SMOOTH",
"168 560 OFFCURVE",
"284 748 OFFCURVE",
"425 748 CURVE SMOOTH",
"488 748 OFFCURVE",
"525 709 OFFCURVE",
"525 640 CURVE SMOOTH",
"525 588 OFFCURVE",
"500 522 OFFCURVE",
"467 486 CURVE",
"485 481 OFFCURVE",
"500 478 OFFCURVE",
"511 478 CURVE SMOOTH",
"585 478 OFFCURVE",
"637 539 OFFCURVE",
"637 625 CURVE SMOOTH",
"637 736 OFFCURVE",
"557 806 OFFCURVE",
"431 806 CURVE SMOOTH",
"212 806 OFFCURVE",
"60 614 OFFCURVE",
"60 337 CURVE SMOOTH",
"60 116 OFFCURVE",
"164 -25 OFFCURVE",
"327 -25 CURVE SMOOTH",
"444 -25 OFFCURVE",
"551 48 OFFCURVE",
"611 168 CURVE",
"611 180 OFFCURVE",
"589 195 OFFCURVE",
"570 195 CURVE"
);
}
);
width = 687;
},
{
anchors = (
{
name = bottom;
position = "{310, 0}";
},
{
name = top;
position = "{404, 847}";
}
);
layerId = UUID1;
paths = (
{
closed = 1;
nodes = (
"531 119 OFFCURVE",
"455 68 OFFCURVE",
"379 68 CURVE SMOOTH",
"271 68 OFFCURVE",
"203 172 OFFCURVE",
"203 335 CURVE SMOOTH",
"203 550 OFFCURVE",
"305 733 OFFCURVE",
"425 733 CURVE SMOOTH",
"479 733 OFFCURVE",
"510 698 OFFCURVE",
"510 636 CURVE SMOOTH",
"510 582 OFFCURVE",
"486 508 OFFCURVE",
"457 471 CURVE",
"480 465 OFFCURVE",
"495 463 OFFCURVE",
"510 463 CURVE SMOOTH",
"592 463 OFFCURVE",
"652 530 OFFCURVE",
"652 623 CURVE SMOOTH",
"652 736 OFFCURVE",
"569 806 OFFCURVE",
"436 806 CURVE SMOOTH",
"206 806 OFFCURVE",
"45 613 OFFCURVE",
"45 337 CURVE SMOOTH",
"45 115 OFFCURVE",
"154 -25 OFFCURVE",
"328 -25 CURVE SMOOTH",
"446 -25 OFFCURVE",
"552 45 OFFCURVE",
"621 168 CURVE",
"621 186 OFFCURVE",
"607 200 OFFCURVE",
"584 205 CURVE"
);
}
);
width = 687;
},
{
anchors = (
{
name = bottom;
position = "{313, 0}";
},
{
name = top;
position = "{407, 847}";
}
);
layerId = "BF8042A9-B348-454C-A59B-E2F834F64B4C";
paths = (
{
closed = 1;
nodes = (
"554 129 OFFCURVE",
"474 93 OFFCURVE",
"402 93 CURVE SMOOTH",
"299 93 OFFCURVE",
"242 179 OFFCURVE",
"242 335 CURVE SMOOTH",
"242 542 OFFCURVE",
"333 718 OFFCURVE",
"440 718 CURVE SMOOTH",
"483 718 OFFCURVE",
"505 689 OFFCURVE",
"505 632 CURVE SMOOTH",
"505 578 OFFCURVE",
"484 494 OFFCURVE",
"461 456 CURVE",
"482 451 OFFCURVE",
"501 448 OFFCURVE",
"517 448 CURVE SMOOTH",
"605 448 OFFCURVE",
"669 521 OFFCURVE",
"669 621 CURVE SMOOTH",
"669 736 OFFCURVE",
"588 806 OFFCURVE",
"454 806 CURVE SMOOTH",
"213 806 OFFCURVE",
"42 612 OFFCURVE",
"42 338 CURVE SMOOTH",
"42 116 OFFCURVE",
"162 -25 OFFCURVE",
"352 -25 CURVE SMOOTH",
"464 -25 OFFCURVE",
"561 34 OFFCURVE",
"635 148 CURVE",
"635 167 OFFCURVE",
"626 177 OFFCURVE",
"604 185 CURVE"
);
}
);
width = 694;
}
);
leftKerningGroup = C;
unicode = 0043;
},
{
glyphname = D;
lastChange = "2017-12-05 20:42:37 +0000";
layers = (
{
anchors = (
{
name = bottom;
position = "{344, 0}";
},
{
name = center;
position = "{234, 424}";
},
{
name = top;
position = "{418, 847}";
}
);
hints = (
{
place = "{156, 50}";
},
{
place = "{604, 105}";
},
{
place = "{156, 103}";
},
{
horizontal = 1;
place = "{-15, 70}";
},
{
horizontal = 1;
place = "{725, 77}";
},
{
horizontal = 1;
place = "{847, -20}";
target = down;
type = TopGhost;
}
);
layerId = UUID0;
paths = (
{
closed = 1;
nodes = (
"231 801 OFFCURVE",
"199 828 OFFCURVE",
"142 847 CURVE",
"153 818 OFFCURVE",
"156 789 OFFCURVE",
"156 714 CURVE SMOOTH",
"156 523 OFFCURVE",
"130 261 OFFCURVE",
"90 53 CURVE",
"144 14 OFFCURVE",
"245 -15 OFFCURVE",
"330 -15 CURVE SMOOTH",
"555 -15 OFFCURVE",
"709 163 OFFCURVE",
"709 423 CURVE SMOOTH",
"709 650 OFFCURVE",
"592 802 OFFCURVE",
"419 802 CURVE SMOOTH",
"362 802 OFFCURVE",
"312 790 OFFCURVE",
"246 759 CURVE"
);
},
{
closed = 1;
nodes = (
"206 208 OFFCURVE",
"259 575 OFFCURVE",
"259 702 CURVE",
"293 722 OFFCURVE",
"343 735 OFFCURVE",
"386 735 CURVE SMOOTH",
"517 735 OFFCURVE",
"604 612 OFFCURVE",
"604 428 CURVE SMOOTH",
"604 186 OFFCURVE",
"494 45 OFFCURVE",
"303 45 CURVE SMOOTH",
"268 45 OFFCURVE",
"233 53 OFFCURVE",
"206 70 CURVE"
);
}
);
width = 760;
},
{
anchors = (
{
name = bottom;
position = "{344, 0}";
},
{
name = center;
position = "{251, 424}";
},
{
name = top;
position = "{418, 847}";
}
);
layerId = UUID1;
paths = (
{
closed = 1;
nodes = (
"242 801 OFFCURVE",
"200 828 OFFCURVE",
"127 847 CURVE",
"136 824 OFFCURVE",
"141 784 OFFCURVE",
"141 727 CURVE SMOOTH",
"141 581 OFFCURVE",
"106 227 OFFCURVE",
"75 53 CURVE",
"130 14 OFFCURVE",
"236 -15 OFFCURVE",
"325 -15 CURVE SMOOTH",
"563 -15 OFFCURVE",
"724 163 OFFCURVE",
"724 426 CURVE SMOOTH",
"724 650 OFFCURVE",
"603 802 OFFCURVE",
"424 802 CURVE SMOOTH",
"370 802 OFFCURVE",
"323 790 OFFCURVE",
"261 759 CURVE"
);
},
{
closed = 1;
nodes = (
"221 211 OFFCURVE",
"274 572 OFFCURVE",
"274 697 CURVE",
"299 708 OFFCURVE",
"339 715 OFFCURVE",
"373 715 CURVE SMOOTH",
"497 715 OFFCURVE",
"579 600 OFFCURVE",
"579 427 CURVE SMOOTH",
"579 215 OFFCURVE",
"465 60 OFFCURVE",
"308 60 CURVE SMOOTH",
"276 60 OFFCURVE",
"245 65 OFFCURVE",
"221 75 CURVE"
);
}
);
width = 760;
},
{
anchors = (
{
name = bottom;
position = "{360, 0}";
},
{
name = center;
position = "{294, 424}";
},
{
name = top;
position = "{434, 847}";
}
);
layerId = "BF8042A9-B348-454C-A59B-E2F834F64B4C";
paths = (
{
closed = 1;
nodes = (
"270 813 OFFCURVE",
"196 847 OFFCURVE",
"111 847 CURVE",
"122 799 OFFCURVE",
"125 772 OFFCURVE",
"125 710 CURVE SMOOTH",
"125 506 OFFCURVE",
"97 216 OFFCURVE",
"61 53 CURVE",
"129 12 OFFCURVE",
"236 -15 OFFCURVE",
"332 -15 CURVE SMOOTH",
"581 -15 OFFCURVE",
"750 164 OFFCURVE",
"750 428 CURVE SMOOTH",
"750 650 OFFCURVE",
"632 802 OFFCURVE",
"460 802 CURVE SMOOTH",
"411 802 OFFCURVE",
"365 789 OFFCURVE",
"302 759 CURVE"
);
},
{
closed = 1;
nodes = (
"264 216 OFFCURVE",
"315 567 OFFCURVE",
"315 689 CURVE",
"333 694 OFFCURVE",
"361 698 OFFCURVE",
"382 698 CURVE SMOOTH",
"490 698 OFFCURVE",
"562 588 OFFCURVE",
"562 424 CURVE SMOOTH",
"562 197 OFFCURVE",
"478 68 OFFCURVE",
"332 68 CURVE SMOOTH",
"308 68 OFFCURVE",
"285 73 OFFCURVE",
"264 83 CURVE"
);
}
);
width = 791;
}
);
rightKerningGroup = D;
unicode = 0044;
},
{
glyphname = E;
lastChange = "2017-12-05 20:42:37 +0000";
layers = (
{
anchors = (
{
name = bottom;
position = "{296, 0}";
},
{
name = ogonek;
position = "{477, 0}";
},
{
name = top;
position = "{370, 847}";
},
{
name = topleft;
position = "{20, 847}";
}
);
background = {
paths = (
{
closed = 1;
nodes = (
"230 50 LINE",
"221 60 OFFCURVE",
"220 65 OFFCURVE",
"220 95 CURVE SMOOTH",
"220 318 OFFCURVE",
"277 579 OFFCURVE",
"277 681 CURVE SMOOTH",
"277 695 OFFCURVE",
"276 706 OFFCURVE",
"274 717 CURVE",
"174 712 LINE",
"173 497 OFFCURVE",
"110 203 OFFCURVE",
"110 92 CURVE SMOOTH",
"110 67 OFFCURVE",
"114 41 OFFCURVE",
"120 21 CURVE"
);
},
{
closed = 1;
nodes = (
"113 1 OFFCURVE",
"163 5 OFFCURVE",
"219 5 CURVE SMOOTH",
"314 5 OFFCURVE",
"394 -8 OFFCURVE",
"431 -8 CURVE SMOOTH",
"499 -8 OFFCURVE",
"544 37 OFFCURVE",
"554 114 CURVE",
"468 94 OFFCURVE",
"406 88 OFFCURVE",
"232 84 CURVE SMOOTH",
"143 82 OFFCURVE",
"90 52 OFFCURVE",
"70 -8 CURVE"
);
},
{
closed = 1;
nodes = (
"141 331 OFFCURVE",
"208 341 OFFCURVE",
"300 341 CURVE SMOOTH",
"343 341 OFFCURVE",
"376 340 OFFCURVE",
"388 340 CURVE SMOOTH",
"444 340 OFFCURVE",
"464 361 OFFCURVE",
"464 408 CURVE SMOOTH",
"464 422 OFFCURVE",
"462 435 OFFCURVE",
"459 445 CURVE",
"434 425 OFFCURVE",
"396 416 OFFCURVE",
"338 416 CURVE SMOOTH",
"303 416 OFFCURVE",
"244 419 OFFCURVE",
"209 419 CURVE SMOOTH",
"122 419 OFFCURVE",
"86 395 OFFCURVE",
"86 338 CURVE SMOOTH",
"86 330 OFFCURVE",
"88 316 OFFCURVE",
"90 309 CURVE"
);
},
{
closed = 1;
nodes = (
"309 681 OFFCURVE",
"425 688 OFFCURVE",
"477 696 CURVE SMOOTH",
"546 708 OFFCURVE",
"580 738 OFFCURVE",
"589 793 CURVE",
"515 779 OFFCURVE",
"429 771 OFFCURVE",
"341 771 CURVE SMOOTH",
"274 771 OFFCURVE",
"202 776 OFFCURVE",
"134 785 CURVE",
"129 771 OFFCURVE",
"126 752 OFFCURVE",
"126 733 CURVE SMOOTH",
"126 689 OFFCURVE",
"140 681 OFFCURVE",
"216 681 CURVE SMOOTH"
);
}
);
};
hints = (
{
place = "{86, 134}";
},
{
place = "{107, 113}";
},
{
place = "{126, 151}";
},
{
place = "{174, 103}";
},
{
horizontal = 1;
place = "{-8, 92}";
},
{
horizontal = 1;
place = "{5, 79}";
},
{
horizontal = 1;
place = "{340, 79}";
},
{
horizontal = 1;
place = "{681, 31}";
},
{
horizontal = 1;
place = "{681, 90}";
},
{
horizontal = 1;
place = "{793, -20}";
target = down;
type = TopGhost;
}
);
layerId = UUID0;
paths = (
{
closed = 1;
nodes = (
"230 50 LINE",
"221 60 OFFCURVE",
"220 65 OFFCURVE",
"220 95 CURVE SMOOTH",
"220 318 OFFCURVE",
"277 579 OFFCURVE",
"277 681 CURVE SMOOTH",
"277 695 OFFCURVE",
"276 706 OFFCURVE",
"274 717 CURVE",
"174 712 LINE",
"173 497 OFFCURVE",
"110 203 OFFCURVE",
"110 92 CURVE SMOOTH",
"110 67 OFFCURVE",
"114 41 OFFCURVE",
"120 21 CURVE"
);
},
{
closed = 1;
nodes = (
"113 1 OFFCURVE",
"163 5 OFFCURVE",
"219 5 CURVE SMOOTH",
"314 5 OFFCURVE",
"394 -8 OFFCURVE",
"431 -8 CURVE SMOOTH",
"499 -8 OFFCURVE",
"544 37 OFFCURVE",
"554 114 CURVE",
"468 94 OFFCURVE",
"406 88 OFFCURVE",
"232 84 CURVE SMOOTH",
"143 82 OFFCURVE",
"90 52 OFFCURVE",
"70 -8 CURVE"
);
},
{
closed = 1;
nodes = (
"141 331 OFFCURVE",
"208 341 OFFCURVE",
"300 341 CURVE SMOOTH",
"343 341 OFFCURVE",
"376 340 OFFCURVE",
"388 340 CURVE SMOOTH",
"444 340 OFFCURVE",
"464 361 OFFCURVE",
"464 408 CURVE SMOOTH",
"464 422 OFFCURVE",
"462 435 OFFCURVE",
"459 445 CURVE",
"434 425 OFFCURVE",
"396 416 OFFCURVE",
"338 416 CURVE SMOOTH",
"303 416 OFFCURVE",
"244 419 OFFCURVE",
"209 419 CURVE SMOOTH",
"122 419 OFFCURVE",
"86 395 OFFCURVE",
"86 338 CURVE SMOOTH",
"86 330 OFFCURVE",
"88 316 OFFCURVE",
"90 309 CURVE"
);
},
{
closed = 1;
nodes = (
"309 681 OFFCURVE",
"425 688 OFFCURVE",
"477 696 CURVE SMOOTH",
"546 708 OFFCURVE",
"580 738 OFFCURVE",
"589 793 CURVE",
"515 779 OFFCURVE",
"429 771 OFFCURVE",
"341 771 CURVE SMOOTH",
"274 771 OFFCURVE",
"202 776 OFFCURVE",
"134 785 CURVE",
"129 771 OFFCURVE",
"126 752 OFFCURVE",
"126 733 CURVE SMOOTH",
"126 689 OFFCURVE",
"140 681 OFFCURVE",
"216 681 CURVE SMOOTH"
);
}
);
width = 599;
},
{
anchors = (
{
name = bottom;
position = "{303, 0}";
},
{
name = ogonek;
position = "{517, 0}";
},
{
name = top;
position = "{377, 847}";
},
{
name = topleft;
position = "{20, 847}";
}
);
background = {
paths = (
{
closed = 1;
nodes = (
"251 62 LINE",
"251 83 LINE SMOOTH",
"251 331 OFFCURVE",
"308 573 OFFCURVE",
"308 683 CURVE SMOOTH",
"308 699 OFFCURVE",
"306 714 OFFCURVE",
"302 727 CURVE",
"175 685 LINE",
"169 466 OFFCURVE",
"108 184 OFFCURVE",
"108 69 CURVE SMOOTH",
"108 56 OFFCURVE",
"109 45 OFFCURVE",
"112 35 CURVE"
);
}
);
};
layerId = UUID1;
paths = (
{
closed = 1;
nodes = (
"252 70 LINE",
"252 74 OFFCURVE",
"252 79 OFFCURVE",
"252 83 CURVE SMOOTH",
"252 331 OFFCURVE",
"309 573 OFFCURVE",
"309 683 CURVE SMOOTH",
"309 695 OFFCURVE",
"308 706 OFFCURVE",
"306 717 CURVE",
"176 712 LINE",
"175 489 OFFCURVE",
"109 189 OFFCURVE",
"109 69 CURVE SMOOTH",
"109 59 OFFCURVE",
"110 49 OFFCURVE",
"112 41 CURVE"
);
},
{
closed = 1;
nodes = (
"118 1 OFFCURVE",
"175 5 OFFCURVE",
"227 5 CURVE SMOOTH",
"332 5 OFFCURVE",
"419 -12 OFFCURVE",
"465 -12 CURVE SMOOTH",
"536 -12 OFFCURVE",
"588 44 OFFCURVE",
"600 144 CURVE",
"533 122 OFFCURVE",
"387 106 OFFCURVE",
"241 106 CURVE SMOOTH",
"99 106 OFFCURVE",
"68 19 OFFCURVE",
"60 -12 CURVE"
);
},
{
closed = 1;
nodes = (
"171 335 OFFCURVE",
"261 335 OFFCURVE",
"331 335 CURVE SMOOTH",
"360 335 OFFCURVE",
"391 334 OFFCURVE",
"427 334 CURVE SMOOTH",
"468 334 OFFCURVE",
"495 357 OFFCURVE",
"495 425 CURVE SMOOTH",
"495 435 OFFCURVE",
"494 445 OFFCURVE",
"493 455 CURVE",
"460 428 OFFCURVE",
"409 422 OFFCURVE",
"358 422 CURVE SMOOTH",
"324 422 OFFCURVE",
"256 425 OFFCURVE",
"222 425 CURVE SMOOTH",
"148 425 OFFCURVE",
"88 412 OFFCURVE",
"88 332 CURVE SMOOTH",
"88 321 OFFCURVE",
"89 310 OFFCURVE",
"90 299 CURVE"
);
},
{
closed = 1;
nodes = (
"286 655 OFFCURVE",
"428 658 OFFCURVE",
"506 673 CURVE SMOOTH",
"571 685 OFFCURVE",
"623 717 OFFCURVE",
"634 799 CURVE",
"550 783 OFFCURVE",
"454 775 OFFCURVE",
"357 775 CURVE SMOOTH",
"279 775 OFFCURVE",
"200 780 OFFCURVE",
"125 790 CURVE",
"121 778 OFFCURVE",
"117 757 OFFCURVE",
"117 731 CURVE SMOOTH",
"117 669 OFFCURVE",
"125 655 OFFCURVE",
"195 655 CURVE SMOOTH"
);
}
);
width = 634;
},
{
anchors = (
{
name = bottom;
position = "{310, 0}";
},
{
name = ogonek;
position = "{548, 0}";
},
{
name = top;
position = "{385, 847}";
},
{
name = topleft;
position = "{20, 847}";
}
);
background = {
paths = (
{
closed = 1;
nodes = (
"259 62 LINE",
"259 83 LINE SMOOTH",
"259 331 OFFCURVE",
"316 573 OFFCURVE",
"316 683 CURVE SMOOTH",
"316 699 OFFCURVE",
"314 714 OFFCURVE",
"310 727 CURVE",
"183 685 LINE",
"177 466 OFFCURVE",
"116 184 OFFCURVE",
"116 69 CURVE SMOOTH",
"116 56 OFFCURVE",
"117 45 OFFCURVE",
"120 35 CURVE"
);
}
);
};
layerId = "BF8042A9-B348-454C-A59B-E2F834F64B4C";
paths = (
{
closed = 1;
nodes = (
"290 52 LINE",
"290 60 OFFCURVE",
"290 68 OFFCURVE",
"290 77 CURVE SMOOTH",
"290 239 OFFCURVE",
"352 575 OFFCURVE",
"352 683 CURVE SMOOTH",
"352 697 OFFCURVE",
"352 709 OFFCURVE",
"350 721 CURVE",
"161 719 LINE",
"161 528 OFFCURVE",
"106 232 OFFCURVE",
"106 128 CURVE SMOOTH",
"106 88 OFFCURVE",
"112 56 OFFCURVE",
"140 29 CURVE"
);
},
{
closed = 1;
nodes = (
"108 -1 OFFCURVE",
"171 4 OFFCURVE",
"225 4 CURVE SMOOTH",
"340 4 OFFCURVE",
"435 -19 OFFCURVE",
"486 -19 CURVE SMOOTH",
"561 -19 OFFCURVE",
"619 52 OFFCURVE",
"634 191 CURVE",
"560 161 OFFCURVE",
"402 140 OFFCURVE",
"241 140 CURVE SMOOTH",
"85 140 OFFCURVE",
"51 23 OFFCURVE",
"42 -19 CURVE"
);
},
{
closed = 1;
nodes = (
"179 315 OFFCURVE",
"232 322 OFFCURVE",
"339 322 CURVE SMOOTH",
"366 321 OFFCURVE",
"396 321 OFFCURVE",
"429 321 CURVE SMOOTH",
"480 321 OFFCURVE",
"514 340 OFFCURVE",
"514 416 CURVE SMOOTH",
"514 432 OFFCURVE",
"511 450 OFFCURVE",
"506 466 CURVE",
"470 439 OFFCURVE",
"413 433 OFFCURVE",
"356 433 CURVE SMOOTH",
"319 433 OFFCURVE",
"279 436 OFFCURVE",
"242 436 CURVE SMOOTH",
"156 436 OFFCURVE",
"87 423 OFFCURVE",
"87 343 CURVE SMOOTH",
"87 323 OFFCURVE",
"92 300 OFFCURVE",
"95 280 CURVE"
);
},
{
closed = 1;
nodes = (
"333 614 OFFCURVE",
"455 622 OFFCURVE",
"519 636 CURVE SMOOTH",
"608 656 OFFCURVE",
"654 712 OFFCURVE",
"664 809 CURVE",
"566 791 OFFCURVE",
"463 781 OFFCURVE",
"360 781 CURVE SMOOTH",
"272 781 OFFCURVE",
"181 787 OFFCURVE",
"104 798 CURVE",
"99 780 OFFCURVE",
"96 755 OFFCURVE",
"96 729 CURVE SMOOTH",
"96 643 OFFCURVE",
"116 614 OFFCURVE",
"175 614 CURVE SMOOTH"
);
}
);
width = 669;
}
);
unicode = 0045;
},
{
glyphname = F;
lastChange = "2017-12-05 20:42:37 +0000";
layers = (
{
background = {
paths = (
{
closed = 1;
nodes = (
"158 693 LINE",
"154 473 OFFCURVE",
"91 186 OFFCURVE",
"91 69 CURVE SMOOTH",
"91 7 OFFCURVE",
"122 -17 OFFCURVE",
"198 -17 CURVE SMOOTH",
"210 -17 OFFCURVE",
"224 -16 OFFCURVE",
"240 -15 CURVE",
"234 20 OFFCURVE",
"234 52 OFFCURVE",
"234 83 CURVE SMOOTH",
"234 331 OFFCURVE",
"291 573 OFFCURVE",
"291 683 CURVE SMOOTH",
"291 700 OFFCURVE",
"289 715 OFFCURVE",
"285 729 CURVE"
);
}
);
};
hints = (
{
place = "{85, 134}";
},
{
place = "{106, 113}";
},
{
place = "{173, 103}";
},
{
horizontal = 1;
place = "{340, 79}";
},
{
horizontal = 1;
place = "{681, 31}";
},
{
horizontal = 1;
place = "{681, 90}";
},
{
horizontal = 1;
place = "{793, -20}";
target = down;
type = TopGhost;
},
{
horizontal = 1;
place = "{-17, 21}";
target = up;
type = BottomGhost;
}
);
layerId = UUID0;
paths = (
{
closed = 1;
nodes = (
"205 -17 OFFCURVE",
"212 -16 OFFCURVE",
"225 -15 CURVE",
"219 20 OFFCURVE",
"219 52 OFFCURVE",
"219 83 CURVE SMOOTH",
"219 331 OFFCURVE",
"276 573 OFFCURVE",
"276 683 CURVE SMOOTH",
"276 695 OFFCURVE",
"275 706 OFFCURVE",
"273 717 CURVE",
"173 712 LINE",
"172 489 OFFCURVE",
"106 189 OFFCURVE",
"106 69 CURVE SMOOTH",
"106 7 OFFCURVE",
"137 -17 OFFCURVE",
"197 -17 CURVE SMOOTH"
);
},
{
closed = 1;
nodes = (
"162 340 OFFCURVE",
"245 341 OFFCURVE",
"310 341 CURVE SMOOTH",
"337 341 OFFCURVE",
"366 340 OFFCURVE",
"399 340 CURVE SMOOTH",
"437 340 OFFCURVE",
"462 360 OFFCURVE",
"462 419 CURVE SMOOTH",
"462 428 OFFCURVE",
"461 437 OFFCURVE",
"460 445 CURVE",
"429 421 OFFCURVE",
"382 416 OFFCURVE",
"335 416 CURVE SMOOTH",
"304 416 OFFCURVE",
"241 419 OFFCURVE",
"209 419 CURVE SMOOTH",
"141 419 OFFCURVE",
"85 408 OFFCURVE",
"85 338 CURVE SMOOTH",
"85 328 OFFCURVE",
"86 318 OFFCURVE",
"87 309 CURVE"
);
},
{
closed = 1;
nodes = (
"260 681 OFFCURVE",
"385 684 OFFCURVE",
"455 696 CURVE SMOOTH",
"512 705 OFFCURVE",
"558 729 OFFCURVE",
"568 793 CURVE",
"493 778 OFFCURVE",
"406 771 OFFCURVE",
"320 771 CURVE SMOOTH",
"251 771 OFFCURVE",
"179 776 OFFCURVE",
"113 785 CURVE",
"109 774 OFFCURVE",
"105 755 OFFCURVE",
"105 732 CURVE SMOOTH",
"105 690 OFFCURVE",
"123 681 OFFCURVE",
"179 681 CURVE SMOOTH"
);
}
);
width = 520;
},
{
background = {
paths = (
{
closed = 1;
nodes = (
"158 693 LINE",
"154 473 OFFCURVE",
"91 186 OFFCURVE",
"91 69 CURVE SMOOTH",
"91 7 OFFCURVE",
"122 -17 OFFCURVE",
"198 -17 CURVE SMOOTH",
"210 -17 OFFCURVE",
"224 -16 OFFCURVE",
"240 -15 CURVE",
"234 20 OFFCURVE",
"234 52 OFFCURVE",
"234 83 CURVE SMOOTH",
"234 331 OFFCURVE",
"291 573 OFFCURVE",
"291 683 CURVE SMOOTH",
"291 700 OFFCURVE",
"289 715 OFFCURVE",
"285 729 CURVE"
);
}
);
};
layerId = UUID1;
paths = (
{
closed = 1;
nodes = (
"210 -17 OFFCURVE",
"224 -16 OFFCURVE",
"240 -15 CURVE",
"234 20 OFFCURVE",
"234 52 OFFCURVE",
"234 83 CURVE SMOOTH",
"234 331 OFFCURVE",
"291 573 OFFCURVE",
"291 683 CURVE SMOOTH",
"291 695 OFFCURVE",
"290 706 OFFCURVE",
"288 717 CURVE",
"158 712 LINE",
"157 489 OFFCURVE",
"91 189 OFFCURVE",
"91 69 CURVE SMOOTH",
"91 7 OFFCURVE",
"122 -17 OFFCURVE",
"198 -17 CURVE SMOOTH"
);
},
{
closed = 1;
nodes = (
"153 335 OFFCURVE",
"243 335 OFFCURVE",
"313 335 CURVE SMOOTH",
"342 335 OFFCURVE",
"373 334 OFFCURVE",
"409 334 CURVE SMOOTH",
"450 334 OFFCURVE",
"477 357 OFFCURVE",
"477 425 CURVE SMOOTH",
"477 435 OFFCURVE",
"476 445 OFFCURVE",
"475 455 CURVE",
"442 428 OFFCURVE",
"391 422 OFFCURVE",
"340 422 CURVE SMOOTH",
"306 422 OFFCURVE",
"238 425 OFFCURVE",
"204 425 CURVE SMOOTH",
"130 425 OFFCURVE",
"70 412 OFFCURVE",
"70 332 CURVE SMOOTH",
"70 321 OFFCURVE",
"71 310 OFFCURVE",
"72 299 CURVE"
);
},
{
closed = 1;
nodes = (
"246 655 OFFCURVE",
"388 658 OFFCURVE",
"467 673 CURVE SMOOTH",
"532 685 OFFCURVE",
"584 717 OFFCURVE",
"595 799 CURVE",
"511 783 OFFCURVE",
"415 775 OFFCURVE",
"318 775 CURVE SMOOTH",
"240 775 OFFCURVE",
"161 780 OFFCURVE",
"86 790 CURVE",
"82 778 OFFCURVE",
"78 757 OFFCURVE",
"78 731 CURVE SMOOTH",
"78 669 OFFCURVE",
"86 655 OFFCURVE",
"156 655 CURVE SMOOTH"
);
}
);
width = 520;
},
{
background = {
paths = (
{
closed = 1;
nodes = (
"171 693 LINE",
"167 473 OFFCURVE",
"104 186 OFFCURVE",
"104 69 CURVE SMOOTH",
"104 7 OFFCURVE",
"135 -17 OFFCURVE",
"211 -17 CURVE SMOOTH",
"223 -17 OFFCURVE",
"237 -16 OFFCURVE",
"253 -15 CURVE",
"247 20 OFFCURVE",
"247 52 OFFCURVE",
"247 83 CURVE SMOOTH",
"247 331 OFFCURVE",
"304 573 OFFCURVE",
"304 683 CURVE SMOOTH",
"304 700 OFFCURVE",
"302 715 OFFCURVE",
"298 729 CURVE"
);
}
);
};
layerId = "BF8042A9-B348-454C-A59B-E2F834F64B4C";
paths = (
{
closed = 1;
nodes = (
"244 -17 OFFCURVE",
"266 -16 OFFCURVE",
"298 -13 CURVE",
"294 8 OFFCURVE",
"292 37 OFFCURVE",
"292 72 CURVE SMOOTH",
"292 339 OFFCURVE",
"349 576 OFFCURVE",
"349 676 CURVE SMOOTH",
"349 696 OFFCURVE",
"347 714 OFFCURVE",
"341 730 CURVE",
"160 713 LINE",
"160 501 OFFCURVE",
"93 181 OFFCURVE",
"93 76 CURVE SMOOTH",
"93 5 OFFCURVE",
"125 -17 OFFCURVE",
"227 -17 CURVE SMOOTH"
);
},
{
closed = 1;
nodes = (
"166 315 OFFCURVE",
"219 322 OFFCURVE",
"326 322 CURVE SMOOTH",
"353 321 OFFCURVE",
"383 321 OFFCURVE",
"416 321 CURVE SMOOTH",
"467 321 OFFCURVE",
"501 340 OFFCURVE",
"501 416 CURVE SMOOTH",
"501 432 OFFCURVE",
"498 450 OFFCURVE",
"493 466 CURVE",
"457 439 OFFCURVE",
"400 433 OFFCURVE",
"343 433 CURVE SMOOTH",
"306 433 OFFCURVE",
"266 436 OFFCURVE",
"229 436 CURVE SMOOTH",
"143 436 OFFCURVE",
"74 423 OFFCURVE",
"74 343 CURVE SMOOTH",
"74 323 OFFCURVE",
"79 300 OFFCURVE",
"82 280 CURVE"
);
},
{
closed = 1;
nodes = (
"269 614 OFFCURVE",
"422 617 OFFCURVE",
"506 636 CURVE SMOOTH",
"581 653 OFFCURVE",
"639 697 OFFCURVE",
"651 809 CURVE",
"558 791 OFFCURVE",
"454 781 OFFCURVE",
"347 781 CURVE SMOOTH",
"267 781 OFFCURVE",
"175 786 OFFCURVE",
"91 798 CURVE",
"87 784 OFFCURVE",
"83 761 OFFCURVE",
"83 729 CURVE SMOOTH",
"83 635 OFFCURVE",
"74 614 OFFCURVE",
"162 614 CURVE SMOOTH"
);
}
);
width = 612;
}
);
unicode = 0046;
},
{
glyphname = G;
lastChange = "2017-12-05 20:42:37 +0000";
layers = (
{
anchors = (
{
name = bottom;
position = "{323, 0}";
},
{
name = top;
position = "{397, 847}";
}
);
hints = (
{
place = "{55, 107}";
},
{
place = "{70, 92}";
},
{
place = "{488, 108}";
},
{
place = "{530, 92}";
},
{
place = "{70, 112}";
},
{
horizontal = 1;
place = "{-329, 58}";
},
{
horizontal = 1;
place = "{29, 70}";
},
{
horizontal = 1;
place = "{481, 51}";
},
{
horizontal = 1;
place = "{748, 58}";
},
{
horizontal = 1;
place = "{-16, 21}";
target = up;
type = BottomGhost;
}
);
layerId = UUID0;
paths = (
{
closed = 1;
nodes = (
"477 364 LINE",
"479 347 OFFCURVE",
"480 330 OFFCURVE",
"480 314 CURVE SMOOTH",
"480 192 OFFCURVE",
"409 99 OFFCURVE",
"315 99 CURVE SMOOTH",
"223 99 OFFCURVE",
"162 191 OFFCURVE",
"162 330 CURVE SMOOTH",
"162 550 OFFCURVE",
"284 748 OFFCURVE",
"419 748 CURVE SMOOTH",
"484 748 OFFCURVE",
"530 705 OFFCURVE",
"530 645 CURVE SMOOTH",
"530 580 OFFCURVE",
"478 532 OFFCURVE",
"408 532 CURVE SMOOTH",
"391 532 OFFCURVE",
"374 534 OFFCURVE",
"357 539 CURVE",
"383 503 OFFCURVE",
"430 481 OFFCURVE",
"480 481 CURVE SMOOTH",
"563 481 OFFCURVE",
"622 544 OFFCURVE",
"622 633 CURVE SMOOTH",
"622 739 OFFCURVE",
"545 806 OFFCURVE",
"424 806 CURVE SMOOTH",
"214 806 OFFCURVE",
"55 603 OFFCURVE",
"55 335 CURVE SMOOTH",
"55 152 OFFCURVE",
"145 29 OFFCURVE",
"280 29 CURVE SMOOTH",
"395 29 OFFCURVE",
"491 121 OFFCURVE",
"524 263 CURVE"
);
},
{
closed = 1;
nodes = (
"208 -271 OFFCURVE",
"182 -219 OFFCURVE",
"182 -159 CURVE SMOOTH",
"182 -105 OFFCURVE",
"204 -62 OFFCURVE",
"225 -33 CURVE",
"208 -21 OFFCURVE",
"189 -16 OFFCURVE",
"173 -16 CURVE SMOOTH",
"115 -16 OFFCURVE",
"70 -72 OFFCURVE",
"70 -148 CURVE SMOOTH",
"70 -235 OFFCURVE",
"126 -329 OFFCURVE",
"269 -329 CURVE SMOOTH",
"520 -329 OFFCURVE",
"596 0 OFFCURVE",
"596 280 CURVE SMOOTH",
"596 341 OFFCURVE",
"576 366 OFFCURVE",
"514 366 CURVE SMOOTH",
"504 366 OFFCURVE",
"486 365 OFFCURVE",
"477 364 CURVE",
"483 330 OFFCURVE",
"488 294 OFFCURVE",
"488 260 CURVE SMOOTH",
"488 -54 OFFCURVE",
"430 -271 OFFCURVE",
"280 -271 CURVE SMOOTH"
);
}
);
width = 687;
},
{
anchors = (
{
name = bottom;
position = "{323, 0}";
},
{
name = top;
position = "{397, 847}";
}
);
layerId = UUID1;
paths = (
{
closed = 1;
nodes = (
"462 364 LINE",
"464 347 OFFCURVE",
"465 330 OFFCURVE",
"465 314 CURVE SMOOTH",
"465 200 OFFCURVE",
"407 114 OFFCURVE",
"329 114 CURVE SMOOTH",
"250 114 OFFCURVE",
"197 201 OFFCURVE",
"197 333 CURVE SMOOTH",
"197 544 OFFCURVE",
"302 733 OFFCURVE",
"420 733 CURVE SMOOTH",
"475 733 OFFCURVE",
"515 696 OFFCURVE",
"515 645 CURVE SMOOTH",
"515 586 OFFCURVE",
"465 542 OFFCURVE",
"398 542 CURVE SMOOTH",
"381 542 OFFCURVE",
"364 544 OFFCURVE",
"347 549 CURVE",
"373 501 OFFCURVE",
"425 471 OFFCURVE",
"482 471 CURVE SMOOTH",
"571 471 OFFCURVE",
"637 539 OFFCURVE",
"637 631 CURVE SMOOTH",
"637 739 OFFCURVE",
"557 806 OFFCURVE",
"429 806 CURVE SMOOTH",
"208 806 OFFCURVE",
"40 603 OFFCURVE",
"40 335 CURVE SMOOTH",
"40 152 OFFCURVE",
"133 29 OFFCURVE",
"272 29 CURVE SMOOTH",
"391 29 OFFCURVE",
"491 122 OFFCURVE",
"524 263 CURVE"
);
},
{
closed = 1;
nodes = (
"219 -256 OFFCURVE",
"197 -211 OFFCURVE",
"197 -159 CURVE SMOOTH",
"197 -99 OFFCURVE",
"224 -51 OFFCURVE",
"250 -18 CURVE",
"227 -7 OFFCURVE",
"205 -1 OFFCURVE",
"184 -1 CURVE SMOOTH",
"112 -1 OFFCURVE",
"55 -62 OFFCURVE",
"55 -148 CURVE SMOOTH",
"55 -235 OFFCURVE",
"114 -329 OFFCURVE",
"265 -329 CURVE SMOOTH",
"531 -329 OFFCURVE",
"611 0 OFFCURVE",
"611 280 CURVE SMOOTH",
"611 341 OFFCURVE",
"586 366 OFFCURVE",
"508 366 CURVE SMOOTH",
"496 366 OFFCURVE",
"473 365 OFFCURVE",
"462 364 CURVE",
"468 331 OFFCURVE",
"473 296 OFFCURVE",
"473 262 CURVE SMOOTH",
"473 -44 OFFCURVE",
"419 -256 OFFCURVE",
"280 -256 CURVE SMOOTH"
);
}
);
width = 687;
},
{
anchors = (
{
name = bottom;
position = "{352, 0}";
},
{
name = top;
position = "{426, 847}";
}
);
layerId = "BF8042A9-B348-454C-A59B-E2F834F64B4C";
paths = (
{
closed = 1;
nodes = (
"487 364 LINE",
"489 350 OFFCURVE",
"490 333 OFFCURVE",
"490 314 CURVE SMOOTH",
"490 203 OFFCURVE",
"438 122 OFFCURVE",
"366 122 CURVE SMOOTH",
"291 122 OFFCURVE",
"241 207 OFFCURVE",
"241 334 CURVE SMOOTH",
"241 540 OFFCURVE",
"341 725 OFFCURVE",
"453 725 CURVE SMOOTH",
"504 725 OFFCURVE",
"542 691 OFFCURVE",
"542 645 CURVE SMOOTH",
"542 590 OFFCURVE",
"491 548 OFFCURVE",
"423 548 CURVE SMOOTH",
"408 548 OFFCURVE",
"389 551 OFFCURVE",
"371 555 CURVE",
"398 500 OFFCURVE",
"454 465 OFFCURVE",
"517 465 CURVE SMOOTH",
"612 465 OFFCURVE",
"685 537 OFFCURVE",
"685 630 CURVE SMOOTH",
"685 739 OFFCURVE",
"600 806 OFFCURVE",
"464 806 CURVE SMOOTH",
"223 806 OFFCURVE",
"41 602 OFFCURVE",
"41 334 CURVE SMOOTH",
"41 153 OFFCURVE",
"144 29 OFFCURVE",
"295 29 CURVE SMOOTH",
"419 29 OFFCURVE",
"525 122 OFFCURVE",
"560 263 CURVE"
);
},
{
closed = 1;
nodes = (
"251 -248 OFFCURVE",
"230 -207 OFFCURVE",
"230 -159 CURVE SMOOTH",
"230 -95 OFFCURVE",
"261 -45 OFFCURVE",
"290 -10 CURVE",
"263 1 OFFCURVE",
"238 7 OFFCURVE",
"214 7 CURVE SMOOTH",
"126 7 OFFCURVE",
"57 -57 OFFCURVE",
"57 -148 CURVE SMOOTH",
"57 -235 OFFCURVE",
"123 -329 OFFCURVE",
"290 -329 CURVE SMOOTH",
"573 -329 OFFCURVE",
"658 0 OFFCURVE",
"658 280 CURVE SMOOTH",
"658 341 OFFCURVE",
"629 366 OFFCURVE",
"540 366 CURVE SMOOTH",
"526 366 OFFCURVE",
"500 365 OFFCURVE",
"487 364 CURVE",
"493 333 OFFCURVE",
"499 298 OFFCURVE",
"499 263 CURVE SMOOTH",
"499 -38 OFFCURVE",
"445 -248 OFFCURVE",
"307 -248 CURVE SMOOTH"
);
}
);
width = 745;
}
);
leftKerningGroup = C;
unicode = 0047;
},
{
glyphname = H;
lastChange = "2017-12-05 20:42:37 +0000";
layers = (
{
anchors = (
{
name = bottom;
position = "{362, 0}";
},
{
name = center;
position = "{429, 599}";
},
{
name = top;
position = "{436, 847}";
},
{
name = topleft;
position = "{20, 847}";
}
);
background = {
paths = (
{
closed = 1;
nodes = (
"302 753 OFFCURVE",
"296 796 OFFCURVE",
"156 802 CURVE",
"158 776 OFFCURVE",
"160 748 OFFCURVE",
"160 720 CURVE SMOOTH",
"160 585 OFFCURVE",
"141 440 OFFCURVE",
"124 322 CURVE SMOOTH",
"113 241 OFFCURVE",
"103 173 OFFCURVE",
"103 129 CURVE SMOOTH",
"103 46 OFFCURVE",
"132 -1 OFFCURVE",
"250 -31 CURVE",
"241 -10 OFFCURVE",
"236 29 OFFCURVE",
"236 78 CURVE SMOOTH",
"236 180 OFFCURVE",
"257 334 OFFCURVE",
"276 464 CURVE SMOOTH",
"290 560 OFFCURVE",
"302 643 OFFCURVE",
"302 684 CURVE SMOOTH"
);
},
{
closed = 1;
nodes = (
"721 753 OFFCURVE",
"715 796 OFFCURVE",
"575 802 CURVE",
"577 776 OFFCURVE",
"579 748 OFFCURVE",
"579 720 CURVE SMOOTH",
"579 585 OFFCURVE",
"559 440 OFFCURVE",
"542 322 CURVE SMOOTH",
"531 241 OFFCURVE",
"522 173 OFFCURVE",
"522 129 CURVE SMOOTH",
"522 46 OFFCURVE",
"550 -1 OFFCURVE",
"668 -31 CURVE",
"659 -10 OFFCURVE",
"654 29 OFFCURVE",
"654 78 CURVE SMOOTH",
"654 180 OFFCURVE",
"676 334 OFFCURVE",
"695 464 CURVE SMOOTH",
"709 560 OFFCURVE",
"721 643 OFFCURVE",
"721 684 CURVE SMOOTH"
);
},
{
closed = 1;
nodes = (
"405 437 OFFCURVE",
"243 437 OFFCURVE",
"209 437 CURVE SMOOTH",
"135 437 OFFCURVE",
"75 424 OFFCURVE",
"75 344 CURVE SMOOTH",
"75 333 OFFCURVE",
"76 322 OFFCURVE",
"77 311 CURVE",
"158 347 OFFCURVE",
"311 347 OFFCURVE",
"381 347 CURVE SMOOTH",
"410 347 OFFCURVE",
"441 346 OFFCURVE",
"477 346 CURVE SMOOTH",
"518 346 OFFCURVE",
"576 354 OFFCURVE",
"576 440 CURVE"
);
}
);
};
hints = (
{
place = "{597, 107}";
},
{
place = "{539, 99}";
},
{
place = "{178, 107}";
},
{
place = "{120, 99}";
},
{
horizontal = 1;
place = "{354, 78}";
},
{
horizontal = 1;
place = "{802, -20}";
target = down;
type = TopGhost;
},
{
horizontal = 1;
place = "{-31, 21}";
target = up;
type = BottomGhost;
}
);
layerId = UUID0;
paths = (
{
closed = 1;
nodes = (
"412 432 OFFCURVE",
"257 432 OFFCURVE",
"224 432 CURVE SMOOTH",
"150 432 OFFCURVE",
"90 429 OFFCURVE",
"90 362 CURVE SMOOTH",
"90 353 OFFCURVE",
"91 333 OFFCURVE",
"92 324 CURVE",
"170 351 OFFCURVE",
"253 356 OFFCURVE",
"335 356 CURVE SMOOTH",
"384 356 OFFCURVE",
"434 354 OFFCURVE",
"480 354 CURVE SMOOTH",
"520 354 OFFCURVE",
"568 369 OFFCURVE",
"576 435 CURVE"
);
},
{
closed = 1;
nodes = (
"704 753 OFFCURVE",
"698 796 OFFCURVE",
"593 802 CURVE",
"595 776 OFFCURVE",
"597 748 OFFCURVE",
"597 720 CURVE SMOOTH",
"597 529 OFFCURVE",
"539 233 OFFCURVE",
"539 129 CURVE SMOOTH",
"539 46 OFFCURVE",
"568 -1 OFFCURVE",
"652 -31 CURVE",
"643 -10 OFFCURVE",
"638 29 OFFCURVE",
"638 78 CURVE SMOOTH",
"638 240 OFFCURVE",
"704 576 OFFCURVE",
"704 684 CURVE SMOOTH"
);
},
{
closed = 1;
nodes = (
"285 753 OFFCURVE",
"279 796 OFFCURVE",
"174 802 CURVE",
"176 776 OFFCURVE",
"178 748 OFFCURVE",
"178 720 CURVE SMOOTH",
"178 529 OFFCURVE",
"120 233 OFFCURVE",
"120 129 CURVE SMOOTH",
"120 46 OFFCURVE",
"149 -1 OFFCURVE",
"233 -31 CURVE",
"224 -10 OFFCURVE",
"219 29 OFFCURVE",
"219 78 CURVE SMOOTH",
"219 240 OFFCURVE",
"285 576 OFFCURVE",
"285 684 CURVE SMOOTH"
);
}
);
width = 791;
},
{
anchors = (
{
name = bottom;
position = "{362, 0}";
},
{
name = center;
position = "{426, 602}";
},
{
name = top;
position = "{436, 847}";
},
{
name = topleft;
position = "{20, 847}";
}
);
background = {
paths = (
{
closed = 1;
nodes = (
"302 753 OFFCURVE",
"296 796 OFFCURVE",
"156 802 CURVE",
"158 776 OFFCURVE",
"160 748 OFFCURVE",
"160 720 CURVE SMOOTH",
"160 585 OFFCURVE",
"141 440 OFFCURVE",
"124 322 CURVE SMOOTH",
"113 241 OFFCURVE",
"103 173 OFFCURVE",
"103 129 CURVE SMOOTH",
"103 46 OFFCURVE",
"132 -1 OFFCURVE",
"250 -31 CURVE",
"241 -10 OFFCURVE",
"236 29 OFFCURVE",
"236 78 CURVE SMOOTH",
"236 180 OFFCURVE",
"257 334 OFFCURVE",
"276 464 CURVE SMOOTH",
"290 560 OFFCURVE",
"302 643 OFFCURVE",
"302 684 CURVE SMOOTH"
);
},
{
closed = 1;
nodes = (
"721 753 OFFCURVE",
"715 796 OFFCURVE",
"575 802 CURVE",
"577 776 OFFCURVE",
"579 748 OFFCURVE",
"579 720 CURVE SMOOTH",
"579 585 OFFCURVE",
"559 440 OFFCURVE",
"542 322 CURVE SMOOTH",
"531 241 OFFCURVE",
"522 173 OFFCURVE",
"522 129 CURVE SMOOTH",
"522 46 OFFCURVE",
"550 -1 OFFCURVE",
"668 -31 CURVE",
"659 -10 OFFCURVE",
"654 29 OFFCURVE",
"654 78 CURVE SMOOTH",
"654 180 OFFCURVE",
"676 334 OFFCURVE",
"695 464 CURVE SMOOTH",
"709 560 OFFCURVE",
"721 643 OFFCURVE",
"721 684 CURVE SMOOTH"
);
},
{
closed = 1;
nodes = (
"405 437 OFFCURVE",
"243 437 OFFCURVE",
"209 437 CURVE SMOOTH",
"135 437 OFFCURVE",
"75 424 OFFCURVE",
"75 344 CURVE SMOOTH",
"75 333 OFFCURVE",
"76 322 OFFCURVE",
"77 311 CURVE",
"158 347 OFFCURVE",
"311 347 OFFCURVE",
"381 347 CURVE SMOOTH",
"410 347 OFFCURVE",
"441 346 OFFCURVE",
"477 346 CURVE SMOOTH",
"518 346 OFFCURVE",
"576 354 OFFCURVE",
"576 440 CURVE"
);
}
);
};
layerId = UUID1;
paths = (
{
closed = 1;
nodes = (
"405 437 OFFCURVE",
"243 437 OFFCURVE",
"209 437 CURVE SMOOTH",
"135 437 OFFCURVE",
"75 424 OFFCURVE",
"75 344 CURVE SMOOTH",
"75 333 OFFCURVE",
"76 322 OFFCURVE",
"77 311 CURVE",
"157 342 OFFCURVE",
"243 348 OFFCURVE",
"327 348 CURVE SMOOTH",
"378 348 OFFCURVE",
"428 346 OFFCURVE",
"477 346 CURVE SMOOTH",
"518 346 OFFCURVE",
"576 354 OFFCURVE",
"576 440 CURVE"
);
},
{
closed = 1;
nodes = (
"721 753 OFFCURVE",
"715 796 OFFCURVE",
"576 802 CURVE",
"578 776 OFFCURVE",
"580 748 OFFCURVE",
"580 720 CURVE SMOOTH",
"580 529 OFFCURVE",
"522 233 OFFCURVE",
"522 129 CURVE SMOOTH",
"522 46 OFFCURVE",
"551 -1 OFFCURVE",
"669 -31 CURVE",
"660 -10 OFFCURVE",
"655 29 OFFCURVE",
"655 78 CURVE SMOOTH",
"655 240 OFFCURVE",
"721 576 OFFCURVE",
"721 684 CURVE SMOOTH"
);
},
{
closed = 1;
nodes = (
"302 753 OFFCURVE",
"296 796 OFFCURVE",
"157 802 CURVE",
"159 776 OFFCURVE",
"161 748 OFFCURVE",
"161 720 CURVE SMOOTH",
"161 529 OFFCURVE",
"103 233 OFFCURVE",
"103 129 CURVE SMOOTH",
"103 46 OFFCURVE",
"132 -1 OFFCURVE",
"250 -31 CURVE",
"241 -10 OFFCURVE",
"236 29 OFFCURVE",
"236 78 CURVE SMOOTH",
"236 240 OFFCURVE",
"302 576 OFFCURVE",
"302 684 CURVE SMOOTH"
);
}
);
width = 791;
},
{
anchors = (
{
name = bottom;
position = "{375, 0}";
},
{
name = center;
position = "{427, 599}";
},
{
name = top;
position = "{449, 847}";
},
{
name = topleft;
position = "{20, 847}";
}
);
background = {
paths = (
{
closed = 1;
nodes = (
"422 437 OFFCURVE",
"260 437 OFFCURVE",
"226 437 CURVE SMOOTH",
"152 437 OFFCURVE",
"92 424 OFFCURVE",
"92 344 CURVE SMOOTH",
"92 333 OFFCURVE",
"93 322 OFFCURVE",
"94 311 CURVE",
"174 342 OFFCURVE",
"260 348 OFFCURVE",
"344 348 CURVE SMOOTH",
"395 348 OFFCURVE",
"445 346 OFFCURVE",
"494 346 CURVE SMOOTH",
"535 346 OFFCURVE",
"593 354 OFFCURVE",
"593 440 CURVE"
);
},
{
closed = 1;
nodes = (
"738 753 OFFCURVE",
"732 796 OFFCURVE",
"593 802 CURVE",
"595 776 OFFCURVE",
"597 748 OFFCURVE",
"597 720 CURVE SMOOTH",
"597 529 OFFCURVE",
"539 233 OFFCURVE",
"539 129 CURVE SMOOTH",
"539 46 OFFCURVE",
"568 -1 OFFCURVE",
"686 -31 CURVE",
"677 -10 OFFCURVE",
"672 29 OFFCURVE",
"672 78 CURVE SMOOTH",
"672 240 OFFCURVE",
"738 576 OFFCURVE",
"738 684 CURVE SMOOTH"
);
},
{
closed = 1;
nodes = (
"319 753 OFFCURVE",
"313 796 OFFCURVE",
"174 802 CURVE",
"176 776 OFFCURVE",
"178 748 OFFCURVE",
"178 720 CURVE SMOOTH",
"178 529 OFFCURVE",
"120 233 OFFCURVE",
"120 129 CURVE SMOOTH",
"120 46 OFFCURVE",
"149 -1 OFFCURVE",
"267 -31 CURVE",
"258 -10 OFFCURVE",
"253 29 OFFCURVE",
"253 78 CURVE SMOOTH",
"253 240 OFFCURVE",
"319 576 OFFCURVE",
"319 684 CURVE SMOOTH"
);
}
);
};
layerId = "BF8042A9-B348-454C-A59B-E2F834F64B4C";
paths = (
{
closed = 1;
nodes = (
"379 445 OFFCURVE",
"216 445 OFFCURVE",
"182 445 CURVE SMOOTH",
"113 445 OFFCURVE",
"57 415 OFFCURVE",
"57 314 CURVE SMOOTH",
"57 299 OFFCURVE",
"58 303 OFFCURVE",
"59 289 CURVE",
"137 327 OFFCURVE",
"225 335 OFFCURVE",
"305 335 CURVE SMOOTH",
"356 335 OFFCURVE",
"403 333 OFFCURVE",
"454 333 CURVE SMOOTH",
"492 333 OFFCURVE",
"566 328 OFFCURVE",
"552 448 CURVE"
);
},
{
closed = 1;
nodes = (
"747 753 OFFCURVE",
"741 796 OFFCURVE",
"552 802 CURVE",
"554 774 OFFCURVE",
"556 745 OFFCURVE",
"556 720 CURVE SMOOTH",
"556 529 OFFCURVE",
"501 233 OFFCURVE",
"501 129 CURVE SMOOTH",
"501 49 OFFCURVE",
"526 -1 OFFCURVE",
"698 -31 CURVE",
"690 -10 OFFCURVE",
"685 28 OFFCURVE",
"685 78 CURVE SMOOTH",
"685 240 OFFCURVE",
"747 576 OFFCURVE",
"747 684 CURVE SMOOTH"
);
},
{
closed = 1;
nodes = (
"325 754 OFFCURVE",
"318 796 OFFCURVE",
"130 802 CURVE",
"132 776 OFFCURVE",
"134 748 OFFCURVE",
"134 720 CURVE SMOOTH",
"134 529 OFFCURVE",
"80 233 OFFCURVE",
"80 129 CURVE SMOOTH",
"80 46 OFFCURVE",
"107 -1 OFFCURVE",
"277 -31 CURVE",
"268 -10 OFFCURVE",
"263 31 OFFCURVE",
"263 78 CURVE SMOOTH",
"263 240 OFFCURVE",
"325 576 OFFCURVE",
"325 684 CURVE SMOOTH"
);
}
);
width = 818;
}
);
unicode = 0048;
},
{
glyphname = I;
lastChange = "2017-12-06 11:13:34 +0000";
layers = (
{
anchors = (
{
name = bottom;
position = "{138, 0}";
},
{
name = ogonek;
position = "{205, -31}";
},
{
name = top;
position = "{212, 847}";
},
{
name = topleft;
position = "{20, 847}";
}
);
background = {
paths = (
{
closed = 1;
nodes = (
"274 753 OFFCURVE",
"268 796 OFFCURVE",
"129 802 CURVE",
"131 776 OFFCURVE",
"133 748 OFFCURVE",
"133 720 CURVE SMOOTH",
"133 585 OFFCURVE",
"113 440 OFFCURVE",
"96 322 CURVE SMOOTH",
"85 241 OFFCURVE",
"75 173 OFFCURVE",
"75 129 CURVE SMOOTH",
"75 46 OFFCURVE",
"104 -1 OFFCURVE",
"222 -31 CURVE",
"213 -10 OFFCURVE",
"208 29 OFFCURVE",
"208 78 CURVE SMOOTH",
"208 180 OFFCURVE",
"230 334 OFFCURVE",
"249 464 CURVE SMOOTH",
"263 560 OFFCURVE",
"274 643 OFFCURVE",
"274 684 CURVE SMOOTH"
);
}
);
};
hints = (
{
place = "{92, 99}";
},
{
place = "{150, 107}";
},
{
horizontal = 1;
place = "{802, -20}";
target = down;
type = TopGhost;
},
{
horizontal = 1;
place = "{-31, 21}";
target = up;
type = BottomGhost;
}
);
layerId = UUID0;
paths = (
{
closed = 1;
nodes = (
"257 753 OFFCURVE",
"251 796 OFFCURVE",
"146 802 CURVE",
"148 776 OFFCURVE",
"150 748 OFFCURVE",
"150 720 CURVE SMOOTH",
"150 529 OFFCURVE",
"92 233 OFFCURVE",
"92 129 CURVE SMOOTH",
"92 46 OFFCURVE",
"121 -1 OFFCURVE",
"205 -31 CURVE",
"196 -10 OFFCURVE",
"191 29 OFFCURVE",
"191 78 CURVE SMOOTH",
"191 240 OFFCURVE",
"257 576 OFFCURVE",
"257 684 CURVE SMOOTH"
);
}
);
width = 344;
},
{
anchors = (
{
name = bottom;
position = "{138, 0}";
},
{
name = ogonek;
position = "{222, -31}";
},
{
name = top;
position = "{212, 847}";
},
{
name = topleft;
position = "{20, 847}";
}
);
background = {
paths = (
{
closed = 1;
nodes = (
"274 753 OFFCURVE",
"268 796 OFFCURVE",
"129 802 CURVE",
"131 776 OFFCURVE",
"133 748 OFFCURVE",
"133 720 CURVE SMOOTH",
"133 585 OFFCURVE",
"113 440 OFFCURVE",
"96 322 CURVE SMOOTH",
"85 241 OFFCURVE",
"75 173 OFFCURVE",
"75 129 CURVE SMOOTH",
"75 46 OFFCURVE",
"104 -1 OFFCURVE",
"222 -31 CURVE",
"213 -10 OFFCURVE",
"208 29 OFFCURVE",
"208 78 CURVE SMOOTH",
"208 180 OFFCURVE",
"230 334 OFFCURVE",
"249 464 CURVE SMOOTH",
"263 560 OFFCURVE",
"274 643 OFFCURVE",
"274 684 CURVE SMOOTH"
);
}
);
};
layerId = UUID1;
paths = (
{
closed = 1;
nodes = (
"274 753 OFFCURVE",
"268 796 OFFCURVE",
"129 802 CURVE",
"131 776 OFFCURVE",
"133 748 OFFCURVE",
"133 720 CURVE SMOOTH",
"133 529 OFFCURVE",
"75 233 OFFCURVE",
"75 129 CURVE SMOOTH",
"75 46 OFFCURVE",
"104 -1 OFFCURVE",
"222 -31 CURVE",
"213 -10 OFFCURVE",
"208 29 OFFCURVE",
"208 78 CURVE SMOOTH",
"208 240 OFFCURVE",
"274 576 OFFCURVE",
"274 684 CURVE SMOOTH"
);
}
);
width = 344;
},
{
anchors = (
{
name = bottom;
position = "{161, 0}";
},
{
name = ogonek;
position = "{269, -31}";
},
{
name = top;
position = "{235, 847}";
},
{
name = topleft;
position = "{20, 847}";
}
);
background = {
paths = (
{
closed = 1;
nodes = (
"298 753 OFFCURVE",
"292 796 OFFCURVE",
"153 802 CURVE",
"155 776 OFFCURVE",
"157 748 OFFCURVE",
"157 720 CURVE SMOOTH",
"157 585 OFFCURVE",
"137 440 OFFCURVE",
"120 322 CURVE SMOOTH",
"109 241 OFFCURVE",
"99 173 OFFCURVE",
"99 129 CURVE SMOOTH",
"99 46 OFFCURVE",
"128 -1 OFFCURVE",
"246 -31 CURVE",
"237 -10 OFFCURVE",
"232 29 OFFCURVE",
"232 78 CURVE SMOOTH",
"232 180 OFFCURVE",
"254 334 OFFCURVE",
"273 464 CURVE SMOOTH",
"287 560 OFFCURVE",
"298 643 OFFCURVE",
"298 684 CURVE SMOOTH"
);
}
);
};
layerId = "BF8042A9-B348-454C-A59B-E2F834F64B4C";
paths = (
{
closed = 1;
nodes = (
"318 753 OFFCURVE",
"312 796 OFFCURVE",
"123 802 CURVE",
"125 774 OFFCURVE",
"127 745 OFFCURVE",
"127 720 CURVE SMOOTH",
"127 529 OFFCURVE",
"72 233 OFFCURVE",
"72 129 CURVE SMOOTH",
"72 49 OFFCURVE",
"97 -1 OFFCURVE",
"269 -31 CURVE",
"261 -10 OFFCURVE",
"256 28 OFFCURVE",
"256 78 CURVE SMOOTH",
"256 240 OFFCURVE",
"318 576 OFFCURVE",
"318 684 CURVE SMOOTH"
);
}
);
width = 389;
}
);
leftKerningGroup = periodcentered;
rightKerningGroup = periodcentered;
unicode = 0049;
},
{
glyphname = J;
lastChange = "2017-12-11 19:03:38 +0000";
layers = (
{
anchors = (
{
name = bottom;
position = "{289, 0}";
},
{
name = top;
position = "{363, 847}";
}
);
background = {
paths = (
{
closed = 1;
nodes = (
"243 -36 OFFCURVE",
"339 27 OFFCURVE",
"365 323 CURVE SMOOTH",
"402 738 LINE",
"291 733 LINE",
"256 328 OFFCURVE",
"304 21 OFFCURVE",
"134 21 CURVE SMOOTH",
"82 21 OFFCURVE",
"59 61 OFFCURVE",
"59 109 CURVE SMOOTH",
"59 153 OFFCURVE",
"78 204 OFFCURVE",
"114 235 CURVE",
"97 247 OFFCURVE",
"81 251 OFFCURVE",
"65 251 CURVE SMOOTH",
"-8 251 OFFCURVE",
"-43 190 OFFCURVE",
"-43 132 CURVE SMOOTH",
"-43 49 OFFCURVE",
"10 -36 OFFCURVE",
"135 -36 CURVE SMOOTH"
);
},
{
closed = 1;
nodes = (
"278 670 OFFCURVE",
"378 677 OFFCURVE",
"431 686 CURVE SMOOTH",
"465 691 OFFCURVE",
"526 721 OFFCURVE",
"534 792 CURVE",
"465 771 OFFCURVE",
"394 760 OFFCURVE",
"323 760 CURVE SMOOTH",
"277 760 OFFCURVE",
"231 764 OFFCURVE",
"179 776 CURVE",
"176 764 OFFCURVE",
"173 747 OFFCURVE",
"173 728 CURVE SMOOTH",
"173 699 OFFCURVE",
"185 670 OFFCURVE",
"230 670 CURVE SMOOTH"
);
}
);
};
guideLines = (
{
angle = 268.7441;
position = "{286, 733}";
},
{
angle = 264.9052;
position = "{402, 738}";
}
);
hints = (
{
horizontal = 1;
origin = "{0, 22}";
target = "{0, 7}";
},
{
horizontal = 1;
origin = "{1, 17}";
target = "{1, 8}";
},
{
origin = "{0, 19}";
target = "{0, 10}";
}
);
layerId = UUID0;
paths = (
{
closed = 1;
nodes = (
"260 -36 OFFCURVE",
"343 89 OFFCURVE",
"365 323 CURVE SMOOTH",
"402 738 LINE",
"286 733 LINE",
"286 166 OFFCURVE",
"241 21 OFFCURVE",
"130 21 CURVE SMOOTH",
"82 21 OFFCURVE",
"59 49 OFFCURVE",
"59 106 CURVE SMOOTH",
"59 157 OFFCURVE",
"80 206 OFFCURVE",
"114 235 CURVE",
"98 246 OFFCURVE",
"83 251 OFFCURVE",
"63 251 CURVE SMOOTH",
"1 251 OFFCURVE",
"-43 201 OFFCURVE",
"-43 129 CURVE SMOOTH",
"-43 33 OFFCURVE",
"27 -36 OFFCURVE",
"124 -36 CURVE SMOOTH"
);
},
{
closed = 1;
nodes = (
"282 670 OFFCURVE",
"383 678 OFFCURVE",
"431 686 CURVE SMOOTH",
"465 691 OFFCURVE",
"526 721 OFFCURVE",
"534 792 CURVE",
"465 771 OFFCURVE",
"394 760 OFFCURVE",
"323 760 CURVE SMOOTH",
"277 760 OFFCURVE",
"231 764 OFFCURVE",
"179 776 CURVE",
"176 764 OFFCURVE",
"173 747 OFFCURVE",
"173 728 CURVE SMOOTH",
"173 699 OFFCURVE",
"185 670 OFFCURVE",
"230 670 CURVE SMOOTH"
);
}
);
width = 518;
},
{
anchors = (
{
name = bottom;
position = "{288, 0}";
},
{
name = top;
position = "{362, 847}";
}
);
background = {
paths = (
{
closed = 1;
nodes = (
"249 -36 OFFCURVE",
"354 26 OFFCURVE",
"380 323 CURVE SMOOTH",
"417 738 LINE",
"276 733 LINE",
"247 340 OFFCURVE",
"289 36 OFFCURVE",
"141 36 CURVE SMOOTH",
"97 36 OFFCURVE",
"74 76 OFFCURVE",
"74 124 CURVE SMOOTH",
"74 168 OFFCURVE",
"93 219 OFFCURVE",
"129 250 CURVE",
"109 262 OFFCURVE",
"90 266 OFFCURVE",
"71 266 CURVE SMOOTH",
"-16 266 OFFCURVE",
"-58 198 OFFCURVE",
"-58 132 CURVE SMOOTH",
"-58 49 OFFCURVE",
"-1 -36 OFFCURVE",
"133 -36 CURVE SMOOTH"
);
},
{
closed = 1;
nodes = (
"264 643 OFFCURVE",
"379 652 OFFCURVE",
"440 664 CURVE SMOOTH",
"479 671 OFFCURVE",
"549 708 OFFCURVE",
"558 799 CURVE",
"481 775 OFFCURVE",
"401 763 OFFCURVE",
"321 763 CURVE SMOOTH",
"266 763 OFFCURVE",
"210 768 OFFCURVE",
"155 781 CURVE",
"152 768 OFFCURVE",
"149 746 OFFCURVE",
"149 721 CURVE SMOOTH",
"149 682 OFFCURVE",
"161 643 OFFCURVE",
"209 643 CURVE SMOOTH"
);
}
);
};
guideLines = (
{
angle = 264.9052;
position = "{399, 531}";
}
);
layerId = UUID1;
paths = (
{
closed = 1;
nodes = (
"272 -36 OFFCURVE",
"359 89 OFFCURVE",
"380 323 CURVE SMOOTH",
"417 738 LINE",
"276 733 LINE",
"276 140 OFFCURVE",
"242 36 OFFCURVE",
"137 36 CURVE SMOOTH",
"97 36 OFFCURVE",
"74 68 OFFCURVE",
"74 123 CURVE SMOOTH",
"74 172 OFFCURVE",
"95 221 OFFCURVE",
"129 250 CURVE",
"111 261 OFFCURVE",
"92 266 OFFCURVE",
"71 266 CURVE SMOOTH",
"-5 266 OFFCURVE",
"-58 210 OFFCURVE",
"-58 130 CURVE SMOOTH",
"-58 33 OFFCURVE",
"19 -36 OFFCURVE",
"129 -36 CURVE SMOOTH"
);
},
{
closed = 1;
nodes = (
"262 643 OFFCURVE",
"379 652 OFFCURVE",
"440 664 CURVE SMOOTH",
"479 671 OFFCURVE",
"549 708 OFFCURVE",
"558 799 CURVE",
"481 775 OFFCURVE",
"401 763 OFFCURVE",
"321 763 CURVE SMOOTH",
"266 763 OFFCURVE",
"210 768 OFFCURVE",
"155 781 CURVE",
"152 768 OFFCURVE",
"149 746 OFFCURVE",
"149 721 CURVE SMOOTH",
"149 682 OFFCURVE",
"161 643 OFFCURVE",
"209 643 CURVE SMOOTH"
);
}
);
width = 518;
},
{
anchors = (
{
name = bottom;
position = "{328, 0}";
},
{
name = top;
position = "{402, 847}";
}
);
guideLines = (
{
angle = 268.7441;
position = "{263, 108}";
},
{
angle = 264.9052;
position = "{458, 323}";
}
);
layerId = "BF8042A9-B348-454C-A59B-E2F834F64B4C";
paths = (
{
closed = 1;
nodes = (
"348 -36 OFFCURVE",
"448 94 OFFCURVE",
"468 323 CURVE SMOOTH",
"505 738 LINE",
"293 663 LINE",
"293 186 OFFCURVE",
"262 62 OFFCURVE",
"202 62 CURVE SMOOTH",
"172 62 OFFCURVE",
"152 95 OFFCURVE",
"152 145 CURVE SMOOTH",
"152 198 OFFCURVE",
"175 246 OFFCURVE",
"215 276 CURVE",
"194 286 OFFCURVE",
"169 292 OFFCURVE",
"144 292 CURVE SMOOTH",
"55 292 OFFCURVE",
"-9 226 OFFCURVE",
"-9 134 CURVE SMOOTH",
"-9 31 OFFCURVE",
"70 -36 OFFCURVE",
"190 -36 CURVE SMOOTH"
);
},
{
closed = 1;
nodes = (
"354 614 OFFCURVE",
"459 622 OFFCURVE",
"513 636 CURVE SMOOTH",
"589 655 OFFCURVE",
"628 712 OFFCURVE",
"636 809 CURVE",
"553 791 OFFCURVE",
"466 781 OFFCURVE",
"379 781 CURVE SMOOTH",
"304 781 OFFCURVE",
"227 787 OFFCURVE",
"162 798 CURVE",
"158 780 OFFCURVE",
"155 755 OFFCURVE",
"155 729 CURVE SMOOTH",
"155 643 OFFCURVE",
"172 614 OFFCURVE",
"222 614 CURVE SMOOTH"
);
}
);
width = 603;
}
);
leftKerningGroup = J;
unicode = 004A;
},
{
glyphname = K;
lastChange = "2017-12-05 20:42:37 +0000";
layers = (
{
anchors = (
{
name = bottom;
position = "{332, 0}";
},
{
name = top;
position = "{406, 847}";
}
);
background = {
paths = (
{
closed = 1;
nodes = (
"411 450 OFFCURVE",
"622 574 OFFCURVE",
"622 695 CURVE SMOOTH",
"622 736 OFFCURVE",
"612 773 OFFCURVE",
"599 799 CURVE",
"548 679 OFFCURVE",
"403 519 OFFCURVE",
"166 332 CURVE",
"176 282 LINE"
);
},
{
closed = 1;
nodes = (
"196 -10 OFFCURVE",
"191 29 OFFCURVE",
"191 78 CURVE SMOOTH",
"191 240 OFFCURVE",
"257 576 OFFCURVE",
"257 684 CURVE SMOOTH",
"257 753 OFFCURVE",
"251 796 OFFCURVE",
"146 802 CURVE",
"148 776 OFFCURVE",
"150 748 OFFCURVE",
"150 720 CURVE SMOOTH",
"150 529 OFFCURVE",
"92 233 OFFCURVE",
"92 129 CURVE SMOOTH",
"92 46 OFFCURVE",
"121 -1 OFFCURVE",
"205 -31 CURVE"
);
},
{
closed = 1;
nodes = (
"613 -33 OFFCURVE",
"631 -28 OFFCURVE",
"641 -23 CURVE",
"539 85 OFFCURVE",
"469 181 OFFCURVE",
"389 433 CURVE",
"285 393 LINE",
"355 195 OFFCURVE",
"446 -33 OFFCURVE",
"597 -33 CURVE SMOOTH"
);
}
);
};
hints = (
{
place = "{92, 99}";
},
{
place = "{150, 107}";
},
{
horizontal = 1;
place = "{-33, 21}";
target = up;
type = BottomGhost;
},
{
horizontal = 1;
place = "{802, -20}";
target = down;
type = TopGhost;
}
);
layerId = UUID0;
paths = (
{
closed = 1;
nodes = (
"543 533 OFFCURVE",
"622 607 OFFCURVE",
"622 695 CURVE SMOOTH",
"622 733 OFFCURVE",
"614 771 OFFCURVE",
"599 799 CURVE",
"547 676 OFFCURVE",
"397 514 OFFCURVE",
"166 332 CURVE",
"176 282 LINE"
);
},
{
closed = 1;
nodes = (
"196 -10 OFFCURVE",
"191 29 OFFCURVE",
"191 78 CURVE SMOOTH",
"191 240 OFFCURVE",
"257 576 OFFCURVE",
"257 684 CURVE SMOOTH",
"257 753 OFFCURVE",
"251 796 OFFCURVE",
"146 802 CURVE",
"148 776 OFFCURVE",
"150 748 OFFCURVE",
"150 720 CURVE SMOOTH",
"150 529 OFFCURVE",
"92 233 OFFCURVE",
"92 129 CURVE SMOOTH",
"92 46 OFFCURVE",
"121 -1 OFFCURVE",
"205 -31 CURVE"
);
},
{
closed = 1;
nodes = (
"613 -33 OFFCURVE",
"631 -28 OFFCURVE",
"641 -23 CURVE",
"534 92 OFFCURVE",
"461 193 OFFCURVE",
"377 461 CURVE",
"285 393 LINE",
"355 195 OFFCURVE",
"446 -33 OFFCURVE",
"597 -33 CURVE SMOOTH"
);
}
);
width = 671;
},
{
anchors = (
{
name = bottom;
position = "{332, 0}";
},
{
name = top;
position = "{406, 847}";
}
);
background = {
paths = (
{
closed = 1;
nodes = (
"411 440 OFFCURVE",
"632 567 OFFCURVE",
"632 682 CURVE SMOOTH",
"632 714 OFFCURVE",
"624 755 OFFCURVE",
"599 799 CURVE",
"548 702 OFFCURVE",
"403 528 OFFCURVE",
"166 347 CURVE",
"176 267 LINE"
);
}
);
};
layerId = UUID1;
paths = (
{
closed = 1;
nodes = (
"569 543 OFFCURVE",
"632 601 OFFCURVE",
"632 682 CURVE SMOOTH",
"632 719 OFFCURVE",
"620 760 OFFCURVE",
"599 799 CURVE",
"535 676 OFFCURVE",
"362 496 OFFCURVE",
"166 347 CURVE",
"176 267 LINE"
);
},
{
closed = 1;
nodes = (
"213 -10 OFFCURVE",
"208 29 OFFCURVE",
"208 78 CURVE SMOOTH",
"208 240 OFFCURVE",
"274 576 OFFCURVE",
"274 684 CURVE SMOOTH",
"274 753 OFFCURVE",
"268 796 OFFCURVE",
"129 802 CURVE",
"131 776 OFFCURVE",
"133 748 OFFCURVE",
"133 720 CURVE SMOOTH",
"133 529 OFFCURVE",
"75 233 OFFCURVE",
"75 129 CURVE SMOOTH",
"75 46 OFFCURVE",
"104 -1 OFFCURVE",
"222 -31 CURVE"
);
},
{
closed = 1;
nodes = (
"607 -33 OFFCURVE",
"630 -30 OFFCURVE",
"656 -23 CURVE",
"554 85 OFFCURVE",
"484 181 OFFCURVE",
"404 433 CURVE",
"270 393 LINE",
"344 195 OFFCURVE",
"429 -33 OFFCURVE",
"587 -33 CURVE SMOOTH"
);
}
);
width = 671;
},
{
anchors = (
{
name = bottom;
position = "{364, 0}";
},
{
name = top;
position = "{438, 847}";
}
);
background = {
paths = (
{
closed = 1;
nodes = (
"434 423 OFFCURVE",
"668 554 OFFCURVE",
"668 660 CURVE SMOOTH",
"668 677 OFFCURVE",
"663 726 OFFCURVE",
"620 796 CURVE",
"567 729 OFFCURVE",
"425 538 OFFCURVE",
"187 365 CURVE",
"197 242 LINE"
);
},
{
closed = 1;
nodes = (
"261 -10 OFFCURVE",
"256 28 OFFCURVE",
"256 78 CURVE SMOOTH",
"256 240 OFFCURVE",
"318 576 OFFCURVE",
"318 684 CURVE SMOOTH",
"318 753 OFFCURVE",
"312 796 OFFCURVE",
"123 802 CURVE",
"125 774 OFFCURVE",
"127 745 OFFCURVE",
"127 720 CURVE SMOOTH",
"127 529 OFFCURVE",
"72 233 OFFCURVE",
"72 129 CURVE SMOOTH",
"72 49 OFFCURVE",
"97 -1 OFFCURVE",
"269 -31 CURVE"
);
},
{
closed = 1;
nodes = (
"618 -33 OFFCURVE",
"651 -30 OFFCURVE",
"690 -23 CURVE",
"603 66 OFFCURVE",
"488 276 OFFCURVE",
"427 482 CURVE",
"280 372 LINE",
"346 188 OFFCURVE",
"414 -33 OFFCURVE",
"594 -33 CURVE SMOOTH"
);
}
);
};
layerId = "BF8042A9-B348-454C-A59B-E2F834F64B4C";
paths = (
{
closed = 1;
nodes = (
"578 503 OFFCURVE",
"668 583 OFFCURVE",
"668 678 CURVE SMOOTH",
"668 723 OFFCURVE",
"648 772 OFFCURVE",
"620 796 CURVE",
"530 657 OFFCURVE",
"369 496 OFFCURVE",
"187 365 CURVE",
"197 255 LINE"
);
},
{
closed = 1;
nodes = (
"261 -10 OFFCURVE",
"256 28 OFFCURVE",
"256 78 CURVE SMOOTH",
"256 240 OFFCURVE",
"318 576 OFFCURVE",
"318 684 CURVE SMOOTH",
"318 753 OFFCURVE",
"312 796 OFFCURVE",
"123 802 CURVE",
"125 774 OFFCURVE",
"127 745 OFFCURVE",
"127 720 CURVE SMOOTH",
"127 529 OFFCURVE",
"72 233 OFFCURVE",
"72 129 CURVE SMOOTH",
"72 49 OFFCURVE",
"97 -1 OFFCURVE",
"269 -31 CURVE"
);
},
{
closed = 1;
nodes = (
"618 -33 OFFCURVE",
"651 -30 OFFCURVE",
"690 -23 CURVE",
"603 66 OFFCURVE",
"488 276 OFFCURVE",
"427 482 CURVE",
"280 372 LINE",
"346 188 OFFCURVE",
"414 -33 OFFCURVE",
"594 -33 CURVE SMOOTH"
);
}
);
width = 695;
}
);
rightKerningGroup = K;
unicode = 004B;
},
{
glyphname = L;
lastChange = "2017-12-05 20:42:37 +0000";
layers = (
{
anchors = (
{
name = bottom;
position = "{294, 0}";
},
{
name = center;
position = "{214, 424}";
},
{
name = top;
position = "{244, 847}";
},
{
name = topright;
position = "{349, 599}";
}
);
background = {
paths = (
{
closed = 1;
nodes = (
"218 44 LINE",
"217 55 OFFCURVE",
"217 66 OFFCURVE",
"217 78 CURVE SMOOTH",
"217 180 OFFCURVE",
"239 334 OFFCURVE",
"258 464 CURVE SMOOTH",
"272 560 OFFCURVE",
"283 643 OFFCURVE",
"283 684 CURVE SMOOTH",
"283 753 OFFCURVE",
"277 796 OFFCURVE",
"138 802 CURVE",
"140 776 OFFCURVE",
"142 748 OFFCURVE",
"142 720 CURVE SMOOTH",
"142 585 OFFCURVE",
"122 440 OFFCURVE",
"105 322 CURVE SMOOTH",
"94 241 OFFCURVE",
"84 173 OFFCURVE",
"84 129 CURVE SMOOTH",
"84 92 OFFCURVE",
"90 61 OFFCURVE",
"107 37 CURVE"
);
},
{
closed = 1;
nodes = (
"203 26 OFFCURVE",
"364 -12 OFFCURVE",
"433 -12 CURVE SMOOTH",
"504 -12 OFFCURVE",
"556 44 OFFCURVE",
"568 144 CURVE",
"501 122 OFFCURVE",
"355 106 OFFCURVE",
"209 106 CURVE SMOOTH",
"67 106 OFFCURVE",
"36 19 OFFCURVE",
"28 -12 CURVE"
);
},
{
closed = 1;
nodes = (
"203 26 OFFCURVE",
"364 -12 OFFCURVE",
"433 -12 CURVE SMOOTH",
"504 -12 OFFCURVE",
"556 44 OFFCURVE",
"568 144 CURVE",
"501 122 OFFCURVE",
"355 106 OFFCURVE",
"209 106 CURVE SMOOTH",
"67 106 OFFCURVE",
"36 19 OFFCURVE",
"28 -12 CURVE"
);
}
);
};
hints = (
{
place = "{101, 99}";
},
{
place = "{159, 107}";
},
{
horizontal = 1;
place = "{-8, 92}";
},
{
horizontal = 1;
place = "{5, 79}";
},
{
horizontal = 1;
place = "{30, 54}";
},
{
horizontal = 1;
place = "{802, -20}";
target = down;
type = TopGhost;
}
);
layerId = UUID0;
paths = (
{
closed = 1;
nodes = (
"201 44 OFFCURVE",
"200 61 OFFCURVE",
"200 78 CURVE SMOOTH",
"200 240 OFFCURVE",
"266 576 OFFCURVE",
"266 684 CURVE SMOOTH",
"266 753 OFFCURVE",
"260 796 OFFCURVE",
"155 802 CURVE",
"157 776 OFFCURVE",
"159 748 OFFCURVE",
"159 720 CURVE SMOOTH",
"159 529 OFFCURVE",
"101 233 OFFCURVE",
"101 129 CURVE SMOOTH",
"101 88 OFFCURVE",
"108 57 OFFCURVE",
"125 31 CURVE",
"202 30 LINE"
);
},
{
closed = 1;
nodes = (
"108 2 OFFCURVE",
"159 5 OFFCURVE",
"206 5 CURVE SMOOTH",
"300 5 OFFCURVE",
"378 -8 OFFCURVE",
"419 -8 CURVE SMOOTH",
"483 -8 OFFCURVE",
"530 36 OFFCURVE",
"540 114 CURVE",
"480 97 OFFCURVE",
"349 84 OFFCURVE",
"218 84 CURVE SMOOTH",
"91 84 OFFCURVE",
"63 16 OFFCURVE",
"56 -8 CURVE"
);
}
);
width = 547;
},
{
anchors = (
{
name = bottom;
position = "{294, 0}";
},
{
name = center;
position = "{214, 424}";
},
{
name = top;
position = "{224, 847}";
},
{
name = topright;
position = "{349, 599}";
}
);
background = {
paths = (
{
closed = 1;
nodes = (
"218 44 LINE",
"217 55 OFFCURVE",
"217 66 OFFCURVE",
"217 78 CURVE SMOOTH",
"217 180 OFFCURVE",
"239 334 OFFCURVE",
"258 464 CURVE SMOOTH",
"272 560 OFFCURVE",
"283 643 OFFCURVE",
"283 684 CURVE SMOOTH",
"283 753 OFFCURVE",
"277 796 OFFCURVE",
"138 802 CURVE",
"140 776 OFFCURVE",
"142 748 OFFCURVE",
"142 720 CURVE SMOOTH",
"142 585 OFFCURVE",
"122 440 OFFCURVE",
"105 322 CURVE SMOOTH",
"94 241 OFFCURVE",
"84 173 OFFCURVE",
"84 129 CURVE SMOOTH",
"84 92 OFFCURVE",
"90 61 OFFCURVE",
"107 37 CURVE"
);
},
{
closed = 1;
nodes = (
"203 26 OFFCURVE",
"364 -12 OFFCURVE",
"433 -12 CURVE SMOOTH",
"504 -12 OFFCURVE",
"556 44 OFFCURVE",
"568 144 CURVE",
"501 122 OFFCURVE",
"355 106 OFFCURVE",
"209 106 CURVE SMOOTH",
"67 106 OFFCURVE",
"36 19 OFFCURVE",
"28 -12 CURVE"
);
},
{
closed = 1;
nodes = (
"203 26 OFFCURVE",
"364 -12 OFFCURVE",
"433 -12 CURVE SMOOTH",
"504 -12 OFFCURVE",
"556 44 OFFCURVE",
"568 144 CURVE",
"501 122 OFFCURVE",
"355 106 OFFCURVE",
"209 106 CURVE SMOOTH",
"67 106 OFFCURVE",
"36 19 OFFCURVE",
"28 -12 CURVE"
);
}
);
};
layerId = UUID1;
paths = (
{
closed = 1;
nodes = (
"218 44 OFFCURVE",
"217 61 OFFCURVE",
"217 78 CURVE SMOOTH",
"217 240 OFFCURVE",
"283 576 OFFCURVE",
"283 684 CURVE SMOOTH",
"283 753 OFFCURVE",
"277 796 OFFCURVE",
"138 802 CURVE",
"140 776 OFFCURVE",
"142 748 OFFCURVE",
"142 720 CURVE SMOOTH",
"142 529 OFFCURVE",
"84 233 OFFCURVE",
"84 129 CURVE SMOOTH",
"84 88 OFFCURVE",
"91 57 OFFCURVE",
"112 31 CURVE",
"219 30 LINE"
);
},
{
closed = 1;
nodes = (
"86 1 OFFCURVE",
"143 5 OFFCURVE",
"195 5 CURVE SMOOTH",
"300 5 OFFCURVE",
"387 -12 OFFCURVE",
"433 -12 CURVE SMOOTH",
"504 -12 OFFCURVE",
"556 44 OFFCURVE",
"568 144 CURVE",
"501 122 OFFCURVE",
"355 106 OFFCURVE",
"209 106 CURVE SMOOTH",
"67 106 OFFCURVE",
"36 19 OFFCURVE",
"28 -12 CURVE"
);
}
);
width = 547;
},
{
anchors = (
{
name = bottom;
position = "{317, 0}";
},
{
name = center;
position = "{247, 424}";
},
{
name = top;
position = "{247, 847}";
},
{
name = topright;
position = "{386, 599}";
}
);
background = {
paths = (
{
closed = 1;
nodes = (
"236 44 OFFCURVE",
"235 61 OFFCURVE",
"235 78 CURVE SMOOTH",
"235 240 OFFCURVE",
"301 576 OFFCURVE",
"301 684 CURVE SMOOTH",
"301 753 OFFCURVE",
"295 796 OFFCURVE",
"156 802 CURVE",
"158 776 OFFCURVE",
"160 748 OFFCURVE",
"160 720 CURVE SMOOTH",
"160 529 OFFCURVE",
"102 233 OFFCURVE",
"102 129 CURVE SMOOTH",
"102 88 OFFCURVE",
"109 57 OFFCURVE",
"130 31 CURVE",
"237 30 LINE"
);
},
{
closed = 1;
nodes = (
"104 1 OFFCURVE",
"161 5 OFFCURVE",
"213 5 CURVE SMOOTH",
"318 5 OFFCURVE",
"405 -12 OFFCURVE",
"451 -12 CURVE SMOOTH",
"522 -12 OFFCURVE",
"574 44 OFFCURVE",
"586 144 CURVE",
"519 122 OFFCURVE",
"373 106 OFFCURVE",
"227 106 CURVE SMOOTH",
"85 106 OFFCURVE",
"54 19 OFFCURVE",
"46 -12 CURVE"
);
}
);
};
layerId = "BF8042A9-B348-454C-A59B-E2F834F64B4C";
paths = (
{
closed = 1;
nodes = (
"271 42 OFFCURVE",
"270 59 OFFCURVE",
"270 78 CURVE SMOOTH",
"270 240 OFFCURVE",
"330 576 OFFCURVE",
"330 684 CURVE SMOOTH",
"330 752 OFFCURVE",
"325 796 OFFCURVE",
"137 802 CURVE",
"139 778 OFFCURVE",
"141 749 OFFCURVE",
"141 720 CURVE SMOOTH",
"141 529 OFFCURVE",
"88 233 OFFCURVE",
"88 129 CURVE SMOOTH",
"88 89 OFFCURVE",
"94 57 OFFCURVE",
"121 31 CURVE",
"272 30 LINE"
);
},
{
closed = 1;
nodes = (
"81 -1 OFFCURVE",
"141 5 OFFCURVE",
"200 5 CURVE SMOOTH",
"316 5 OFFCURVE",
"412 -19 OFFCURVE",
"463 -19 CURVE SMOOTH",
"540 -19 OFFCURVE",
"597 58 OFFCURVE",
"611 194 CURVE",
"537 164 OFFCURVE",
"376 143 OFFCURVE",
"217 143 CURVE SMOOTH",
"60 143 OFFCURVE",
"26 24 OFFCURVE",
"17 -19 CURVE"
);
}
);
width = 594;
}
);
rightKerningGroup = L;
unicode = 004C;
},
{
glyphname = M;
lastChange = "2017-12-05 20:42:37 +0000";
layers = (
{
background = {
paths = (
{
closed = 1;
nodes = (
"842 753 OFFCURVE",
"816 795 OFFCURVE",
"738 802 CURVE",
"740 776 OFFCURVE",
"742 748 OFFCURVE",
"742 720 CURVE SMOOTH",
"742 689 OFFCURVE",
"730 658 OFFCURVE",
"728 626 CURVE SMOOTH",
"722 520 OFFCURVE",
"707 413 OFFCURVE",
"694 322 CURVE SMOOTH",
"683 241 OFFCURVE",
"673 173 OFFCURVE",
"673 129 CURVE SMOOTH",
"673 46 OFFCURVE",
"700 -1 OFFCURVE",
"790 -31 CURVE",
"781 -10 OFFCURVE",
"776 29 OFFCURVE",
"776 78 CURVE SMOOTH",
"776 240 OFFCURVE",
"842 576 OFFCURVE",
"842 684 CURVE SMOOTH"
);
},
{
closed = 1;
nodes = (
"75 24 OFFCURVE",
"102 -5 OFFCURVE",
"179 -5 CURVE",
"177 21 OFFCURVE",
"175 50 OFFCURVE",
"175 78 CURVE SMOOTH",
"175 303 OFFCURVE",
"228 495 OFFCURVE",
"228 657 CURVE SMOOTH",
"228 721 OFFCURVE",
"215 769 OFFCURVE",
"138 796 CURVE",
"147 776 OFFCURVE",
"152 745 OFFCURVE",
"152 695 CURVE SMOOTH",
"152 521 OFFCURVE",
"75 108 OFFCURVE",
"75 58 CURVE SMOOTH"
);
},
{
closed = 1;
nodes = (
"262 754 OFFCURVE",
"244 803 OFFCURVE",
"150 803 CURVE SMOOTH",
"133 803 OFFCURVE",
"106 793 OFFCURVE",
"91 777 CURVE",
"194 683 OFFCURVE",
"294 400 OFFCURVE",
"375 191 CURVE",
"377 183 OFFCURVE",
"395 174 OFFCURVE",
"417 174 CURVE SMOOTH",
"432 174 OFFCURVE",
"461 178 OFFCURVE",
"478 188 CURVE",
"565 329 OFFCURVE",
"670 465 OFFCURVE",
"739 610 CURVE SMOOTH",
"778 693 OFFCURVE",
"789 740 OFFCURVE",
"738 802 CURVE",
"708 627 OFFCURVE",
"537 397 OFFCURVE",
"448 264 CURVE"
);
}
);
};
hints = (
{
place = "{75, 100}";
},
{
place = "{152, 23}";
},
{
place = "{673, 103}";
},
{
place = "{728, 114}";
},
{
place = "{742, 100}";
},
{
place = "{152, 76}";
},
{
horizontal = 1;
place = "{-31, 21}";
target = up;
type = BottomGhost;
},
{
horizontal = 1;
place = "{-5, 21}";
target = up;
type = BottomGhost;
},
{
horizontal = 1;
place = "{803, -20}";
target = down;
type = TopGhost;
}
);
layerId = UUID0;
paths = (
{
closed = 1;
nodes = (
"432 174 OFFCURVE",
"461 178 OFFCURVE",
"478 188 CURVE",
"565 329 OFFCURVE",
"670 465 OFFCURVE",
"739 610 CURVE SMOOTH",
"778 693 OFFCURVE",
"789 740 OFFCURVE",
"738 802 CURVE",
"708 627 OFFCURVE",
"537 397 OFFCURVE",
"448 264 CURVE",
"262 754 OFFCURVE",
"244 803 OFFCURVE",
"150 803 CURVE SMOOTH",
"133 803 OFFCURVE",
"106 793 OFFCURVE",
"91 777 CURVE",
"194 683 OFFCURVE",
"294 400 OFFCURVE",
"375 191 CURVE",
"377 183 OFFCURVE",
"395 174 OFFCURVE",
"417 174 CURVE SMOOTH"
);
},
{
closed = 1;
nodes = (
"177 21 OFFCURVE",
"175 50 OFFCURVE",
"175 78 CURVE SMOOTH",
"175 303 OFFCURVE",
"228 495 OFFCURVE",
"228 657 CURVE SMOOTH",
"228 721 OFFCURVE",
"215 769 OFFCURVE",
"138 796 CURVE",
"147 776 OFFCURVE",
"152 745 OFFCURVE",
"152 695 CURVE SMOOTH",
"152 521 OFFCURVE",
"75 108 OFFCURVE",
"75 58 CURVE SMOOTH",
"75 24 OFFCURVE",
"102 -5 OFFCURVE",
"179 -5 CURVE"
);
},
{
closed = 1;
nodes = (
"781 -10 OFFCURVE",
"776 29 OFFCURVE",
"776 78 CURVE SMOOTH",
"776 240 OFFCURVE",
"842 576 OFFCURVE",
"842 684 CURVE SMOOTH",
"842 753 OFFCURVE",
"816 795 OFFCURVE",
"738 802 CURVE",
"738 539 OFFCURVE",
"673 240 OFFCURVE",
"673 129 CURVE SMOOTH",
"673 46 OFFCURVE",
"700 -1 OFFCURVE",
"790 -31 CURVE"
);
}
);
width = 927;
},
{
background = {
paths = (
{
closed = 1;
nodes = (
"857 753 OFFCURVE",
"834 796 OFFCURVE",
"723 802 CURVE",
"725 776 OFFCURVE",
"727 748 OFFCURVE",
"727 720 CURVE SMOOTH",
"727 689 OFFCURVE",
"715 658 OFFCURVE",
"713 626 CURVE SMOOTH",
"707 520 OFFCURVE",
"692 413 OFFCURVE",
"679 322 CURVE SMOOTH",
"668 241 OFFCURVE",
"658 173 OFFCURVE",
"658 129 CURVE SMOOTH",
"658 46 OFFCURVE",
"687 -1 OFFCURVE",
"805 -31 CURVE",
"796 -10 OFFCURVE",
"791 29 OFFCURVE",
"791 78 CURVE SMOOTH",
"791 240 OFFCURVE",
"857 576 OFFCURVE",
"857 684 CURVE SMOOTH"
);
}
);
};
layerId = UUID1;
paths = (
{
closed = 1;
nodes = (
"436 174 OFFCURVE",
"460 178 OFFCURVE",
"483 188 CURVE",
"569 328 OFFCURVE",
"658 461 OFFCURVE",
"733 600 CURVE SMOOTH",
"780 688 OFFCURVE",
"801 738 OFFCURVE",
"723 802 CURVE",
"692 641 OFFCURVE",
"547 422 OFFCURVE",
"454 286 CURVE",
"274 756 OFFCURVE",
"256 803 OFFCURVE",
"165 803 CURVE SMOOTH",
"140 803 OFFCURVE",
"99 793 OFFCURVE",
"76 777 CURVE",
"179 683 OFFCURVE",
"279 400 OFFCURVE",
"360 191 CURVE",
"363 183 OFFCURVE",
"386 174 OFFCURVE",
"416 174 CURVE SMOOTH"
);
},
{
closed = 1;
nodes = (
"187 21 OFFCURVE",
"185 50 OFFCURVE",
"185 78 CURVE SMOOTH",
"185 303 OFFCURVE",
"228 495 OFFCURVE",
"228 657 CURVE SMOOTH",
"228 715 OFFCURVE",
"216 759 OFFCURVE",
"123 783 CURVE",
"132 766 OFFCURVE",
"137 739 OFFCURVE",
"137 695 CURVE SMOOTH",
"137 521 OFFCURVE",
"70 108 OFFCURVE",
"70 58 CURVE SMOOTH",
"70 24 OFFCURVE",
"87 -5 OFFCURVE",
"189 -5 CURVE"
);
},
{
closed = 1;
nodes = (
"796 -10 OFFCURVE",
"791 29 OFFCURVE",
"791 78 CURVE SMOOTH",
"791 240 OFFCURVE",
"857 576 OFFCURVE",
"857 684 CURVE SMOOTH",
"857 753 OFFCURVE",
"834 796 OFFCURVE",
"723 802 CURVE",
"723 536 OFFCURVE",
"658 243 OFFCURVE",
"658 129 CURVE SMOOTH",
"658 46 OFFCURVE",
"687 -1 OFFCURVE",
"805 -31 CURVE"
);
}
);
width = 927;
},
{
background = {
paths = (
{
closed = 1;
nodes = (
"880 752 OFFCURVE",
"862 798 OFFCURVE",
"702 802 CURVE",
"704 776 OFFCURVE",
"706 749 OFFCURVE",
"706 720 CURVE SMOOTH",
"706 689 OFFCURVE",
"694 663 OFFCURVE",
"692 626 CURVE SMOOTH",
"685 499 OFFCURVE",
"674 433 OFFCURVE",
"659 321 CURVE SMOOTH",
"647 234 OFFCURVE",
"639 164 OFFCURVE",
"639 129 CURVE SMOOTH",
"639 47 OFFCURVE",
"670 -1 OFFCURVE",
"829 -31 CURVE",
"820 -9 OFFCURVE",
"816 32 OFFCURVE",
"816 78 CURVE SMOOTH",
"816 240 OFFCURVE",
"880 576 OFFCURVE",
"880 684 CURVE SMOOTH"
);
},
{
closed = 1;
nodes = (
"82 24 OFFCURVE",
"83 -5 OFFCURVE",
"221 -5 CURVE",
"219 30 OFFCURVE",
"218 54 OFFCURVE",
"218 78 CURVE SMOOTH",
"218 303 OFFCURVE",
"259 495 OFFCURVE",
"259 657 CURVE SMOOTH",
"259 709 OFFCURVE",
"243 744 OFFCURVE",
"118 763 CURVE",
"127 750 OFFCURVE",
"131 728 OFFCURVE",
"131 695 CURVE SMOOTH",
"131 521 OFFCURVE",
"82 108 OFFCURVE",
"82 58 CURVE SMOOTH"
);
},
{
closed = 1;
nodes = (
"307 759 OFFCURVE",
"290 803 OFFCURVE",
"206 803 CURVE SMOOTH",
"170 803 OFFCURVE",
"107 793 OFFCURVE",
"72 777 CURVE",
"172 683 OFFCURVE",
"267 407 OFFCURVE",
"349 191 CURVE",
"353 183 OFFCURVE",
"384 174 OFFCURVE",
"425 174 CURVE SMOOTH",
"452 174 OFFCURVE",
"468 178 OFFCURVE",
"500 188 CURVE",
"582 326 OFFCURVE",
"641 449 OFFCURVE",
"726 585 CURVE SMOOTH",
"784 679 OFFCURVE",
"821 735 OFFCURVE",
"702 802 CURVE",
"670 662 OFFCURVE",
"570 461 OFFCURVE",
"473 320 CURVE"
);
}
);
};
layerId = "BF8042A9-B348-454C-A59B-E2F834F64B4C";
paths = (
{
closed = 1;
nodes = (
"452 174 OFFCURVE",
"468 178 OFFCURVE",
"500 188 CURVE",
"582 326 OFFCURVE",
"641 449 OFFCURVE",
"726 585 CURVE SMOOTH",
"784 679 OFFCURVE",
"821 735 OFFCURVE",
"702 802 CURVE",
"670 662 OFFCURVE",
"570 461 OFFCURVE",
"473 320 CURVE",
"307 759 OFFCURVE",
"290 803 OFFCURVE",
"206 803 CURVE SMOOTH",
"170 803 OFFCURVE",
"107 793 OFFCURVE",
"72 777 CURVE",
"172 683 OFFCURVE",
"267 407 OFFCURVE",
"349 191 CURVE",
"353 183 OFFCURVE",
"384 174 OFFCURVE",
"425 174 CURVE SMOOTH"
);
},
{
closed = 1;
nodes = (
"220 27 OFFCURVE",
"219 54 OFFCURVE",
"219 78 CURVE SMOOTH",
"219 303 OFFCURVE",
"258 495 OFFCURVE",
"258 657 CURVE SMOOTH",
"258 708 OFFCURVE",
"247 745 OFFCURVE",
"117 766 CURVE",
"125 753 OFFCURVE",
"130 730 OFFCURVE",
"130 695 CURVE SMOOTH",
"130 521 OFFCURVE",
"84 108 OFFCURVE",
"84 58 CURVE SMOOTH",
"84 24 OFFCURVE",
"83 -5 OFFCURVE",
"222 -5 CURVE"
);
},
{
closed = 1;
nodes = (
"840 -10 OFFCURVE",
"835 28 OFFCURVE",
"835 78 CURVE SMOOTH",
"835 240 OFFCURVE",
"897 576 OFFCURVE",
"897 684 CURVE SMOOTH",
"897 753 OFFCURVE",
"891 796 OFFCURVE",
"702 802 CURVE",
"702 616 OFFCURVE",
"651 173 OFFCURVE",
"651 129 CURVE SMOOTH",
"651 49 OFFCURVE",
"676 -1 OFFCURVE",
"848 -31 CURVE"
);
}
);
width = 968;
}
);
unicode = 004D;
},
{
glyphname = N;
lastChange = "2017-12-05 20:42:37 +0000";
layers = (
{
anchors = (
{
name = bottom;
position = "{387, 0}";
},
{
name = top;
position = "{451, 847}";
}
);
hints = (
{
place = "{85, 100}";
},
{
place = "{162, 23}";
},
{
place = "{593, 77}";
},
{
place = "{647, 23}";
},
{
place = "{647, 99}";
},
{
place = "{162, 76}";
},
{
horizontal = 1;
place = "{-5, 21}";
target = up;
type = BottomGhost;
},
{
horizontal = 1;
place = "{801, -20}";
target = down;
type = TopGhost;
},
{
horizontal = 1;
place = "{-21, 21}";
target = up;
type = BottomGhost;
},
{
horizontal = 1;
place = "{802, -20}";
target = down;
type = TopGhost;
}
);
layerId = UUID0;
paths = (
{
closed = 1;
nodes = (
"85 24 OFFCURVE",
"112 -5 OFFCURVE",
"189 -5 CURVE",
"187 21 OFFCURVE",
"185 50 OFFCURVE",
"185 78 CURVE SMOOTH",
"185 303 OFFCURVE",
"238 495 OFFCURVE",
"238 657 CURVE SMOOTH",
"238 721 OFFCURVE",
"225 769 OFFCURVE",
"148 796 CURVE",
"157 776 OFFCURVE",
"162 745 OFFCURVE",
"162 695 CURVE SMOOTH",
"162 521 OFFCURVE",
"85 108 OFFCURVE",
"85 58 CURVE SMOOTH"
);
},
{
closed = 1;
nodes = (
"675 14 LINE",
"671 36 OFFCURVE",
"670 63 OFFCURVE",
"670 90 CURVE SMOOTH",
"670 265 OFFCURVE",
"746 688 OFFCURVE",
"746 740 CURVE SMOOTH",
"746 773 OFFCURVE",
"720 801 OFFCURVE",
"643 801 CURVE",
"645 776 OFFCURVE",
"647 747 OFFCURVE",
"647 720 CURVE SMOOTH",
"647 490 OFFCURVE",
"593 260 OFFCURVE",
"593 97 CURVE SMOOTH",
"593 77 OFFCURVE",
"595 62 OFFCURVE",
"600 45 CURVE"
);
},
{
closed = 1;
nodes = (
"545 2 OFFCURVE",
"568 -21 OFFCURVE",
"603 -21 CURVE SMOOTH",
"633 -21 OFFCURVE",
"660 -10 OFFCURVE",
"698 19 CURVE",
"593 77 OFFCURVE",
"505 282 OFFCURVE",
"416 461 CURVE SMOOTH",
"341 612 OFFCURVE",
"288 707 OFFCURVE",
"265 742 CURVE SMOOTH",
"235 787 OFFCURVE",
"199 802 OFFCURVE",
"155 802 CURVE SMOOTH",
"132 802 OFFCURVE",
"105 794 OFFCURVE",
"75 773 CURVE",
"94 760 OFFCURVE",
"128 743 OFFCURVE",
"161 703 CURVE SMOOTH",
"285 554 OFFCURVE",
"474 113 OFFCURVE",
"524 38 CURVE SMOOTH"
);
}
);
width = 821;
},
{
anchors = (
{
name = bottom;
position = "{387, 0}";
},
{
name = top;
position = "{451, 847}";
}
);
layerId = UUID1;
paths = (
{
closed = 1;
nodes = (
"80 24 OFFCURVE",
"97 -5 OFFCURVE",
"199 -5 CURVE",
"197 21 OFFCURVE",
"195 50 OFFCURVE",
"195 78 CURVE SMOOTH",
"195 303 OFFCURVE",
"248 495 OFFCURVE",
"248 657 CURVE SMOOTH",
"248 721 OFFCURVE",
"235 769 OFFCURVE",
"133 796 CURVE",
"142 776 OFFCURVE",
"147 745 OFFCURVE",
"147 695 CURVE SMOOTH",
"147 521 OFFCURVE",
"80 108 OFFCURVE",
"80 58 CURVE SMOOTH"
);
},
{
closed = 1;
nodes = (
"690 14 LINE",
"686 36 OFFCURVE",
"685 63 OFFCURVE",
"685 90 CURVE SMOOTH",
"685 265 OFFCURVE",
"751 688 OFFCURVE",
"751 740 CURVE SMOOTH",
"751 773 OFFCURVE",
"735 801 OFFCURVE",
"633 801 CURVE",
"635 776 OFFCURVE",
"637 747 OFFCURVE",
"637 720 CURVE SMOOTH",
"637 490 OFFCURVE",
"583 260 OFFCURVE",
"583 97 CURVE SMOOTH",
"583 77 OFFCURVE",
"585 62 OFFCURVE",
"590 45 CURVE"
);
},
{
closed = 1;
nodes = (
"534 -5 OFFCURVE",
"558 -21 OFFCURVE",
"601 -21 CURVE SMOOTH",
"635 -21 OFFCURVE",
"668 -10 OFFCURVE",
"713 19 CURVE",
"608 77 OFFCURVE",
"523 282 OFFCURVE",
"434 461 CURVE SMOOTH",
"359 612 OFFCURVE",
"307 708 OFFCURVE",
"283 742 CURVE SMOOTH",
"250 788 OFFCURVE",
"203 802 OFFCURVE",
"152 802 CURVE SMOOTH",
"126 802 OFFCURVE",
"95 794 OFFCURVE",
"60 773 CURVE",
"79 760 OFFCURVE",
"117 744 OFFCURVE",
"148 703 CURVE SMOOTH",
"262 554 OFFCURVE",
"457 113 OFFCURVE",
"506 38 CURVE SMOOTH"
);
}
);
width = 821;
},
{
anchors = (
{
name = bottom;
position = "{393, 0}";
},
{
name = top;
position = "{447, 847}";
}
);
layerId = "BF8042A9-B348-454C-A59B-E2F834F64B4C";
paths = (
{
closed = 1;
nodes = (
"85 24 OFFCURVE",
"84 -5 OFFCURVE",
"223 -5 CURVE",
"221 27 OFFCURVE",
"220 54 OFFCURVE",
"220 78 CURVE SMOOTH",
"220 303 OFFCURVE",
"259 495 OFFCURVE",
"259 657 CURVE SMOOTH",
"259 722 OFFCURVE",
"248 769 OFFCURVE",
"118 796 CURVE",
"126 776 OFFCURVE",
"131 745 OFFCURVE",
"131 695 CURVE SMOOTH",
"131 521 OFFCURVE",
"85 108 OFFCURVE",
"85 58 CURVE SMOOTH"
);
},
{
closed = 1;
nodes = (
"694 14 LINE",
"690 36 OFFCURVE",
"689 63 OFFCURVE",
"689 90 CURVE SMOOTH",
"689 265 OFFCURVE",
"734 688 OFFCURVE",
"734 740 CURVE SMOOTH",
"734 773 OFFCURVE",
"736 801 OFFCURVE",
"597 801 CURVE",
"598 784 OFFCURVE",
"600 750 OFFCURVE",
"600 720 CURVE SMOOTH",
"600 490 OFFCURVE",
"560 260 OFFCURVE",
"560 97 CURVE SMOOTH",
"560 80 OFFCURVE",
"559 64 OFFCURVE",
"556 45 CURVE"
);
},
{
closed = 1;
nodes = (
"499 -15 OFFCURVE",
"521 -21 OFFCURVE",
"580 -21 CURVE SMOOTH",
"620 -21 OFFCURVE",
"661 -10 OFFCURVE",
"715 19 CURVE",
"617 77 OFFCURVE",
"540 285 OFFCURVE",
"458 461 CURVE SMOOTH",
"388 612 OFFCURVE",
"339 712 OFFCURVE",
"317 741 CURVE SMOOTH",
"280 790 OFFCURVE",
"217 802 OFFCURVE",
"156 802 CURVE SMOOTH",
"127 802 OFFCURVE",
"91 794 OFFCURVE",
"49 773 CURVE",
"67 760 OFFCURVE",
"109 746 OFFCURVE",
"135 703 CURVE SMOOTH",
"225 554 OFFCURVE",
"419 110 OFFCURVE",
"464 39 CURVE SMOOTH"
);
}
);
width = 813;
}
);
rightKerningGroup = N;
unicode = 004E;
},
{
glyphname = Eng;
lastChange = "2017-12-05 20:42:37 +0000";
layers = (
{
background = {
paths = (
{
closed = 1;
nodes = (
"711 560 OFFCURVE",
"689 583 OFFCURVE",
"634 583 CURVE SMOOTH",
"624 583 OFFCURVE",
"609 582 OFFCURVE",
"600 581 CURVE",
"603 532 OFFCURVE",
"606 475 OFFCURVE",
"606 412 CURVE SMOOTH",
"606 124 OFFCURVE",
"562 -270 OFFCURVE",
"410 -270 CURVE SMOOTH",
"382 -270 OFFCURVE",
"363 -247 OFFCURVE",
"363 -207 CURVE SMOOTH",
"363 -167 OFFCURVE",
"379 -135 OFFCURVE",
"400 -115 CURVE",
"389 -110 OFFCURVE",
"376 -108 OFFCURVE",
"367 -108 CURVE SMOOTH",
"305 -108 OFFCURVE",
"269 -163 OFFCURVE",
"269 -218 CURVE SMOOTH",
"269 -284 OFFCURVE",
"324 -334 OFFCURVE",
"395 -334 CURVE SMOOTH",
"676 -334 OFFCURVE",
"711 246 OFFCURVE",
"711 504 CURVE SMOOTH"
);
},
{
closed = 1;
nodes = (
"85 24 OFFCURVE",
"112 -5 OFFCURVE",
"189 -5 CURVE",
"187 21 OFFCURVE",
"185 50 OFFCURVE",
"185 78 CURVE SMOOTH",
"185 303 OFFCURVE",
"238 495 OFFCURVE",
"238 657 CURVE SMOOTH",
"238 721 OFFCURVE",
"225 769 OFFCURVE",
"148 796 CURVE",
"157 776 OFFCURVE",
"162 745 OFFCURVE",
"162 695 CURVE SMOOTH",
"162 521 OFFCURVE",
"85 108 OFFCURVE",
"85 58 CURVE SMOOTH"
);
},
{
closed = 1;
nodes = (
"675 14 LINE",
"671 36 OFFCURVE",
"670 63 OFFCURVE",
"670 90 CURVE SMOOTH",
"670 265 OFFCURVE",
"746 688 OFFCURVE",
"746 740 CURVE SMOOTH",
"746 773 OFFCURVE",
"720 801 OFFCURVE",
"643 801 CURVE",
"645 776 OFFCURVE",
"647 747 OFFCURVE",
"647 720 CURVE SMOOTH",
"647 490 OFFCURVE",
"593 260 OFFCURVE",
"593 97 CURVE SMOOTH",
"593 77 OFFCURVE",
"595 62 OFFCURVE",
"600 45 CURVE"
);
},
{
closed = 1;
nodes = (
"545 2 OFFCURVE",
"568 -21 OFFCURVE",
"603 -21 CURVE SMOOTH",
"633 -21 OFFCURVE",
"660 -10 OFFCURVE",
"698 19 CURVE",
"593 77 OFFCURVE",
"505 282 OFFCURVE",
"416 461 CURVE SMOOTH",
"341 612 OFFCURVE",
"288 707 OFFCURVE",
"265 742 CURVE SMOOTH",
"235 787 OFFCURVE",
"199 802 OFFCURVE",
"155 802 CURVE SMOOTH",
"132 802 OFFCURVE",
"105 794 OFFCURVE",
"75 773 CURVE",
"94 760 OFFCURVE",
"128 743 OFFCURVE",
"161 703 CURVE SMOOTH",
"285 554 OFFCURVE",
"474 113 OFFCURVE",
"524 38 CURVE"
);
}
);
};
layerId = UUID0;
paths = (
{
closed = 1;
nodes = (
"676 -334 OFFCURVE",
"745 466 OFFCURVE",
"745 724 CURVE SMOOTH",
"745 780 OFFCURVE",
"732 803 OFFCURVE",
"677 803 CURVE SMOOTH",
"667 803 OFFCURVE",
"652 802 OFFCURVE",
"643 801 CURVE",
"646 752 OFFCURVE",
"649 695 OFFCURVE",
"649 632 CURVE SMOOTH",
"649 344 OFFCURVE",
"562 -270 OFFCURVE",
"410 -270 CURVE SMOOTH",
"382 -270 OFFCURVE",
"363 -247 OFFCURVE",
"363 -207 CURVE SMOOTH",
"363 -167 OFFCURVE",
"379 -135 OFFCURVE",
"400 -115 CURVE",
"389 -110 OFFCURVE",
"376 -108 OFFCURVE",
"367 -108 CURVE SMOOTH",
"305 -108 OFFCURVE",
"269 -163 OFFCURVE",
"269 -218 CURVE SMOOTH",
"269 -284 OFFCURVE",
"324 -334 OFFCURVE",
"395 -334 CURVE SMOOTH"
);
},
{
closed = 1;
nodes = (
"187 21 OFFCURVE",
"185 50 OFFCURVE",
"185 78 CURVE SMOOTH",
"185 303 OFFCURVE",
"238 495 OFFCURVE",
"238 657 CURVE SMOOTH",
"238 721 OFFCURVE",
"225 769 OFFCURVE",
"148 796 CURVE",
"157 776 OFFCURVE",
"162 745 OFFCURVE",
"162 695 CURVE SMOOTH",
"162 521 OFFCURVE",
"85 108 OFFCURVE",
"85 58 CURVE SMOOTH",
"85 24 OFFCURVE",
"112 -5 OFFCURVE",
"189 -5 CURVE"
);
},
{
closed = 1;
nodes = (
"612 92 LINE",
"543 183 OFFCURVE",
"480 333 OFFCURVE",
"416 461 CURVE SMOOTH",
"341 612 OFFCURVE",
"288 707 OFFCURVE",
"265 742 CURVE SMOOTH",
"235 787 OFFCURVE",
"199 802 OFFCURVE",
"155 802 CURVE SMOOTH",
"132 802 OFFCURVE",
"105 794 OFFCURVE",
"75 773 CURVE",
"94 760 OFFCURVE",
"128 743 OFFCURVE",
"161 703 CURVE SMOOTH",
"285 554 OFFCURVE",
"455 163 OFFCURVE",
"499 85 CURVE SMOOTH",
"526 36 OFFCURVE",
"572 1 OFFCURVE",
"612 -1 CURVE"
);
}
);
width = 820;
},
{
background = {
paths = (
{
closed = 1;
nodes = (
"735 560 OFFCURVE",
"710 583 OFFCURVE",
"635 583 CURVE SMOOTH",
"623 583 OFFCURVE",
"603 582 OFFCURVE",
"592 581 CURVE",
"595 532 OFFCURVE",
"596 475 OFFCURVE",
"596 412 CURVE SMOOTH",
"596 124 OFFCURVE",
"559 -260 OFFCURVE",
"423 -260 CURVE SMOOTH",
"398 -260 OFFCURVE",
"381 -239 OFFCURVE",
"381 -205 CURVE SMOOTH",
"381 -165 OFFCURVE",
"410 -119 OFFCURVE",
"428 -105 CURVE",
"414 -100 OFFCURVE",
"399 -98 OFFCURVE",
"387 -98 CURVE SMOOTH",
"311 -98 OFFCURVE",
"267 -158 OFFCURVE",
"267 -218 CURVE SMOOTH",
"267 -284 OFFCURVE",
"325 -334 OFFCURVE",
"400 -334 CURVE SMOOTH",
"697 -334 OFFCURVE",
"735 246 OFFCURVE",
"735 504 CURVE SMOOTH"
);
},
{
closed = 1;
nodes = (
"80 24 OFFCURVE",
"97 -5 OFFCURVE",
"199 -5 CURVE",
"197 21 OFFCURVE",
"195 50 OFFCURVE",
"195 78 CURVE SMOOTH",
"195 303 OFFCURVE",
"248 495 OFFCURVE",
"248 657 CURVE SMOOTH",
"248 721 OFFCURVE",
"235 769 OFFCURVE",
"133 796 CURVE",
"142 776 OFFCURVE",
"147 745 OFFCURVE",
"147 695 CURVE SMOOTH",
"147 521 OFFCURVE",
"80 108 OFFCURVE",
"80 58 CURVE SMOOTH"
);
},
{
closed = 1;
nodes = (
"690 14 LINE",
"686 36 OFFCURVE",
"685 63 OFFCURVE",
"685 90 CURVE SMOOTH",
"685 265 OFFCURVE",
"751 688 OFFCURVE",
"751 740 CURVE SMOOTH",
"751 773 OFFCURVE",
"735 801 OFFCURVE",
"633 801 CURVE",
"635 776 OFFCURVE",
"637 747 OFFCURVE",
"637 720 CURVE SMOOTH",
"637 490 OFFCURVE",
"583 260 OFFCURVE",
"583 97 CURVE SMOOTH",
"583 77 OFFCURVE",
"585 62 OFFCURVE",
"590 45 CURVE"
);
},
{
closed = 1;
nodes = (
"534 -5 OFFCURVE",
"558 -21 OFFCURVE",
"601 -21 CURVE SMOOTH",
"635 -21 OFFCURVE",
"668 -10 OFFCURVE",
"713 19 CURVE",
"608 77 OFFCURVE",
"523 282 OFFCURVE",
"434 461 CURVE SMOOTH",
"359 612 OFFCURVE",
"307 708 OFFCURVE",
"283 742 CURVE SMOOTH",
"250 788 OFFCURVE",
"203 802 OFFCURVE",
"152 802 CURVE SMOOTH",
"126 802 OFFCURVE",
"95 794 OFFCURVE",
"60 773 CURVE",
"79 760 OFFCURVE",
"117 744 OFFCURVE",
"148 703 CURVE SMOOTH",
"262 554 OFFCURVE",
"457 113 OFFCURVE",
"506 38 CURVE"
);
}
);
};
layerId = UUID1;
paths = (
{
closed = 1;
nodes = (
"697 -334 OFFCURVE",
"750 541 OFFCURVE",
"750 724 CURVE SMOOTH",
"750 780 OFFCURVE",
"751 803 OFFCURVE",
"676 803 CURVE SMOOTH",
"664 803 OFFCURVE",
"644 802 OFFCURVE",
"633 801 CURVE",
"636 752 OFFCURVE",
"637 695 OFFCURVE",
"637 632 CURVE SMOOTH",
"637 344 OFFCURVE",
"559 -260 OFFCURVE",
"423 -260 CURVE SMOOTH",
"398 -260 OFFCURVE",
"381 -239 OFFCURVE",
"381 -205 CURVE SMOOTH",
"381 -165 OFFCURVE",
"410 -119 OFFCURVE",
"428 -105 CURVE",
"414 -100 OFFCURVE",
"399 -98 OFFCURVE",
"387 -98 CURVE SMOOTH",
"311 -98 OFFCURVE",
"267 -158 OFFCURVE",
"267 -218 CURVE SMOOTH",
"267 -284 OFFCURVE",
"325 -334 OFFCURVE",
"400 -334 CURVE SMOOTH"
);
},
{
closed = 1;
nodes = (
"197 21 OFFCURVE",
"195 50 OFFCURVE",
"195 78 CURVE SMOOTH",
"195 303 OFFCURVE",
"248 495 OFFCURVE",
"248 657 CURVE SMOOTH",
"248 721 OFFCURVE",
"235 769 OFFCURVE",
"133 796 CURVE",
"142 776 OFFCURVE",
"147 745 OFFCURVE",
"147 695 CURVE SMOOTH",
"147 521 OFFCURVE",
"80 108 OFFCURVE",
"80 58 CURVE SMOOTH",
"80 24 OFFCURVE",
"97 -5 OFFCURVE",
"199 -5 CURVE"
);
},
{
closed = 1;
nodes = (
"627 81 LINE",
"559 172 OFFCURVE",
"498 333 OFFCURVE",
"434 461 CURVE SMOOTH",
"359 612 OFFCURVE",
"307 708 OFFCURVE",
"283 742 CURVE SMOOTH",
"250 788 OFFCURVE",
"203 802 OFFCURVE",
"152 802 CURVE SMOOTH",
"126 802 OFFCURVE",
"95 794 OFFCURVE",
"60 773 CURVE",
"79 760 OFFCURVE",
"117 744 OFFCURVE",
"148 703 CURVE SMOOTH",
"262 554 OFFCURVE",
"435 161 OFFCURVE",
"483 86 CURVE SMOOTH",
"528 16 OFFCURVE",
"567 0 OFFCURVE",
"627 0 CURVE"
);
}
);
width = 820;
},
{
background = {
paths = (
{
closed = 1;
nodes = (
"85 24 OFFCURVE",
"84 -5 OFFCURVE",
"223 -5 CURVE",
"221 27 OFFCURVE",
"220 54 OFFCURVE",
"220 78 CURVE SMOOTH",
"220 303 OFFCURVE",
"259 495 OFFCURVE",
"259 657 CURVE SMOOTH",
"259 722 OFFCURVE",
"248 769 OFFCURVE",
"118 796 CURVE",
"126 776 OFFCURVE",
"131 745 OFFCURVE",
"131 695 CURVE SMOOTH",
"131 521 OFFCURVE",
"85 108 OFFCURVE",
"85 58 CURVE SMOOTH"
);
},
{
closed = 1;
nodes = (
"499 -15 OFFCURVE",
"521 -21 OFFCURVE",
"580 -21 CURVE",
"620 125 LINE",
"563 216 OFFCURVE",
"512 346 OFFCURVE",
"458 461 CURVE SMOOTH",
"388 612 OFFCURVE",
"339 712 OFFCURVE",
"317 741 CURVE SMOOTH",
"280 790 OFFCURVE",
"217 802 OFFCURVE",
"156 802 CURVE SMOOTH",
"127 802 OFFCURVE",
"91 794 OFFCURVE",
"49 773 CURVE",
"67 760 OFFCURVE",
"109 746 OFFCURVE",
"135 703 CURVE SMOOTH",
"225 554 OFFCURVE",
"419 110 OFFCURVE",
"464 39 CURVE SMOOTH"
);
},
{
closed = 1;
nodes = (
"801 -334 OFFCURVE",
"832 241 OFFCURVE",
"832 497 CURVE SMOOTH",
"832 560 OFFCURVE",
"803 583 OFFCURVE",
"719 583 CURVE SMOOTH",
"694 583 OFFCURVE",
"655 578 OFFCURVE",
"624 571 CURVE",
"632 533 OFFCURVE",
"634 489 OFFCURVE",
"634 441 CURVE SMOOTH",
"634 139 OFFCURVE",
"603 -260 OFFCURVE",
"490 -260 CURVE SMOOTH",
"470 -260 OFFCURVE",
"457 -239 OFFCURVE",
"457 -205 CURVE SMOOTH",
"457 -157 OFFCURVE",
"486 -101 OFFCURVE",
"504 -85 CURVE",
"484 -80 OFFCURVE",
"459 -78 OFFCURVE",
"444 -78 CURVE SMOOTH",
"355 -78 OFFCURVE",
"303 -148 OFFCURVE",
"303 -215 CURVE SMOOTH",
"303 -285 OFFCURVE",
"361 -334 OFFCURVE",
"446 -334 CURVE SMOOTH"
);
},
{
closed = 1;
nodes = (
"694 14 LINE",
"690 36 OFFCURVE",
"689 63 OFFCURVE",
"689 90 CURVE SMOOTH",
"689 265 OFFCURVE",
"734 688 OFFCURVE",
"734 740 CURVE SMOOTH",
"734 773 OFFCURVE",
"736 801 OFFCURVE",
"597 801 CURVE",
"598 784 OFFCURVE",
"600 750 OFFCURVE",
"600 720 CURVE SMOOTH",
"600 490 OFFCURVE",
"560 260 OFFCURVE",
"560 97 CURVE SMOOTH",
"560 80 OFFCURVE",
"559 64 OFFCURVE",
"556 45 CURVE"
);
}
);
};
layerId = "BF8042A9-B348-454C-A59B-E2F834F64B4C";
paths = (
{
closed = 1;
nodes = (
"706 -334 OFFCURVE",
"734 392 OFFCURVE",
"734 715 CURVE SMOOTH",
"734 778 OFFCURVE",
"715 801 OFFCURVE",
"659 801 CURVE SMOOTH",
"641 801 OFFCURVE",
"613 796 OFFCURVE",
"590 789 CURVE",
"598 751 OFFCURVE",
"600 707 OFFCURVE",
"600 659 CURVE SMOOTH",
"600 263 OFFCURVE",
"563 -260 OFFCURVE",
"430 -260 CURVE SMOOTH",
"410 -260 OFFCURVE",
"397 -239 OFFCURVE",
"397 -205 CURVE SMOOTH",
"397 -157 OFFCURVE",
"426 -101 OFFCURVE",
"444 -85 CURVE",
"424 -80 OFFCURVE",
"399 -78 OFFCURVE",
"384 -78 CURVE SMOOTH",
"295 -78 OFFCURVE",
"243 -148 OFFCURVE",
"243 -215 CURVE SMOOTH",
"243 -285 OFFCURVE",
"301 -334 OFFCURVE",
"386 -334 CURVE SMOOTH"
);
},
{
closed = 1;
nodes = (
"221 27 OFFCURVE",
"220 54 OFFCURVE",
"220 78 CURVE SMOOTH",
"220 303 OFFCURVE",
"259 495 OFFCURVE",
"259 657 CURVE SMOOTH",
"259 722 OFFCURVE",
"248 769 OFFCURVE",
"118 796 CURVE",
"126 776 OFFCURVE",
"131 745 OFFCURVE",
"131 695 CURVE SMOOTH",
"131 521 OFFCURVE",
"85 108 OFFCURVE",
"85 58 CURVE SMOOTH",
"85 24 OFFCURVE",
"84 -5 OFFCURVE",
"223 -5 CURVE"
);
},
{
closed = 1;
nodes = (
"620 145 LINE",
"563 231 OFFCURVE",
"512 353 OFFCURVE",
"458 461 CURVE SMOOTH",
"388 612 OFFCURVE",
"339 712 OFFCURVE",
"317 741 CURVE SMOOTH",
"280 790 OFFCURVE",
"217 802 OFFCURVE",
"156 802 CURVE SMOOTH",
"127 802 OFFCURVE",
"91 794 OFFCURVE",
"49 773 CURVE",
"67 760 OFFCURVE",
"109 746 OFFCURVE",
"135 703 CURVE SMOOTH",
"225 558 OFFCURVE",
"419 130 OFFCURVE",
"464 59 CURVE SMOOTH",
"499 5 OFFCURVE",
"521 -1 OFFCURVE",
"580 -1 CURVE"
);
}
);
width = 813;
}
);
leftMetricsKey = N;
rightMetricsKey = N;
unicode = 014A;
},
{
glyphname = O;
lastChange = "2017-12-06 20:32:24 +0000";
layers = (
{
anchors = (
{
name = bottom;
position = "{366, 0}";
},
{
name = center;
position = "{401, 424}";
},
{
name = ogonek;
position = "{434, 0}";
},
{
name = top;
position = "{460, 847}";
},
{
name = topleft;
position = "{20, 847}";
},
{
name = topright;
position = "{547, 784}";
}
);
background = {
paths = (
{
closed = 1;
nodes = (
"539 716 OFFCURVE",
"601 647 OFFCURVE",
"601 450 CURVE SMOOTH",
"601 255 OFFCURVE",
"518 45 OFFCURVE",
"372 45 CURVE SMOOTH",
"254 45 OFFCURVE",
"205 175 OFFCURVE",
"205 330 CURVE SMOOTH",
"205 512 OFFCURVE",
"318 716 OFFCURVE",
"459 716 CURVE SMOOTH"
);
},
{
closed = 1;
nodes = (
"641 -25 OFFCURVE",
"752 244 OFFCURVE",
"752 479 CURVE SMOOTH",
"752 700 OFFCURVE",
"640 804 OFFCURVE",
"513 804 CURVE SMOOTH",
"396 804 OFFCURVE",
"268 716 OFFCURVE",
"210 553 CURVE",
"231 680 OFFCURVE",
"300 761 OFFCURVE",
"366 809 CURVE",
"365 818 OFFCURVE",
"353 828 OFFCURVE",
"342 830 CURVE",
"163 786 OFFCURVE",
"50 600 OFFCURVE",
"50 379 CURVE SMOOTH",
"50 191 OFFCURVE",
"141 -25 OFFCURVE",
"357 -25 CURVE SMOOTH"
);
}
);
};
hints = (
{
place = "{65, 117}";
},
{
place = "{624, 113}";
},
{
horizontal = 1;
place = "{-25, 60}";
},
{
horizontal = 1;
place = "{731, 73}";
},
{
horizontal = 1;
place = "{827, -20}";
target = down;
type = TopGhost;
}
);
layerId = UUID0;
paths = (
{
closed = 1;
nodes = (
"631 -25 OFFCURVE",
"737 244 OFFCURVE",
"737 479 CURVE SMOOTH",
"737 700 OFFCURVE",
"625 804 OFFCURVE",
"498 804 CURVE SMOOTH",
"391 804 OFFCURVE",
"267 731 OFFCURVE",
"202 594 CURVE",
"194 596 LINE",
"225 711 OFFCURVE",
"290 767 OFFCURVE",
"361 811 CURVE",
"360 818 OFFCURVE",
"351 825 OFFCURVE",
"342 827 CURVE",
"180 776 OFFCURVE",
"65 600 OFFCURVE",
"65 379 CURVE SMOOTH",
"65 191 OFFCURVE",
"152 -25 OFFCURVE",
"359 -25 CURVE SMOOTH"
);
},
{
closed = 1;
nodes = (
"238 35 OFFCURVE",
"182 170 OFFCURVE",
"182 330 CURVE SMOOTH",
"182 519 OFFCURVE",
"295 731 OFFCURVE",
"458 731 CURVE SMOOTH",
"551 731 OFFCURVE",
"624 658 OFFCURVE",
"624 450 CURVE SMOOTH",
"624 250 OFFCURVE",
"533 35 OFFCURVE",
"372 35 CURVE SMOOTH"
);
}
);
width = 802;
},
{
anchors = (
{
name = bottom;
position = "{366, 0}";
},
{
name = center;
position = "{401, 424}";
},
{
name = ogonek;
position = "{434, 0}";
},
{
name = top;
position = "{460, 847}";
},
{
name = topleft;
position = "{20, 847}";
},
{
name = topright;
position = "{547, 784}";
}
);
background = {
paths = (
{
closed = 1;
nodes = (
"539 716 OFFCURVE",
"601 647 OFFCURVE",
"601 450 CURVE SMOOTH",
"601 255 OFFCURVE",
"518 45 OFFCURVE",
"372 45 CURVE SMOOTH",
"254 45 OFFCURVE",
"205 175 OFFCURVE",
"205 330 CURVE SMOOTH",
"205 512 OFFCURVE",
"318 716 OFFCURVE",
"459 716 CURVE SMOOTH"
);
},
{
closed = 1;
nodes = (
"641 -25 OFFCURVE",
"752 244 OFFCURVE",
"752 479 CURVE SMOOTH",
"752 700 OFFCURVE",
"640 804 OFFCURVE",
"513 804 CURVE SMOOTH",
"396 804 OFFCURVE",
"268 716 OFFCURVE",
"210 553 CURVE",
"231 680 OFFCURVE",
"300 761 OFFCURVE",
"366 809 CURVE",
"365 818 OFFCURVE",
"353 828 OFFCURVE",
"342 830 CURVE",
"163 786 OFFCURVE",
"50 600 OFFCURVE",
"50 379 CURVE SMOOTH",
"50 191 OFFCURVE",
"141 -25 OFFCURVE",
"357 -25 CURVE SMOOTH"
);
}
);
};
layerId = UUID1;
paths = (
{
closed = 1;
nodes = (
"641 -25 OFFCURVE",
"752 244 OFFCURVE",
"752 479 CURVE SMOOTH",
"752 700 OFFCURVE",
"640 804 OFFCURVE",
"513 804 CURVE SMOOTH",
"406 804 OFFCURVE",
"290 731 OFFCURVE",
"227 594 CURVE",
"220 597 LINE",
"247 699 OFFCURVE",
"308 767 OFFCURVE",
"366 809 CURVE",
"365 818 OFFCURVE",
"353 828 OFFCURVE",
"342 830 CURVE",
"163 786 OFFCURVE",
"50 600 OFFCURVE",
"50 379 CURVE SMOOTH",
"50 191 OFFCURVE",
"141 -25 OFFCURVE",
"357 -25 CURVE SMOOTH"
);
},
{
closed = 1;
nodes = (
"259 45 OFFCURVE",
"211 175 OFFCURVE",
"211 330 CURVE SMOOTH",
"211 512 OFFCURVE",
"321 716 OFFCURVE",
"457 716 CURVE SMOOTH",
"535 716 OFFCURVE",
"595 647 OFFCURVE",
"595 450 CURVE SMOOTH",
"595 255 OFFCURVE",
"514 45 OFFCURVE",
"373 45 CURVE SMOOTH"
);
}
);
width = 802;
},
{
anchors = (
{
name = bottom;
position = "{369, 0}";
},
{
name = center;
position = "{404, 424}";
},
{
name = ogonek;
position = "{454, 0}";
},
{
name = top;
position = "{463, 847}";
},
{
name = topleft;
position = "{20, 847}";
},
{
name = topright;
position = "{547, 784}";
}
);
background = {
paths = (
{
closed = 1;
nodes = (
"542 716 OFFCURVE",
"604 647 OFFCURVE",
"604 450 CURVE SMOOTH",
"604 255 OFFCURVE",
"521 45 OFFCURVE",
"375 45 CURVE SMOOTH",
"257 45 OFFCURVE",
"208 175 OFFCURVE",
"208 330 CURVE SMOOTH",
"208 512 OFFCURVE",
"321 716 OFFCURVE",
"462 716 CURVE SMOOTH"
);
},
{
closed = 1;
nodes = (
"644 -25 OFFCURVE",
"755 244 OFFCURVE",
"755 479 CURVE SMOOTH",
"755 700 OFFCURVE",
"643 804 OFFCURVE",
"516 804 CURVE SMOOTH",
"399 804 OFFCURVE",
"271 716 OFFCURVE",
"213 553 CURVE",
"234 680 OFFCURVE",
"303 761 OFFCURVE",
"369 809 CURVE",
"368 818 OFFCURVE",
"356 828 OFFCURVE",
"345 830 CURVE",
"166 786 OFFCURVE",
"53 600 OFFCURVE",
"53 379 CURVE SMOOTH",
"53 191 OFFCURVE",
"144 -25 OFFCURVE",
"360 -25 CURVE SMOOTH"
);
}
);
};
layerId = "BF8042A9-B348-454C-A59B-E2F834F64B4C";
paths = (
{
closed = 1;
nodes = (
"639 -25 OFFCURVE",
"760 244 OFFCURVE",
"760 476 CURVE SMOOTH",
"760 702 OFFCURVE",
"655 804 OFFCURVE",
"536 804 CURVE SMOOTH",
"435 804 OFFCURVE",
"340 731 OFFCURVE",
"284 594 CURVE",
"278 596 LINE",
"297 677 OFFCURVE",
"351 772 OFFCURVE",
"380 806 CURVE",
"379 818 OFFCURVE",
"364 832 OFFCURVE",
"349 835 CURVE",
"155 805 OFFCURVE",
"48 603 OFFCURVE",
"48 385 CURVE SMOOTH",
"48 191 OFFCURVE",
"133 -25 OFFCURVE",
"372 -25 CURVE SMOOTH"
);
},
{
closed = 1;
nodes = (
"284 62 OFFCURVE",
"248 191 OFFCURVE",
"248 308 CURVE SMOOTH",
"248 521 OFFCURVE",
"366 691 OFFCURVE",
"456 691 CURVE SMOOTH",
"516 691 OFFCURVE",
"560 624 OFFCURVE",
"560 462 CURVE SMOOTH",
"560 244 OFFCURVE",
"484 62 OFFCURVE",
"375 62 CURVE SMOOTH"
);
}
);
width = 807;
}
);
leftKerningGroup = C;
rightKerningGroup = D;
unicode = 004F;
},
{
glyphname = OE;
lastChange = "2017-12-05 20:42:37 +0000";
layers = (
{
anchors = (
{
name = bottom;
position = "{472, 0}";
},
{
name = top;
position = "{546, 847}";
}
);
background = {
paths = (
{
closed = 1;
nodes = (
"372 35 LINE",
"238 35 OFFCURVE",
"182 170 OFFCURVE",
"182 330 CURVE SMOOTH",
"182 519 OFFCURVE",
"295 731 OFFCURVE",
"458 731 CURVE"
);
},
{
closed = 1;
nodes = (
"498 804 LINE",
"381 804 OFFCURVE",
"243 716 OFFCURVE",
"185 553 CURVE",
"210 697 OFFCURVE",
"282 762 OFFCURVE",
"361 811 CURVE",
"360 818 OFFCURVE",
"351 825 OFFCURVE",
"342 827 CURVE",
"180 776 OFFCURVE",
"65 600 OFFCURVE",
"65 379 CURVE SMOOTH",
"65 191 OFFCURVE",
"152 -25 OFFCURVE",
"359 -25 CURVE"
);
},
{
closed = 1;
nodes = (
"541 690 OFFCURVE",
"559 681 OFFCURVE",
"615 681 CURVE SMOOTH",
"696 681 OFFCURVE",
"821 684 OFFCURVE",
"891 696 CURVE SMOOTH",
"948 705 OFFCURVE",
"994 729 OFFCURVE",
"1004 793 CURVE",
"929 778 OFFCURVE",
"842 771 OFFCURVE",
"756 771 CURVE SMOOTH",
"687 771 OFFCURVE",
"615 776 OFFCURVE",
"549 785 CURVE",
"545 774 OFFCURVE",
"541 755 OFFCURVE",
"541 732 CURVE SMOOTH"
);
},
{
closed = 1;
nodes = (
"537 2 OFFCURVE",
"588 5 OFFCURVE",
"635 5 CURVE SMOOTH",
"729 5 OFFCURVE",
"807 -8 OFFCURVE",
"848 -8 CURVE SMOOTH",
"912 -8 OFFCURVE",
"959 36 OFFCURVE",
"969 114 CURVE",
"909 97 OFFCURVE",
"778 84 OFFCURVE",
"647 84 CURVE SMOOTH",
"520 84 OFFCURVE",
"492 16 OFFCURVE",
"485 -8 CURVE"
);
},
{
closed = 1;
nodes = (
"845 421 OFFCURVE",
"798 416 OFFCURVE",
"751 416 CURVE SMOOTH",
"720 416 OFFCURVE",
"657 419 OFFCURVE",
"625 419 CURVE SMOOTH",
"557 419 OFFCURVE",
"501 408 OFFCURVE",
"501 338 CURVE SMOOTH",
"501 328 OFFCURVE",
"502 318 OFFCURVE",
"503 309 CURVE",
"578 340 OFFCURVE",
"661 341 OFFCURVE",
"726 341 CURVE SMOOTH",
"753 341 OFFCURVE",
"782 340 OFFCURVE",
"815 340 CURVE SMOOTH",
"853 340 OFFCURVE",
"878 360 OFFCURVE",
"878 419 CURVE SMOOTH",
"878 428 OFFCURVE",
"877 437 OFFCURVE",
"876 445 CURVE"
);
},
{
closed = 1;
nodes = (
"635 70 LINE",
"635 74 OFFCURVE",
"635 79 OFFCURVE",
"635 83 CURVE SMOOTH",
"635 331 OFFCURVE",
"692 573 OFFCURVE",
"692 683 CURVE SMOOTH",
"692 695 OFFCURVE",
"691 706 OFFCURVE",
"689 717 CURVE",
"589 712 LINE",
"588 489 OFFCURVE",
"522 189 OFFCURVE",
"522 69 CURVE SMOOTH",
"522 59 OFFCURVE",
"523 49 OFFCURVE",
"525 41 CURVE"
);
}
);
};
layerId = UUID0;
paths = (
{
closed = 1;
nodes = (
"488 -25 OFFCURVE",
"533 0 OFFCURVE",
"681 0 CURVE SMOOTH",
"730 0 OFFCURVE",
"784 -11 OFFCURVE",
"830 -11 CURVE SMOOTH",
"918 -11 OFFCURVE",
"960 27 OFFCURVE",
"969 114 CURVE",
"904 96 OFFCURVE",
"766 83 OFFCURVE",
"635 83 CURVE",
"636 157 OFFCURVE",
"642 243 OFFCURVE",
"652 341 CURVE",
"671 342 OFFCURVE",
"762 339 OFFCURVE",
"801 339 CURVE SMOOTH",
"855 339 OFFCURVE",
"878 361 OFFCURVE",
"878 412 CURVE SMOOTH",
"878 425 OFFCURVE",
"877 433 OFFCURVE",
"876 445 CURVE",
"846 426 OFFCURVE",
"806 417 OFFCURVE",
"745 417 CURVE SMOOTH",
"729 417 OFFCURVE",
"705 418 OFFCURVE",
"661 419 CURVE",
"674 523 OFFCURVE",
"688 620 OFFCURVE",
"692 683 CURVE",
"722 678 OFFCURVE",
"749 676 OFFCURVE",
"775 676 CURVE SMOOTH",
"912 676 OFFCURVE",
"997 720 OFFCURVE",
"1004 794 CURVE",
"942 781 OFFCURVE",
"876 775 OFFCURVE",
"807 775 CURVE SMOOTH",
"674 775 OFFCURVE",
"569 799 OFFCURVE",
"502 799 CURVE SMOOTH",
"375 799 OFFCURVE",
"263 722 OFFCURVE",
"202 594 CURVE",
"195 597 LINE",
"222 692 OFFCURVE",
"275 760 OFFCURVE",
"361 810 CURVE",
"360 819 OFFCURVE",
"353 825 OFFCURVE",
"342 827 CURVE",
"174 774 OFFCURVE",
"65 598 OFFCURVE",
"65 379 CURVE SMOOTH",
"65 143 OFFCURVE",
"187 -25 OFFCURVE",
"357 -25 CURVE SMOOTH"
);
},
{
closed = 1;
nodes = (
"257 35 OFFCURVE",
"182 146 OFFCURVE",
"182 330 CURVE SMOOTH",
"182 541 OFFCURVE",
"319 731 OFFCURVE",
"472 731 CURVE SMOOTH",
"520 731 OFFCURVE",
"557 723 OFFCURVE",
"590 705 CURVE",
"581 521 OFFCURVE",
"533 210 OFFCURVE",
"522 83 CURVE",
"496 56 OFFCURVE",
"434 35 OFFCURVE",
"381 35 CURVE SMOOTH"
);
}
);
width = 1014;
},
{
anchors = (
{
name = bottom;
position = "{481, 0}";
},
{
name = top;
position = "{555, 847}";
}
);
background = {
paths = (
{
closed = 1;
nodes = (
"372 45 LINE",
"254 45 OFFCURVE",
"205 175 OFFCURVE",
"205 330 CURVE SMOOTH",
"205 512 OFFCURVE",
"318 716 OFFCURVE",
"459 716 CURVE"
);
},
{
closed = 1;
nodes = (
"513 804 LINE",
"396 804 OFFCURVE",
"268 716 OFFCURVE",
"210 553 CURVE",
"231 680 OFFCURVE",
"300 761 OFFCURVE",
"366 809 CURVE",
"365 818 OFFCURVE",
"353 828 OFFCURVE",
"342 830 CURVE",
"163 786 OFFCURVE",
"50 600 OFFCURVE",
"50 379 CURVE SMOOTH",
"50 191 OFFCURVE",
"141 -25 OFFCURVE",
"357 -25 CURVE"
);
},
{
closed = 1;
nodes = (
"514 669 OFFCURVE",
"522 655 OFFCURVE",
"592 655 CURVE SMOOTH",
"683 655 OFFCURVE",
"825 658 OFFCURVE",
"903 673 CURVE SMOOTH",
"968 685 OFFCURVE",
"1020 717 OFFCURVE",
"1031 799 CURVE",
"947 783 OFFCURVE",
"851 775 OFFCURVE",
"754 775 CURVE SMOOTH",
"676 775 OFFCURVE",
"597 780 OFFCURVE",
"522 790 CURVE",
"518 778 OFFCURVE",
"514 757 OFFCURVE",
"514 731 CURVE SMOOTH"
);
},
{
closed = 1;
nodes = (
"515 1 OFFCURVE",
"572 5 OFFCURVE",
"624 5 CURVE SMOOTH",
"729 5 OFFCURVE",
"816 -12 OFFCURVE",
"862 -12 CURVE SMOOTH",
"933 -12 OFFCURVE",
"985 44 OFFCURVE",
"997 144 CURVE",
"930 122 OFFCURVE",
"784 106 OFFCURVE",
"638 106 CURVE SMOOTH",
"496 106 OFFCURVE",
"465 19 OFFCURVE",
"457 -12 CURVE"
);
},
{
closed = 1;
nodes = (
"857 428 OFFCURVE",
"806 422 OFFCURVE",
"755 422 CURVE SMOOTH",
"721 422 OFFCURVE",
"653 425 OFFCURVE",
"619 425 CURVE SMOOTH",
"545 425 OFFCURVE",
"485 412 OFFCURVE",
"485 332 CURVE SMOOTH",
"485 321 OFFCURVE",
"486 310 OFFCURVE",
"487 299 CURVE",
"568 335 OFFCURVE",
"658 335 OFFCURVE",
"728 335 CURVE SMOOTH",
"757 335 OFFCURVE",
"788 334 OFFCURVE",
"824 334 CURVE SMOOTH",
"865 334 OFFCURVE",
"892 357 OFFCURVE",
"892 425 CURVE SMOOTH",
"892 435 OFFCURVE",
"891 445 OFFCURVE",
"890 455 CURVE"
);
},
{
closed = 1;
nodes = (
"649 70 LINE",
"649 74 OFFCURVE",
"649 79 OFFCURVE",
"649 83 CURVE SMOOTH",
"649 331 OFFCURVE",
"706 573 OFFCURVE",
"706 683 CURVE SMOOTH",
"706 695 OFFCURVE",
"705 706 OFFCURVE",
"703 717 CURVE",
"573 712 LINE",
"572 489 OFFCURVE",
"506 189 OFFCURVE",
"506 69 CURVE SMOOTH",
"506 59 OFFCURVE",
"507 49 OFFCURVE",
"509 41 CURVE"
);
}
);
};
layerId = UUID1;
paths = (
{
closed = 1;
nodes = (
"488 -25 OFFCURVE",
"533 0 OFFCURVE",
"681 0 CURVE SMOOTH",
"735 0 OFFCURVE",
"794 -11 OFFCURVE",
"845 -11 CURVE SMOOTH",
"943 -11 OFFCURVE",
"988 35 OFFCURVE",
"998 144 CURVE",
"930 122 OFFCURVE",
"786 106 OFFCURVE",
"649 106 CURVE",
"650 173 OFFCURVE",
"655 247 OFFCURVE",
"665 335 CURVE",
"694 335 OFFCURVE",
"790 334 OFFCURVE",
"828 334 CURVE SMOOTH",
"874 334 OFFCURVE",
"896 364 OFFCURVE",
"896 425 CURVE SMOOTH",
"896 437 OFFCURVE",
"896 444 OFFCURVE",
"894 455 CURVE",
"867 433 OFFCURVE",
"823 422 OFFCURVE",
"759 422 CURVE SMOOTH",
"739 422 OFFCURVE",
"706 422 OFFCURVE",
"676 423 CURVE",
"688 518 OFFCURVE",
"701 596 OFFCURVE",
"705 653 CURVE",
"736 648 OFFCURVE",
"765 646 OFFCURVE",
"792 646 CURVE SMOOTH",
"936 646 OFFCURVE",
"1025 703 OFFCURVE",
"1032 799 CURVE",
"968 786 OFFCURVE",
"900 780 OFFCURVE",
"828 780 CURVE SMOOTH",
"691 780 OFFCURVE",
"582 804 OFFCURVE",
"513 804 CURVE SMOOTH",
"398 804 OFFCURVE",
"287 723 OFFCURVE",
"227 595 CURVE",
"220 598 LINE",
"244 684 OFFCURVE",
"296 759 OFFCURVE",
"366 809 CURVE",
"365 818 OFFCURVE",
"353 828 OFFCURVE",
"342 830 CURVE",
"167 787 OFFCURVE",
"50 606 OFFCURVE",
"50 379 CURVE SMOOTH",
"50 143 OFFCURVE",
"178 -25 OFFCURVE",
"357 -25 CURVE SMOOTH"
);
},
{
closed = 1;
nodes = (
"268 45 OFFCURVE",
"205 152 OFFCURVE",
"205 330 CURVE SMOOTH",
"205 528 OFFCURVE",
"329 716 OFFCURVE",
"459 716 CURVE SMOOTH",
"505 716 OFFCURVE",
"542 708 OFFCURVE",
"575 691 CURVE",
"566 514 OFFCURVE",
"518 214 OFFCURVE",
"507 91 CURVE",
"482 65 OFFCURVE",
"423 45 OFFCURVE",
"372 45 CURVE SMOOTH"
);
}
);
width = 1032;
},
{
anchors = (
{
name = bottom;
position = "{512, 0}";
},
{
name = top;
position = "{586, 847}";
}
);
background = {
paths = (
{
closed = 0;
nodes = (
"375 62 LINE",
"284 62 OFFCURVE",
"248 191 OFFCURVE",
"248 308 CURVE SMOOTH",
"248 521 OFFCURVE",
"366 691 OFFCURVE",
"456 691 CURVE"
);
},
{
closed = 1;
nodes = (
"532 -1 OFFCURVE",
"595 4 OFFCURVE",
"649 4 CURVE SMOOTH",
"764 4 OFFCURVE",
"859 -19 OFFCURVE",
"910 -19 CURVE SMOOTH",
"985 -19 OFFCURVE",
"1043 52 OFFCURVE",
"1058 191 CURVE",
"984 161 OFFCURVE",
"826 140 OFFCURVE",
"665 140 CURVE SMOOTH",
"509 140 OFFCURVE",
"475 23 OFFCURVE",
"466 -19 CURVE"
);
},
{
closed = 0;
nodes = (
"599 614 LINE",
"757 614 OFFCURVE",
"879 622 OFFCURVE",
"943 636 CURVE SMOOTH",
"1032 655 OFFCURVE",
"1078 712 OFFCURVE",
"1088 809 CURVE",
"990 791 OFFCURVE",
"887 781 OFFCURVE",
"784 781 CURVE SMOOTH",
"692 781 OFFCURVE",
"597 804 OFFCURVE",
"516 804 CURVE SMOOTH",
"423 804 OFFCURVE",
"336 731 OFFCURVE",
"284 594 CURVE",
"278 596 LINE",
"297 677 OFFCURVE",
"351 772 OFFCURVE",
"380 806 CURVE",
"379 818 OFFCURVE",
"364 832 OFFCURVE",
"349 835 CURVE",
"155 805 OFFCURVE",
"48 603 OFFCURVE",
"48 385 CURVE SMOOTH",
"48 191 OFFCURVE",
"133 -25 OFFCURVE",
"372 -25 CURVE"
);
},
{
closed = 1;
nodes = (
"894 439 OFFCURVE",
"837 433 OFFCURVE",
"780 433 CURVE SMOOTH",
"770 433 OFFCURVE",
"760 433 OFFCURVE",
"749 434 CURVE",
"763 539 OFFCURVE",
"776 634 OFFCURVE",
"776 683 CURVE SMOOTH",
"776 697 OFFCURVE",
"776 709 OFFCURVE",
"774 721 CURVE",
"585 719 LINE",
"585 528 OFFCURVE",
"530 232 OFFCURVE",
"530 128 CURVE SMOOTH",
"530 88 OFFCURVE",
"536 56 OFFCURVE",
"564 29 CURVE",
"714 52 LINE",
"714 77 LINE SMOOTH",
"714 140 OFFCURVE",
"723 230 OFFCURVE",
"735 322 CURVE",
"763 322 LINE SMOOTH",
"790 322 OFFCURVE",
"820 321 OFFCURVE",
"853 321 CURVE SMOOTH",
"904 321 OFFCURVE",
"938 340 OFFCURVE",
"938 416 CURVE SMOOTH",
"938 432 OFFCURVE",
"935 450 OFFCURVE",
"930 466 CURVE"
);
}
);
};
layerId = "BF8042A9-B348-454C-A59B-E2F834F64B4C";
paths = (
{
closed = 1;
nodes = (
"472 -25 OFFCURVE",
"567 4 OFFCURVE",
"649 4 CURVE SMOOTH",
"764 4 OFFCURVE",
"859 -19 OFFCURVE",
"910 -19 CURVE SMOOTH",
"989 -19 OFFCURVE",
"1044 59 OFFCURVE",
"1058 191 CURVE",
"994 164 OFFCURVE",
"862 145 OFFCURVE",
"716 141 CURVE",
"719 198 OFFCURVE",
"726 261 OFFCURVE",
"735 322 CURVE",
"790 322 OFFCURVE",
"824 321 OFFCURVE",
"853 321 CURVE SMOOTH",
"913 321 OFFCURVE",
"938 349 OFFCURVE",
"938 416 CURVE SMOOTH",
"938 432 OFFCURVE",
"935 450 OFFCURVE",
"930 466 CURVE",
"900 444 OFFCURVE",
"851 433 OFFCURVE",
"780 433 CURVE SMOOTH",
"761 433 OFFCURVE",
"756 433 OFFCURVE",
"749 434 CURVE",
"761 523 OFFCURVE",
"769 582 OFFCURVE",
"773 625 CURVE",
"790 623 OFFCURVE",
"808 622 OFFCURVE",
"828 622 CURVE SMOOTH",
"992 622 OFFCURVE",
"1075 682 OFFCURVE",
"1088 809 CURVE",
"990 790 OFFCURVE",
"887 781 OFFCURVE",
"784 781 CURVE SMOOTH",
"692 781 OFFCURVE",
"597 804 OFFCURVE",
"516 804 CURVE SMOOTH",
"420 804 OFFCURVE",
"334 726 OFFCURVE",
"284 594 CURVE",
"278 596 LINE",
"293 660 OFFCURVE",
"341 760 OFFCURVE",
"380 806 CURVE",
"379 818 OFFCURVE",
"364 832 OFFCURVE",
"349 835 CURVE",
"171 807 OFFCURVE",
"48 624 OFFCURVE",
"48 385 CURVE SMOOTH",
"48 137 OFFCURVE",
"176 -25 OFFCURVE",
"372 -25 CURVE SMOOTH"
);
},
{
closed = 1;
nodes = (
"301 62 OFFCURVE",
"248 151 OFFCURVE",
"248 308 CURVE SMOOTH",
"248 522 OFFCURVE",
"353 691 OFFCURVE",
"486 691 CURVE SMOOTH",
"520 691 OFFCURVE",
"550 687 OFFCURVE",
"584 677 CURVE",
"577 491 OFFCURVE",
"533 228 OFFCURVE",
"530 114 CURVE",
"494 79 OFFCURVE",
"449 62 OFFCURVE",
"395 62 CURVE SMOOTH"
);
}
);
width = 1093;
}
);
leftKerningGroup = C;
leftMetricsKey = O;
rightMetricsKey = E;
unicode = 0152;
},
{
glyphname = P;
lastChange = "2017-12-05 20:42:37 +0000";
layers = (
{
background = {
paths = (
{
closed = 1;
nodes = (
"274 683 LINE",
"310 698 OFFCURVE",
"343 705 OFFCURVE",
"371 705 CURVE SMOOTH",
"465 705 OFFCURVE",
"509 642 OFFCURVE",
"509 570 CURVE SMOOTH",
"509 472 OFFCURVE",
"455 357 OFFCURVE",
"275 357 CURVE",
"278 315 LINE",
"298 312 OFFCURVE",
"316 311 OFFCURVE",
"335 311 CURVE SMOOTH",
"531 311 OFFCURVE",
"636 458 OFFCURVE",
"636 589 CURVE SMOOTH",
"636 694 OFFCURVE",
"569 788 OFFCURVE",
"430 788 CURVE SMOOTH",
"379 788 OFFCURVE",
"315 775 OFFCURVE",
"258 741 CURVE"
);
},
{
closed = 1;
nodes = (
"80 7 OFFCURVE",
"111 -17 OFFCURVE",
"187 -17 CURVE SMOOTH",
"199 -17 OFFCURVE",
"213 -16 OFFCURVE",
"229 -15 CURVE",
"223 20 OFFCURVE",
"223 52 OFFCURVE",
"223 83 CURVE SMOOTH",
"223 331 OFFCURVE",
"280 573 OFFCURVE",
"280 683 CURVE SMOOTH",
"280 768 OFFCURVE",
"226 819 OFFCURVE",
"133 826 CURVE",
"142 806 OFFCURVE",
"147 767 OFFCURVE",
"147 716 CURVE SMOOTH",
"147 493 OFFCURVE",
"80 190 OFFCURVE",
"80 69 CURVE SMOOTH"
);
}
);
};
hints = (
{
place = "{97, 109}";
},
{
place = "{164, 42}";
},
{
place = "{519, 102}";
},
{
place = "{164, 99}";
},
{
horizontal = 1;
place = "{715, 73}";
},
{
horizontal = 1;
place = "{311, 36}";
},
{
horizontal = 1;
place = "{-17, 21}";
target = up;
type = BottomGhost;
},
{
horizontal = 1;
place = "{826, -20}";
target = down;
type = TopGhost;
}
);
layerId = UUID0;
paths = (
{
closed = 1;
nodes = (
"257 693 LINE",
"297 708 OFFCURVE",
"334 715 OFFCURVE",
"365 715 CURVE SMOOTH",
"470 715 OFFCURVE",
"519 648 OFFCURVE",
"519 570 CURVE SMOOTH",
"519 467 OFFCURVE",
"463 347 OFFCURVE",
"275 347 CURVE",
"278 315 LINE",
"297 312 OFFCURVE",
"314 311 OFFCURVE",
"333 311 CURVE SMOOTH",
"520 311 OFFCURVE",
"621 458 OFFCURVE",
"621 589 CURVE SMOOTH",
"621 694 OFFCURVE",
"554 788 OFFCURVE",
"414 788 CURVE SMOOTH",
"363 788 OFFCURVE",
"298 775 OFFCURVE",
"241 741 CURVE"
);
},
{
closed = 1;
nodes = (
"97 7 OFFCURVE",
"128 -17 OFFCURVE",
"186 -17 CURVE SMOOTH",
"193 -17 OFFCURVE",
"200 -16 OFFCURVE",
"212 -15 CURVE",
"206 20 OFFCURVE",
"206 52 OFFCURVE",
"206 83 CURVE SMOOTH",
"206 331 OFFCURVE",
"263 573 OFFCURVE",
"263 683 CURVE SMOOTH",
"263 768 OFFCURVE",
"209 819 OFFCURVE",
"150 826 CURVE",
"159 806 OFFCURVE",
"164 767 OFFCURVE",
"164 716 CURVE SMOOTH",
"164 493 OFFCURVE",
"97 190 OFFCURVE",
"97 69 CURVE SMOOTH"
);
}
);
width = 621;
},
{
background = {
paths = (
{
closed = 1;
nodes = (
"257 693 LINE",
"298 708 OFFCURVE",
"336 715 OFFCURVE",
"368 715 CURVE SMOOTH",
"476 715 OFFCURVE",
"526 648 OFFCURVE",
"526 570 CURVE SMOOTH",
"526 467 OFFCURVE",
"468 347 OFFCURVE",
"275 347 CURVE",
"278 315 LINE",
"297 312 OFFCURVE",
"314 311 OFFCURVE",
"332 311 CURVE SMOOTH",
"519 311 OFFCURVE",
"619 458 OFFCURVE",
"619 589 CURVE SMOOTH",
"619 694 OFFCURVE",
"552 788 OFFCURVE",
"413 788 CURVE SMOOTH",
"362 788 OFFCURVE",
"298 775 OFFCURVE",
"241 741 CURVE"
);
},
{
closed = 1;
nodes = (
"97 7 OFFCURVE",
"128 -17 OFFCURVE",
"186 -17 CURVE SMOOTH",
"193 -17 OFFCURVE",
"200 -16 OFFCURVE",
"212 -15 CURVE",
"206 20 OFFCURVE",
"206 52 OFFCURVE",
"206 83 CURVE SMOOTH",
"206 331 OFFCURVE",
"263 573 OFFCURVE",
"263 683 CURVE SMOOTH",
"263 768 OFFCURVE",
"209 819 OFFCURVE",
"150 826 CURVE",
"159 806 OFFCURVE",
"164 767 OFFCURVE",
"164 716 CURVE SMOOTH",
"164 493 OFFCURVE",
"97 190 OFFCURVE",
"97 69 CURVE SMOOTH"
);
}
);
};
layerId = UUID1;
paths = (
{
closed = 1;
nodes = (
"274 683 LINE",
"310 698 OFFCURVE",
"343 705 OFFCURVE",
"371 705 CURVE SMOOTH",
"465 705 OFFCURVE",
"509 642 OFFCURVE",
"509 570 CURVE SMOOTH",
"509 472 OFFCURVE",
"455 357 OFFCURVE",
"275 357 CURVE",
"278 315 LINE",
"298 312 OFFCURVE",
"316 311 OFFCURVE",
"335 311 CURVE SMOOTH",
"531 311 OFFCURVE",
"636 458 OFFCURVE",
"636 589 CURVE SMOOTH",
"636 694 OFFCURVE",
"569 788 OFFCURVE",
"430 788 CURVE SMOOTH",
"379 788 OFFCURVE",
"315 775 OFFCURVE",
"258 741 CURVE"
);
},
{
closed = 1;
nodes = (
"80 7 OFFCURVE",
"111 -17 OFFCURVE",
"187 -17 CURVE SMOOTH",
"199 -17 OFFCURVE",
"213 -16 OFFCURVE",
"229 -15 CURVE",
"223 20 OFFCURVE",
"223 52 OFFCURVE",
"223 83 CURVE SMOOTH",
"223 331 OFFCURVE",
"280 573 OFFCURVE",
"280 683 CURVE SMOOTH",
"280 768 OFFCURVE",
"226 819 OFFCURVE",
"133 826 CURVE",
"142 806 OFFCURVE",
"147 767 OFFCURVE",
"147 716 CURVE SMOOTH",
"147 493 OFFCURVE",
"80 190 OFFCURVE",
"80 69 CURVE SMOOTH"
);
}
);
width = 621;
},
{
background = {
paths = (
{
closed = 1;
nodes = (
"272 693 LINE",
"313 708 OFFCURVE",
"351 715 OFFCURVE",
"383 715 CURVE SMOOTH",
"491 715 OFFCURVE",
"541 648 OFFCURVE",
"541 570 CURVE SMOOTH",
"541 467 OFFCURVE",
"483 347 OFFCURVE",
"290 347 CURVE",
"293 315 LINE",
"312 312 OFFCURVE",
"329 311 OFFCURVE",
"347 311 CURVE SMOOTH",
"534 311 OFFCURVE",
"634 458 OFFCURVE",
"634 589 CURVE SMOOTH",
"634 694 OFFCURVE",
"567 788 OFFCURVE",
"428 788 CURVE SMOOTH",
"377 788 OFFCURVE",
"313 775 OFFCURVE",
"256 741 CURVE"
);
},
{
closed = 1;
nodes = (
"112 7 OFFCURVE",
"143 -17 OFFCURVE",
"201 -17 CURVE SMOOTH",
"208 -17 OFFCURVE",
"215 -16 OFFCURVE",
"227 -15 CURVE",
"221 20 OFFCURVE",
"221 52 OFFCURVE",
"221 83 CURVE SMOOTH",
"221 331 OFFCURVE",
"278 573 OFFCURVE",
"278 683 CURVE SMOOTH",
"278 768 OFFCURVE",
"224 819 OFFCURVE",
"165 826 CURVE",
"174 806 OFFCURVE",
"179 767 OFFCURVE",
"179 716 CURVE SMOOTH",
"179 493 OFFCURVE",
"112 190 OFFCURVE",
"112 69 CURVE SMOOTH"
);
}
);
};
layerId = "BF8042A9-B348-454C-A59B-E2F834F64B4C";
paths = (
{
closed = 1;
nodes = (
"287 667 LINE",
"320 681 OFFCURVE",
"357 689 OFFCURVE",
"388 689 CURVE SMOOTH",
"454 689 OFFCURVE",
"497 634 OFFCURVE",
"497 550 CURVE SMOOTH",
"497 426 OFFCURVE",
"414 343 OFFCURVE",
"290 343 CURVE",
"293 285 LINE",
"307 282 OFFCURVE",
"325 281 OFFCURVE",
"353 281 CURVE SMOOTH",
"540 281 OFFCURVE",
"685 409 OFFCURVE",
"685 575 CURVE SMOOTH",
"685 702 OFFCURVE",
"599 788 OFFCURVE",
"473 788 CURVE SMOOTH",
"404 788 OFFCURVE",
"330 771 OFFCURVE",
"271 741 CURVE"
);
},
{
closed = 1;
nodes = (
"67 5 OFFCURVE",
"99 -17 OFFCURVE",
"201 -17 CURVE SMOOTH",
"218 -17 OFFCURVE",
"240 -16 OFFCURVE",
"272 -13 CURVE",
"268 8 OFFCURVE",
"266 37 OFFCURVE",
"266 72 CURVE SMOOTH",
"266 339 OFFCURVE",
"323 576 OFFCURVE",
"323 676 CURVE SMOOTH",
"323 775 OFFCURVE",
"264 818 OFFCURVE",
"120 826 CURVE",
"130 806 OFFCURVE",
"134 773 OFFCURVE",
"134 713 CURVE SMOOTH",
"134 501 OFFCURVE",
"67 181 OFFCURVE",
"67 76 CURVE SMOOTH"
);
}
);
width = 690;
}
);
unicode = 0050;
},
{
glyphname = Thorn;
lastChange = "2017-12-05 20:42:37 +0000";
layers = (
{
background = {
paths = (
{
closed = 1;
nodes = (
"80 7 OFFCURVE",
"111 -17 OFFCURVE",
"187 -17 CURVE SMOOTH",
"199 -17 OFFCURVE",
"213 -16 OFFCURVE",
"229 -15 CURVE",
"223 20 OFFCURVE",
"223 52 OFFCURVE",
"223 83 CURVE SMOOTH",
"223 250 OFFCURVE",
"249 415 OFFCURVE",
"266 538 CURVE",
"301 553 OFFCURVE",
"334 560 OFFCURVE",
"362 560 CURVE SMOOTH",
"456 559 OFFCURVE",
"500 497 OFFCURVE",
"500 425 CURVE SMOOTH",
"500 322 OFFCURVE",
"416 212 OFFCURVE",
"266 212 CURVE",
"269 170 LINE",
"289 167 OFFCURVE",
"307 166 OFFCURVE",
"326 166 CURVE SMOOTH",
"522 166 OFFCURVE",
"627 313 OFFCURVE",
"627 444 CURVE SMOOTH",
"627 549 OFFCURVE",
"560 643 OFFCURVE",
"421 643 CURVE SMOOTH",
"377 643 OFFCURVE",
"325 633 OFFCURVE",
"275 610 CURVE",
"278 638 OFFCURVE",
"280 663 OFFCURVE",
"280 683 CURVE SMOOTH",
"280 768 OFFCURVE",
"226 819 OFFCURVE",
"133 826 CURVE",
"142 806 OFFCURVE",
"147 767 OFFCURVE",
"147 716 CURVE SMOOTH",
"147 493 OFFCURVE",
"80 190 OFFCURVE",
"80 69 CURVE SMOOTH"
);
}
);
};
hints = (
{
place = "{97, 109}";
},
{
place = "{164, 42}";
},
{
place = "{510, 102}";
},
{
place = "{164, 99}";
},
{
horizontal = 1;
place = "{570, 73}";
},
{
horizontal = 1;
place = "{166, 36}";
},
{
horizontal = 1;
place = "{-17, 21}";
target = up;
type = BottomGhost;
},
{
horizontal = 1;
place = "{826, -20}";
target = down;
type = TopGhost;
}
);
layerId = UUID0;
paths = (
{
closed = 1;
nodes = (
"248 548 LINE",
"288 563 OFFCURVE",
"325 570 OFFCURVE",
"356 570 CURVE SMOOTH",
"461 570 OFFCURVE",
"510 503 OFFCURVE",
"510 425 CURVE SMOOTH",
"510 322 OFFCURVE",
"454 202 OFFCURVE",
"266 202 CURVE",
"269 170 LINE",
"288 167 OFFCURVE",
"305 166 OFFCURVE",
"324 166 CURVE SMOOTH",
"511 166 OFFCURVE",
"612 313 OFFCURVE",
"612 444 CURVE SMOOTH",
"612 549 OFFCURVE",
"545 643 OFFCURVE",
"405 643 CURVE SMOOTH",
"354 643 OFFCURVE",
"289 630 OFFCURVE",
"232 596 CURVE"
);
},
{
closed = 1;
nodes = (
"97 7 OFFCURVE",
"128 -17 OFFCURVE",
"186 -17 CURVE SMOOTH",
"193 -17 OFFCURVE",
"200 -16 OFFCURVE",
"212 -15 CURVE",
"206 20 OFFCURVE",
"206 52 OFFCURVE",
"206 83 CURVE SMOOTH",
"206 331 OFFCURVE",
"263 573 OFFCURVE",
"263 683 CURVE SMOOTH",
"263 768 OFFCURVE",
"209 819 OFFCURVE",
"150 826 CURVE",
"159 806 OFFCURVE",
"164 767 OFFCURVE",
"164 716 CURVE SMOOTH",
"164 493 OFFCURVE",
"97 190 OFFCURVE",
"97 69 CURVE SMOOTH"
);
}
);
width = 621;
},
{
background = {
paths = (
{
closed = 1;
nodes = (
"80 7 OFFCURVE",
"111 -17 OFFCURVE",
"187 -17 CURVE SMOOTH",
"199 -17 OFFCURVE",
"213 -16 OFFCURVE",
"229 -15 CURVE",
"223 20 OFFCURVE",
"223 52 OFFCURVE",
"223 83 CURVE SMOOTH",
"223 250 OFFCURVE",
"249 415 OFFCURVE",
"266 538 CURVE",
"301 553 OFFCURVE",
"334 560 OFFCURVE",
"362 560 CURVE SMOOTH",
"456 559 OFFCURVE",
"500 497 OFFCURVE",
"500 425 CURVE SMOOTH",
"500 322 OFFCURVE",
"416 212 OFFCURVE",
"266 212 CURVE",
"269 170 LINE",
"289 167 OFFCURVE",
"307 166 OFFCURVE",
"326 166 CURVE SMOOTH",
"522 166 OFFCURVE",
"627 313 OFFCURVE",
"627 444 CURVE SMOOTH",
"627 549 OFFCURVE",
"560 643 OFFCURVE",
"421 643 CURVE SMOOTH",
"377 643 OFFCURVE",
"325 633 OFFCURVE",
"275 610 CURVE",
"278 638 OFFCURVE",
"280 663 OFFCURVE",
"280 683 CURVE SMOOTH",
"280 768 OFFCURVE",
"226 819 OFFCURVE",
"133 826 CURVE",
"142 806 OFFCURVE",
"147 767 OFFCURVE",
"147 716 CURVE SMOOTH",
"147 493 OFFCURVE",
"80 190 OFFCURVE",
"80 69 CURVE SMOOTH"
);
}
);
};
layerId = UUID1;
paths = (
{
closed = 1;
nodes = (
"265 538 LINE",
"301 553 OFFCURVE",
"334 560 OFFCURVE",
"362 560 CURVE SMOOTH",
"456 560 OFFCURVE",
"500 497 OFFCURVE",
"500 425 CURVE SMOOTH",
"500 327 OFFCURVE",
"446 212 OFFCURVE",
"266 212 CURVE",
"269 170 LINE",
"289 167 OFFCURVE",
"307 166 OFFCURVE",
"326 166 CURVE SMOOTH",
"522 166 OFFCURVE",
"627 313 OFFCURVE",
"627 444 CURVE SMOOTH",
"627 549 OFFCURVE",
"560 643 OFFCURVE",
"421 643 CURVE SMOOTH",
"370 643 OFFCURVE",
"306 630 OFFCURVE",
"249 596 CURVE"
);
},
{
closed = 1;
nodes = (
"80 7 OFFCURVE",
"111 -17 OFFCURVE",
"187 -17 CURVE SMOOTH",
"199 -17 OFFCURVE",
"213 -16 OFFCURVE",
"229 -15 CURVE",
"223 20 OFFCURVE",
"223 52 OFFCURVE",
"223 83 CURVE SMOOTH",
"223 331 OFFCURVE",
"280 573 OFFCURVE",
"280 683 CURVE SMOOTH",
"280 768 OFFCURVE",
"226 819 OFFCURVE",
"133 826 CURVE",
"142 806 OFFCURVE",
"147 767 OFFCURVE",
"147 716 CURVE SMOOTH",
"147 493 OFFCURVE",
"80 190 OFFCURVE",
"80 69 CURVE SMOOTH"
);
}
);
width = 621;
},
{
background = {
paths = (
{
closed = 1;
nodes = (
"80 7 OFFCURVE",
"111 -17 OFFCURVE",
"187 -17 CURVE SMOOTH",
"199 -17 OFFCURVE",
"213 -16 OFFCURVE",
"229 -15 CURVE",
"223 20 OFFCURVE",
"223 52 OFFCURVE",
"223 83 CURVE SMOOTH",
"223 250 OFFCURVE",
"249 415 OFFCURVE",
"266 538 CURVE",
"301 553 OFFCURVE",
"334 560 OFFCURVE",
"362 560 CURVE SMOOTH",
"456 559 OFFCURVE",
"500 497 OFFCURVE",
"500 425 CURVE SMOOTH",
"500 322 OFFCURVE",
"416 212 OFFCURVE",
"266 212 CURVE",
"269 170 LINE",
"289 167 OFFCURVE",
"307 166 OFFCURVE",
"326 166 CURVE SMOOTH",
"522 166 OFFCURVE",
"627 313 OFFCURVE",
"627 444 CURVE SMOOTH",
"627 549 OFFCURVE",
"560 643 OFFCURVE",
"421 643 CURVE SMOOTH",
"377 643 OFFCURVE",
"325 633 OFFCURVE",
"275 610 CURVE",
"278 638 OFFCURVE",
"280 663 OFFCURVE",
"280 683 CURVE SMOOTH",
"280 768 OFFCURVE",
"226 819 OFFCURVE",
"133 826 CURVE",
"142 806 OFFCURVE",
"147 767 OFFCURVE",
"147 716 CURVE SMOOTH",
"147 493 OFFCURVE",
"80 190 OFFCURVE",
"80 69 CURVE SMOOTH"
);
}
);
};
layerId = "BF8042A9-B348-454C-A59B-E2F834F64B4C";
paths = (
{
closed = 1;
nodes = (
"287 557 LINE",
"320 571 OFFCURVE",
"357 579 OFFCURVE",
"388 579 CURVE SMOOTH",
"454 579 OFFCURVE",
"497 524 OFFCURVE",
"497 440 CURVE SMOOTH",
"497 316 OFFCURVE",
"414 233 OFFCURVE",
"290 233 CURVE",
"293 175 LINE",
"307 172 OFFCURVE",
"325 171 OFFCURVE",
"353 171 CURVE SMOOTH",
"540 171 OFFCURVE",
"685 299 OFFCURVE",
"685 465 CURVE SMOOTH",
"685 592 OFFCURVE",
"599 678 OFFCURVE",
"473 678 CURVE SMOOTH",
"404 678 OFFCURVE",
"330 661 OFFCURVE",
"271 631 CURVE"
);
},
{
closed = 1;
nodes = (
"67 5 OFFCURVE",
"99 -17 OFFCURVE",
"201 -17 CURVE SMOOTH",
"218 -17 OFFCURVE",
"240 -16 OFFCURVE",
"272 -13 CURVE",
"268 8 OFFCURVE",
"266 37 OFFCURVE",
"266 72 CURVE SMOOTH",
"266 339 OFFCURVE",
"323 576 OFFCURVE",
"323 676 CURVE SMOOTH",
"323 775 OFFCURVE",
"264 818 OFFCURVE",
"120 826 CURVE",
"130 806 OFFCURVE",
"134 773 OFFCURVE",
"134 713 CURVE SMOOTH",
"134 501 OFFCURVE",
"67 181 OFFCURVE",
"67 76 CURVE SMOOTH"
);
}
);
width = 692;
}
);
leftMetricsKey = P;
unicode = 00DE;
},
{
glyphname = Q;
lastChange = "2017-12-05 20:42:37 +0000";
layers = (
{
background = {
paths = (
{
closed = 1;
nodes = (
"382 -197 OFFCURVE",
"580 -312 OFFCURVE",
"651 -312 CURVE SMOOTH",
"705 -312 OFFCURVE",
"756 -272 OFFCURVE",
"789 -195 CURVE",
"703 -195 OFFCURVE",
"425 -109 OFFCURVE",
"260 -57 CURVE SMOOTH",
"232 -48 OFFCURVE",
"208 -46 OFFCURVE",
"186 -46 CURVE SMOOTH",
"103 -46 OFFCURVE",
"66 -97 OFFCURVE",
"53 -119 CURVE",
"117 -121 OFFCURVE",
"187 -138 OFFCURVE",
"247 -156 CURVE SMOOTH"
);
},
{
closed = 1;
nodes = (
"177 -96 LINE",
"631 -55 OFFCURVE",
"752 243 OFFCURVE",
"752 475 CURVE SMOOTH",
"752 696 OFFCURVE",
"627 800 OFFCURVE",
"491 800 CURVE SMOOTH",
"187 800 OFFCURVE",
"67 535 OFFCURVE",
"67 346 CURVE SMOOTH",
"67 159 OFFCURVE",
"184 69 OFFCURVE",
"295 69 CURVE SMOOTH",
"394 69 OFFCURVE",
"503 141 OFFCURVE",
"503 279 CURVE SMOOTH",
"503 373 OFFCURVE",
"427 404 OFFCURVE",
"377 404 CURVE SMOOTH",
"340 404 OFFCURVE",
"309 392 OFFCURVE",
"309 392 CURVE",
"309 392 OFFCURVE",
"359 356 OFFCURVE",
"359 277 CURVE SMOOTH",
"359 198 OFFCURVE",
"326 163 OFFCURVE",
"285 163 CURVE SMOOTH",
"234 163 OFFCURVE",
"208 223 OFFCURVE",
"208 341 CURVE SMOOTH",
"208 520 OFFCURVE",
"310 717 OFFCURVE",
"442 717 CURVE SMOOTH",
"557 717 OFFCURVE",
"604 588 OFFCURVE",
"604 437 CURVE SMOOTH",
"604 257 OFFCURVE",
"515 -7 OFFCURVE",
"187 -46 CURVE"
);
}
);
};
guideLines = (
{
angle = 186.3046;
position = "{540, -7}";
}
);
hints = (
{
place = "{82, 100}";
},
{
place = "{379, 109}";
},
{
place = "{634, 103}";
},
{
horizontal = 1;
place = "{-312, 102}";
},
{
horizontal = 1;
place = "{-104, 58}";
},
{
horizontal = 1;
place = "{79, 64}";
},
{
horizontal = 1;
place = "{732, 68}";
}
);
layerId = UUID0;
paths = (
{
closed = 1;
nodes = (
"177 -96 LINE",
"523 -57 OFFCURVE",
"737 157 OFFCURVE",
"737 462 CURVE SMOOTH",
"737 675 OFFCURVE",
"634 800 OFFCURVE",
"458 800 CURVE SMOOTH",
"249 800 OFFCURVE",
"82 599 OFFCURVE",
"82 347 CURVE SMOOTH",
"82 187 OFFCURVE",
"168 79 OFFCURVE",
"296 79 CURVE SMOOTH",
"405 79 OFFCURVE",
"488 163 OFFCURVE",
"488 271 CURVE SMOOTH",
"488 342 OFFCURVE",
"446 389 OFFCURVE",
"384 389 CURVE SMOOTH",
"367 389 OFFCURVE",
"345 384 OFFCURVE",
"329 377 CURVE",
"358 357 OFFCURVE",
"379 306 OFFCURVE",
"379 254 CURVE SMOOTH",
"379 184 OFFCURVE",
"346 143 OFFCURVE",
"290 143 CURVE SMOOTH",
"219 143 OFFCURVE",
"182 207 OFFCURVE",
"182 332 CURVE SMOOTH",
"182 554 OFFCURVE",
"299 732 OFFCURVE",
"446 732 CURVE SMOOTH",
"561 732 OFFCURVE",
"634 621 OFFCURVE",
"634 447 CURVE SMOOTH",
"634 175 OFFCURVE",
"462 -14 OFFCURVE",
"187 -46 CURVE"
);
},
{
closed = 1;
nodes = (
"700 -312 OFFCURVE",
"748 -271 OFFCURVE",
"774 -210 CURVE",
"597 -201 OFFCURVE",
"430 -125 OFFCURVE",
"270 -67 CURVE",
"187 -46 LINE",
"133 -52 OFFCURVE",
"99 -70 OFFCURVE",
"78 -104 CURVE",
"129 -106 OFFCURVE",
"182 -118 OFFCURVE",
"257 -144 CURVE SMOOTH",
"424 -204 OFFCURVE",
"579 -312 OFFCURVE",
"654 -312 CURVE SMOOTH"
);
}
);
width = 787;
},
{
background = {
paths = (
{
closed = 1;
nodes = (
"382 -197 OFFCURVE",
"580 -312 OFFCURVE",
"651 -312 CURVE SMOOTH",
"705 -312 OFFCURVE",
"756 -272 OFFCURVE",
"789 -195 CURVE",
"703 -195 OFFCURVE",
"425 -109 OFFCURVE",
"260 -57 CURVE SMOOTH",
"232 -48 OFFCURVE",
"208 -46 OFFCURVE",
"186 -46 CURVE SMOOTH",
"103 -46 OFFCURVE",
"66 -97 OFFCURVE",
"53 -119 CURVE",
"117 -121 OFFCURVE",
"187 -138 OFFCURVE",
"247 -156 CURVE SMOOTH"
);
},
{
closed = 1;
nodes = (
"177 -96 LINE",
"631 -55 OFFCURVE",
"752 243 OFFCURVE",
"752 475 CURVE SMOOTH",
"752 696 OFFCURVE",
"627 800 OFFCURVE",
"491 800 CURVE SMOOTH",
"187 800 OFFCURVE",
"67 535 OFFCURVE",
"67 346 CURVE SMOOTH",
"67 159 OFFCURVE",
"184 69 OFFCURVE",
"295 69 CURVE SMOOTH",
"394 69 OFFCURVE",
"503 141 OFFCURVE",
"503 279 CURVE SMOOTH",
"503 373 OFFCURVE",
"427 404 OFFCURVE",
"377 404 CURVE SMOOTH",
"340 404 OFFCURVE",
"309 392 OFFCURVE",
"309 392 CURVE",
"309 392 OFFCURVE",
"359 356 OFFCURVE",
"359 277 CURVE SMOOTH",
"359 198 OFFCURVE",
"326 163 OFFCURVE",
"285 163 CURVE SMOOTH",
"234 163 OFFCURVE",
"208 223 OFFCURVE",
"208 341 CURVE SMOOTH",
"208 520 OFFCURVE",
"310 717 OFFCURVE",
"442 717 CURVE SMOOTH",
"557 717 OFFCURVE",
"604 588 OFFCURVE",
"604 437 CURVE SMOOTH",
"604 257 OFFCURVE",
"515 -7 OFFCURVE",
"187 -46 CURVE"
);
}
);
};
guideLines = (
{
angle = 6.8164;
position = "{187, -35}";
}
);
layerId = UUID1;
paths = (
{
closed = 1;
nodes = (
"177 -85 LINE",
"525 -57 OFFCURVE",
"752 161 OFFCURVE",
"752 465 CURVE SMOOTH",
"752 677 OFFCURVE",
"644 800 OFFCURVE",
"460 800 CURVE SMOOTH",
"239 800 OFFCURVE",
"67 606 OFFCURVE",
"67 356 CURVE SMOOTH",
"67 192 OFFCURVE",
"155 85 OFFCURVE",
"289 85 CURVE SMOOTH",
"406 85 OFFCURVE",
"497 172 OFFCURVE",
"497 286 CURVE SMOOTH",
"497 364 OFFCURVE",
"448 416 OFFCURVE",
"375 416 CURVE SMOOTH",
"356 416 OFFCURVE",
"329 411 OFFCURVE",
"309 404 CURVE",
"338 385 OFFCURVE",
"359 335 OFFCURVE",
"359 284 CURVE SMOOTH",
"359 217 OFFCURVE",
"330 175 OFFCURVE",
"284 175 CURVE SMOOTH",
"231 175 OFFCURVE",
"202 234 OFFCURVE",
"202 343 CURVE SMOOTH",
"202 550 OFFCURVE",
"308 717 OFFCURVE",
"440 717 CURVE SMOOTH",
"543 717 OFFCURVE",
"604 613 OFFCURVE",
"604 438 CURVE SMOOTH",
"604 170 OFFCURVE",
"451 -3 OFFCURVE",
"187 -35 CURVE"
);
},
{
closed = 1;
nodes = (
"707 -301 OFFCURVE",
"759 -255 OFFCURVE",
"789 -184 CURVE",
"729 -184 OFFCURVE",
"549 -137 OFFCURVE",
"260 -46 CURVE",
"187 -35 LINE",
"117 -43 OFFCURVE",
"75 -66 OFFCURVE",
"53 -108 CURVE",
"100 -109 OFFCURVE",
"173 -123 OFFCURVE",
"247 -145 CURVE SMOOTH",
"397 -192 OFFCURVE",
"576 -301 OFFCURVE",
"655 -301 CURVE SMOOTH"
);
}
);
width = 787;
},
{
background = {
paths = (
{
closed = 1;
nodes = (
"336 -197 OFFCURVE",
"534 -312 OFFCURVE",
"605 -312 CURVE SMOOTH",
"659 -312 OFFCURVE",
"710 -272 OFFCURVE",
"743 -195 CURVE",
"657 -195 OFFCURVE",
"379 -109 OFFCURVE",
"214 -57 CURVE SMOOTH",
"186 -48 OFFCURVE",
"162 -46 OFFCURVE",
"140 -46 CURVE SMOOTH",
"57 -46 OFFCURVE",
"20 -97 OFFCURVE",
"7 -119 CURVE",
"71 -121 OFFCURVE",
"141 -138 OFFCURVE",
"201 -156 CURVE SMOOTH"
);
},
{
closed = 1;
nodes = (
"131 -96 LINE",
"585 -55 OFFCURVE",
"706 243 OFFCURVE",
"706 475 CURVE SMOOTH",
"706 696 OFFCURVE",
"581 800 OFFCURVE",
"445 800 CURVE SMOOTH",
"141 800 OFFCURVE",
"21 535 OFFCURVE",
"21 346 CURVE SMOOTH",
"21 159 OFFCURVE",
"138 69 OFFCURVE",
"249 69 CURVE SMOOTH",
"348 69 OFFCURVE",
"457 141 OFFCURVE",
"457 279 CURVE SMOOTH",
"457 373 OFFCURVE",
"381 404 OFFCURVE",
"331 404 CURVE SMOOTH",
"294 404 OFFCURVE",
"263 392 OFFCURVE",
"263 392 CURVE",
"263 392 OFFCURVE",
"313 356 OFFCURVE",
"313 277 CURVE SMOOTH",
"313 198 OFFCURVE",
"280 163 OFFCURVE",
"239 163 CURVE SMOOTH",
"188 163 OFFCURVE",
"162 223 OFFCURVE",
"162 341 CURVE SMOOTH",
"162 520 OFFCURVE",
"264 717 OFFCURVE",
"396 717 CURVE SMOOTH",
"511 717 OFFCURVE",
"558 588 OFFCURVE",
"558 437 CURVE SMOOTH",
"558 257 OFFCURVE",
"469 -7 OFFCURVE",
"141 -46 CURVE"
);
}
);
};
guideLines = (
{
angle = 7.4606;
position = "{173, -6}";
}
);
layerId = "BF8042A9-B348-454C-A59B-E2F834F64B4C";
paths = (
{
closed = 1;
nodes = (
"163 -56 LINE",
"516 -40 OFFCURVE",
"758 180 OFFCURVE",
"758 485 CURVE SMOOTH",
"758 687 OFFCURVE",
"644 806 OFFCURVE",
"449 806 CURVE SMOOTH",
"212 806 OFFCURVE",
"34 625 OFFCURVE",
"34 384 CURVE SMOOTH",
"34 215 OFFCURVE",
"123 108 OFFCURVE",
"265 108 CURVE SMOOTH",
"395 108 OFFCURVE",
"494 200 OFFCURVE",
"494 320 CURVE SMOOTH",
"494 407 OFFCURVE",
"435 465 OFFCURVE",
"347 465 CURVE SMOOTH",
"326 465 OFFCURVE",
"295 460 OFFCURVE",
"269 453 CURVE",
"298 434 OFFCURVE",
"319 385 OFFCURVE",
"319 335 CURVE SMOOTH",
"319 277 OFFCURVE",
"295 231 OFFCURVE",
"264 231 CURVE SMOOTH",
"232 231 OFFCURVE",
"213 284 OFFCURVE",
"213 371 CURVE SMOOTH",
"213 564 OFFCURVE",
"305 718 OFFCURVE",
"420 718 CURVE SMOOTH",
"510 718 OFFCURVE",
"558 622 OFFCURVE",
"558 443 CURVE SMOOTH",
"558 178 OFFCURVE",
"427 26 OFFCURVE",
"173 -6 CURVE"
);
},
{
closed = 1;
nodes = (
"700 -264 OFFCURVE",
"761 -210 OFFCURVE",
"795 -128 CURVE",
"663 -128 OFFCURVE",
"409 -68 OFFCURVE",
"236 -3 CURVE",
"173 -6 LINE",
"112 -16 OFFCURVE",
"66 -47 OFFCURVE",
"48 -90 CURVE",
"96 -92 OFFCURVE",
"164 -105 OFFCURVE",
"220 -123 CURVE SMOOTH",
"372 -163 OFFCURVE",
"560 -264 OFFCURVE",
"641 -264 CURVE SMOOTH"
);
}
);
width = 793;
}
);
leftKerningGroup = C;
rightKerningGroup = D;
unicode = 0051;
},
{
glyphname = R;
lastChange = "2017-12-05 20:42:37 +0000";
layers = (
{
anchors = (
{
name = bottom;
position = "{334, 0}";
},
{
name = top;
position = "{398, 847}";
}
);
background = {
paths = (
{
closed = 1;
nodes = (
"462 714 OFFCURVE",
"507 657 OFFCURVE",
"507 591 CURVE SMOOTH",
"507 489 OFFCURVE",
"430 388 OFFCURVE",
"272 382 CURVE",
"275 346 LINE",
"520 346 OFFCURVE",
"609 478 OFFCURVE",
"609 600 CURVE SMOOTH",
"609 693 OFFCURVE",
"535 787 OFFCURVE",
"410 787 CURVE SMOOTH",
"359 787 OFFCURVE",
"294 774 OFFCURVE",
"237 740 CURVE",
"253 692 LINE",
"294 707 OFFCURVE",
"338 714 OFFCURVE",
"370 714 CURVE SMOOTH"
);
},
{
closed = 1;
nodes = (
"92 7 OFFCURVE",
"123 -17 OFFCURVE",
"181 -17 CURVE SMOOTH",
"188 -17 OFFCURVE",
"195 -16 OFFCURVE",
"207 -15 CURVE",
"201 20 OFFCURVE",
"201 52 OFFCURVE",
"201 83 CURVE SMOOTH",
"201 335 OFFCURVE",
"258 581 OFFCURVE",
"258 693 CURVE SMOOTH",
"258 768 OFFCURVE",
"218 819 OFFCURVE",
"145 826 CURVE",
"154 806 OFFCURVE",
"159 767 OFFCURVE",
"159 716 CURVE SMOOTH",
"159 493 OFFCURVE",
"92 190 OFFCURVE",
"92 69 CURVE SMOOTH"
);
}
);
};
hints = (
{
place = "{97, 109}";
},
{
place = "{164, 42}";
},
{
place = "{519, 102}";
},
{
place = "{164, 99}";
},
{
horizontal = 1;
place = "{715, 73}";
},
{
horizontal = 1;
place = "{311, 36}";
},
{
horizontal = 1;
place = "{-48, 21}";
target = up;
type = BottomGhost;
},
{
horizontal = 1;
place = "{-17, 21}";
target = up;
type = BottomGhost;
},
{
horizontal = 1;
place = "{826, -20}";
target = down;
type = TopGhost;
}
);
layerId = UUID0;
paths = (
{
closed = 1;
nodes = (
"336 330 LINE",
"393 157 OFFCURVE",
"478 -48 OFFCURVE",
"605 -48 CURVE SMOOTH",
"624 -48 OFFCURVE",
"643 -45 OFFCURVE",
"658 -38 CURVE",
"569 39 OFFCURVE",
"488 154 OFFCURVE",
"430 357 CURVE"
);
},
{
closed = 1;
nodes = (
"257 693 LINE",
"297 708 OFFCURVE",
"334 715 OFFCURVE",
"365 715 CURVE SMOOTH",
"470 715 OFFCURVE",
"519 648 OFFCURVE",
"519 570 CURVE SMOOTH",
"519 467 OFFCURVE",
"463 347 OFFCURVE",
"275 347 CURVE",
"278 315 LINE",
"297 312 OFFCURVE",
"314 311 OFFCURVE",
"333 311 CURVE SMOOTH",
"520 311 OFFCURVE",
"621 458 OFFCURVE",
"621 589 CURVE SMOOTH",
"621 694 OFFCURVE",
"554 788 OFFCURVE",
"414 788 CURVE SMOOTH",
"363 788 OFFCURVE",
"298 775 OFFCURVE",
"241 741 CURVE"
);
},
{
closed = 1;
nodes = (
"97 7 OFFCURVE",
"128 -17 OFFCURVE",
"186 -17 CURVE SMOOTH",
"193 -17 OFFCURVE",
"200 -16 OFFCURVE",
"212 -15 CURVE",
"206 20 OFFCURVE",
"206 52 OFFCURVE",
"206 83 CURVE SMOOTH",
"206 331 OFFCURVE",
"263 573 OFFCURVE",
"263 683 CURVE SMOOTH",
"263 768 OFFCURVE",
"209 819 OFFCURVE",
"150 826 CURVE",
"159 806 OFFCURVE",
"164 767 OFFCURVE",
"164 716 CURVE SMOOTH",
"164 493 OFFCURVE",
"97 190 OFFCURVE",
"97 69 CURVE SMOOTH"
);
}
);
width = 675;
},
{
anchors = (
{
name = bottom;
position = "{334, 0}";
},
{
name = top;
position = "{398, 847}";
}
);
background = {
paths = (
{
closed = 1;
nodes = (
"454 704 OFFCURVE",
"495 658 OFFCURVE",
"495 592 CURVE SMOOTH",
"495 499 OFFCURVE",
"422 398 OFFCURVE",
"272 392 CURVE",
"275 346 LINE",
"567 346 OFFCURVE",
"624 510 OFFCURVE",
"624 610 CURVE SMOOTH",
"624 703 OFFCURVE",
"550 787 OFFCURVE",
"426 787 CURVE SMOOTH",
"375 787 OFFCURVE",
"311 774 OFFCURVE",
"254 740 CURVE",
"270 682 LINE",
"306 697 OFFCURVE",
"339 704 OFFCURVE",
"372 704 CURVE SMOOTH"
);
},
{
closed = 1;
nodes = (
"75 7 OFFCURVE",
"106 -17 OFFCURVE",
"182 -17 CURVE SMOOTH",
"194 -17 OFFCURVE",
"208 -16 OFFCURVE",
"224 -15 CURVE",
"218 20 OFFCURVE",
"218 52 OFFCURVE",
"218 83 CURVE SMOOTH",
"218 331 OFFCURVE",
"275 573 OFFCURVE",
"275 683 CURVE SMOOTH",
"275 768 OFFCURVE",
"221 819 OFFCURVE",
"128 826 CURVE",
"137 806 OFFCURVE",
"142 767 OFFCURVE",
"142 716 CURVE SMOOTH",
"142 493 OFFCURVE",
"75 190 OFFCURVE",
"75 69 CURVE SMOOTH"
);
}
);
};
layerId = UUID1;
paths = (
{
closed = 1;
nodes = (
"320 340 LINE",
"381 163 OFFCURVE",
"459 -48 OFFCURVE",
"606 -48 CURVE SMOOTH",
"626 -48 OFFCURVE",
"649 -45 OFFCURVE",
"675 -38 CURVE",
"599 33 OFFCURVE",
"500 195 OFFCURVE",
"449 366 CURVE"
);
},
{
closed = 1;
nodes = (
"274 683 LINE",
"310 698 OFFCURVE",
"343 705 OFFCURVE",
"371 705 CURVE SMOOTH",
"465 705 OFFCURVE",
"509 642 OFFCURVE",
"509 570 CURVE SMOOTH",
"509 472 OFFCURVE",
"455 357 OFFCURVE",
"275 357 CURVE",
"278 315 LINE",
"298 312 OFFCURVE",
"316 311 OFFCURVE",
"335 311 CURVE SMOOTH",
"531 311 OFFCURVE",
"636 458 OFFCURVE",
"636 589 CURVE SMOOTH",
"636 694 OFFCURVE",
"569 788 OFFCURVE",
"430 788 CURVE SMOOTH",
"379 788 OFFCURVE",
"315 775 OFFCURVE",
"258 741 CURVE"
);
},
{
closed = 1;
nodes = (
"80 7 OFFCURVE",
"111 -17 OFFCURVE",
"187 -17 CURVE SMOOTH",
"199 -17 OFFCURVE",
"213 -16 OFFCURVE",
"229 -15 CURVE",
"223 20 OFFCURVE",
"223 52 OFFCURVE",
"223 83 CURVE SMOOTH",
"223 331 OFFCURVE",
"280 573 OFFCURVE",
"280 683 CURVE SMOOTH",
"280 768 OFFCURVE",
"226 819 OFFCURVE",
"133 826 CURVE",
"142 806 OFFCURVE",
"147 767 OFFCURVE",
"147 716 CURVE SMOOTH",
"147 493 OFFCURVE",
"80 190 OFFCURVE",
"80 69 CURVE SMOOTH"
);
}
);
width = 675;
},
{
anchors = (
{
name = bottom;
position = "{374, 0}";
},
{
name = top;
position = "{428, 847}";
}
);
background = {
paths = (
{
closed = 1;
nodes = (
"470 704 OFFCURVE",
"511 658 OFFCURVE",
"511 592 CURVE SMOOTH",
"511 499 OFFCURVE",
"438 398 OFFCURVE",
"288 392 CURVE",
"291 346 LINE",
"583 346 OFFCURVE",
"640 510 OFFCURVE",
"640 610 CURVE SMOOTH",
"640 703 OFFCURVE",
"566 787 OFFCURVE",
"442 787 CURVE SMOOTH",
"391 787 OFFCURVE",
"327 774 OFFCURVE",
"270 740 CURVE",
"286 682 LINE",
"322 697 OFFCURVE",
"355 704 OFFCURVE",
"388 704 CURVE SMOOTH"
);
},
{
closed = 1;
nodes = (
"91 7 OFFCURVE",
"122 -17 OFFCURVE",
"198 -17 CURVE SMOOTH",
"210 -17 OFFCURVE",
"224 -16 OFFCURVE",
"240 -15 CURVE",
"234 20 OFFCURVE",
"234 52 OFFCURVE",
"234 83 CURVE SMOOTH",
"234 331 OFFCURVE",
"291 573 OFFCURVE",
"291 683 CURVE SMOOTH",
"291 768 OFFCURVE",
"237 819 OFFCURVE",
"144 826 CURVE",
"153 806 OFFCURVE",
"158 767 OFFCURVE",
"158 716 CURVE SMOOTH",
"158 493 OFFCURVE",
"91 190 OFFCURVE",
"91 69 CURVE SMOOTH"
);
}
);
};
layerId = "BF8042A9-B348-454C-A59B-E2F834F64B4C";
paths = (
{
closed = 1;
nodes = (
"309 357 LINE",
"375 173 OFFCURVE",
"443 -48 OFFCURVE",
"623 -48 CURVE SMOOTH",
"647 -48 OFFCURVE",
"680 -45 OFFCURVE",
"719 -38 CURVE",
"644 36 OFFCURVE",
"545 210 OFFCURVE",
"493 381 CURVE"
);
},
{
closed = 1;
nodes = (
"298 666 LINE",
"333 681 OFFCURVE",
"366 688 OFFCURVE",
"396 688 CURVE SMOOTH",
"465 688 OFFCURVE",
"508 641 OFFCURVE",
"508 565 CURVE SMOOTH",
"508 450 OFFCURVE",
"421 374 OFFCURVE",
"291 374 CURVE",
"294 315 LINE",
"310 312 OFFCURVE",
"330 311 OFFCURVE",
"354 311 CURVE SMOOTH",
"546 311 OFFCURVE",
"696 433 OFFCURVE",
"696 590 CURVE SMOOTH",
"696 709 OFFCURVE",
"606 788 OFFCURVE",
"472 788 CURVE SMOOTH",
"406 788 OFFCURVE",
"336 771 OFFCURVE",
"282 741 CURVE"
);
},
{
closed = 1;
nodes = (
"67 5 OFFCURVE",
"99 -17 OFFCURVE",
"203 -17 CURVE SMOOTH",
"220 -17 OFFCURVE",
"244 -16 OFFCURVE",
"273 -13 CURVE",
"269 8 OFFCURVE",
"267 37 OFFCURVE",
"267 72 CURVE SMOOTH",
"267 340 OFFCURVE",
"324 576 OFFCURVE",
"324 676 CURVE SMOOTH",
"324 775 OFFCURVE",
"265 819 OFFCURVE",
"120 826 CURVE",
"129 804 OFFCURVE",
"134 766 OFFCURVE",
"134 712 CURVE SMOOTH",
"134 500 OFFCURVE",
"67 181 OFFCURVE",
"67 76 CURVE SMOOTH"
);
}
);
width = 735;
}
);
unicode = 0052;
},
{
glyphname = S;
lastChange = "2017-12-05 20:42:37 +0000";
layers = (
{
anchors = (
{
name = bottom;
position = "{281, 0}";
},
{
name = top;
position = "{355, 847}";
}
);
hints = (
{
place = "{43, 111}";
},
{
place = "{102, 52}";
},
{
place = "{438, 108}";
},
{
place = "{465, 81}";
},
{
place = "{465, 100}";
},
{
place = "{102, 102}";
},
{
horizontal = 1;
place = "{-25, 66}";
},
{
horizontal = 1;
place = "{753, 59}";
}
);
layerId = UUID0;
paths = (
{
closed = 1;
nodes = (
"204 704 OFFCURVE",
"258 753 OFFCURVE",
"338 753 CURVE SMOOTH",
"414 753 OFFCURVE",
"465 709 OFFCURVE",
"465 643 CURVE SMOOTH",
"465 601 OFFCURVE",
"447 558 OFFCURVE",
"416 526 CURVE",
"426 523 OFFCURVE",
"437 522 OFFCURVE",
"451 522 CURVE SMOOTH",
"517 522 OFFCURVE",
"565 572 OFFCURVE",
"565 641 CURVE SMOOTH",
"565 740 OFFCURVE",
"472 812 OFFCURVE",
"343 812 CURVE SMOOTH",
"198 812 OFFCURVE",
"102 732 OFFCURVE",
"102 611 CURVE SMOOTH",
"102 385 OFFCURVE",
"438 331 OFFCURVE",
"438 162 CURVE SMOOTH",
"438 91 OFFCURVE",
"379 41 OFFCURVE",
"296 41 CURVE SMOOTH",
"211 41 OFFCURVE",
"154 94 OFFCURVE",
"154 173 CURVE SMOOTH",
"154 207 OFFCURVE",
"165 241 OFFCURVE",
"185 271 CURVE",
"177 274 OFFCURVE",
"168 275 OFFCURVE",
"158 275 CURVE SMOOTH",
"90 275 OFFCURVE",
"43 226 OFFCURVE",
"43 156 CURVE SMOOTH",
"43 50 OFFCURVE",
"142 -25 OFFCURVE",
"282 -25 CURVE SMOOTH",
"435 -25 OFFCURVE",
"546 63 OFFCURVE",
"546 184 CURVE SMOOTH",
"546 389 OFFCURVE",
"204 444 OFFCURVE",
"204 631 CURVE SMOOTH"
);
}
);
width = 629;
},
{
anchors = (
{
name = bottom;
position = "{282, 0}";
},
{
name = top;
position = "{356, 847}";
}
);
layerId = UUID1;
paths = (
{
closed = 1;
nodes = (
"233 694 OFFCURVE",
"277 738 OFFCURVE",
"342 738 CURVE SMOOTH",
"405 738 OFFCURVE",
"448 695 OFFCURVE",
"448 630 CURVE SMOOTH",
"448 588 OFFCURVE",
"429 543 OFFCURVE",
"398 511 CURVE",
"409 508 OFFCURVE",
"424 507 OFFCURVE",
"441 507 CURVE SMOOTH",
"520 507 OFFCURVE",
"580 565 OFFCURVE",
"580 641 CURVE SMOOTH",
"580 741 OFFCURVE",
"483 812 OFFCURVE",
"347 812 CURVE SMOOTH",
"192 812 OFFCURVE",
"90 729 OFFCURVE",
"90 603 CURVE SMOOTH",
"90 376 OFFCURVE",
"418 318 OFFCURVE",
"418 160 CURVE SMOOTH",
"418 99 OFFCURVE",
"369 56 OFFCURVE",
"300 56 CURVE SMOOTH",
"224 56 OFFCURVE",
"172 109 OFFCURVE",
"172 188 CURVE SMOOTH",
"172 222 OFFCURVE",
"183 256 OFFCURVE",
"203 286 CURVE",
"194 289 OFFCURVE",
"183 290 OFFCURVE",
"169 290 CURVE SMOOTH",
"89 290 OFFCURVE",
"32 234 OFFCURVE",
"32 157 CURVE SMOOTH",
"32 50 OFFCURVE",
"139 -25 OFFCURVE",
"291 -25 CURVE SMOOTH",
"455 -25 OFFCURVE",
"569 62 OFFCURVE",
"569 188 CURVE SMOOTH",
"569 401 OFFCURVE",
"233 448 OFFCURVE",
"233 630 CURVE SMOOTH"
);
}
);
width = 631;
},
{
anchors = (
{
name = bottom;
position = "{303, 0}";
},
{
name = top;
position = "{377, 847}";
}
);
layerId = "BF8042A9-B348-454C-A59B-E2F834F64B4C";
paths = (
{
closed = 1;
nodes = (
"279 684 OFFCURVE",
"318 723 OFFCURVE",
"372 723 CURVE SMOOTH",
"426 723 OFFCURVE",
"463 683 OFFCURVE",
"463 624 CURVE SMOOTH",
"463 587 OFFCURVE",
"448 545 OFFCURVE",
"427 524 CURVE",
"439 521 OFFCURVE",
"458 519 OFFCURVE",
"475 519 CURVE SMOOTH",
"561 519 OFFCURVE",
"625 575 OFFCURVE",
"625 649 CURVE SMOOTH",
"625 741 OFFCURVE",
"525 806 OFFCURVE",
"382 806 CURVE SMOOTH",
"209 806 OFFCURVE",
"90 714 OFFCURVE",
"90 580 CURVE SMOOTH",
"90 359 OFFCURVE",
"413 300 OFFCURVE",
"413 159 CURVE SMOOTH",
"413 107 OFFCURVE",
"365 66 OFFCURVE",
"304 66 CURVE SMOOTH",
"233 66 OFFCURVE",
"187 116 OFFCURVE",
"187 193 CURVE SMOOTH",
"187 233 OFFCURVE",
"200 267 OFFCURVE",
"224 292 CURVE",
"212 294 OFFCURVE",
"195 296 OFFCURVE",
"183 296 CURVE SMOOTH",
"92 296 OFFCURVE",
"21 230 OFFCURVE",
"21 147 CURVE SMOOTH",
"21 45 OFFCURVE",
"136 -25 OFFCURVE",
"304 -25 CURVE SMOOTH",
"490 -25 OFFCURVE",
"615 66 OFFCURVE",
"615 202 CURVE SMOOTH",
"615 424 OFFCURVE",
"279 464 OFFCURVE",
"279 629 CURVE SMOOTH"
);
}
);
width = 673;
}
);
unicode = 0053;
},
{
glyphname = Germandbls;
lastChange = "2017-12-05 20:42:37 +0000";
layers = (
{
background = {
paths = (
{
closed = 1;
nodes = (
"232 546 LINE",
"213 547 OFFCURVE",
"193 548 OFFCURVE",
"174 548 CURVE SMOOTH",
"106 548 OFFCURVE",
"51 537 OFFCURVE",
"51 467 CURVE SMOOTH",
"51 457 OFFCURVE",
"52 446 OFFCURVE",
"53 438 CURVE",
"119 466 OFFCURVE",
"169 473 OFFCURVE",
"224 474 CURVE"
);
}
);
};
hints = (
{
place = "{121, 94}";
},
{
place = "{279, 99}";
},
{
place = "{529, 98}";
},
{
place = "{568, 110}";
},
{
horizontal = 1;
place = "{-33, 52}";
},
{
horizontal = 1;
place = "{406, 49}";
},
{
horizontal = 1;
place = "{801, 59}";
},
{
horizontal = 1;
place = "{-113, 21}";
target = up;
type = BottomGhost;
}
);
layerId = UUID0;
paths = (
{
closed = 1;
nodes = (
"462 426 LINE",
"562 477 OFFCURVE",
"627 566 OFFCURVE",
"627 651 CURVE SMOOTH",
"627 742 OFFCURVE",
"555 806 OFFCURVE",
"452 806 CURVE SMOOTH",
"322 806 OFFCURVE",
"226 704 OFFCURVE",
"178 515 CURVE",
"87 514 OFFCURVE",
"51 491 OFFCURVE",
"51 435 CURVE SMOOTH",
"51 429 OFFCURVE",
"50 442 OFFCURVE",
"53 409 CURVE",
"84 421 OFFCURVE",
"114 429 OFFCURVE",
"161 438 CURVE",
"138 308 OFFCURVE",
"121 166 OFFCURVE",
"121 94 CURVE SMOOTH",
"121 -9 OFFCURVE",
"155 -71 OFFCURVE",
"231 -106 CURVE",
"218 -35 OFFCURVE",
"215 -11 OFFCURVE",
"215 39 CURVE SMOOTH",
"215 142 OFFCURVE",
"226 247 OFFCURVE",
"259 477 CURVE SMOOTH",
"285 651 OFFCURVE",
"348 748 OFFCURVE",
"435 748 CURVE SMOOTH",
"493 748 OFFCURVE",
"529 705 OFFCURVE",
"529 635 CURVE SMOOTH",
"529 555 OFFCURVE",
"473 472 OFFCURVE",
"382 419 CURVE",
"398 384 LINE",
"498 384 OFFCURVE",
"568 311 OFFCURVE",
"568 205 CURVE SMOOTH",
"568 102 OFFCURVE",
"509 20 OFFCURVE",
"434 20 CURVE SMOOTH",
"390 20 OFFCURVE",
"364 46 OFFCURVE",
"364 89 CURVE SMOOTH",
"364 124 OFFCURVE",
"384 180 OFFCURVE",
"405 203 CURVE",
"390 209 OFFCURVE",
"373 213 OFFCURVE",
"359 213 CURVE SMOOTH",
"307 213 OFFCURVE",
"265 162 OFFCURVE",
"265 99 CURVE SMOOTH",
"265 20 OFFCURVE",
"328 -31 OFFCURVE",
"426 -31 CURVE SMOOTH",
"568 -31 OFFCURVE",
"678 77 OFFCURVE",
"678 216 CURVE SMOOTH",
"678 332 OFFCURVE",
"594 412 OFFCURVE",
"463 422 CURVE"
);
}
);
width = 713;
},
{
background = {
paths = (
{
closed = 1;
nodes = (
"231 552 LINE",
"210 553 OFFCURVE",
"189 554 OFFCURVE",
"169 554 CURVE SMOOTH",
"95 554 OFFCURVE",
"35 541 OFFCURVE",
"35 461 CURVE SMOOTH",
"35 450 OFFCURVE",
"36 439 OFFCURVE",
"37 428 CURVE",
"109 460 OFFCURVE",
"163 469 OFFCURVE",
"223 470 CURVE"
);
}
);
};
layerId = UUID1;
paths = (
{
closed = 1;
nodes = (
"492 432 LINE",
"588 481 OFFCURVE",
"652 568 OFFCURVE",
"652 651 CURVE SMOOTH",
"652 743 OFFCURVE",
"575 806 OFFCURVE",
"463 806 CURVE SMOOTH",
"319 806 OFFCURVE",
"216 708 OFFCURVE",
"164 521 CURVE",
"75 520 OFFCURVE",
"35 492 OFFCURVE",
"35 431 CURVE SMOOTH",
"35 425 OFFCURVE",
"36 415 OFFCURVE",
"37 398 CURVE",
"69 412 OFFCURVE",
"99 422 OFFCURVE",
"146 431 CURVE",
"120 284 OFFCURVE",
"106 164 OFFCURVE",
"106 95 CURVE SMOOTH",
"106 -17 OFFCURVE",
"147 -75 OFFCURVE",
"246 -106 CURVE",
"233 -33 OFFCURVE",
"230 -9 OFFCURVE",
"230 39 CURVE SMOOTH",
"230 146 OFFCURVE",
"242 262 OFFCURVE",
"274 478 CURVE SMOOTH",
"298 642 OFFCURVE",
"357 732 OFFCURVE",
"441 732 CURVE SMOOTH",
"495 732 OFFCURVE",
"528 693 OFFCURVE",
"528 630 CURVE SMOOTH",
"528 549 OFFCURVE",
"473 469 OFFCURVE",
"384 419 CURVE",
"400 381 LINE",
"494 381 OFFCURVE",
"553 315 OFFCURVE",
"553 210 CURVE SMOOTH",
"553 110 OFFCURVE",
"501 30 OFFCURVE",
"435 30 CURVE SMOOTH",
"398 30 OFFCURVE",
"376 55 OFFCURVE",
"376 97 CURVE SMOOTH",
"376 134 OFFCURVE",
"397 189 OFFCURVE",
"421 214 CURVE",
"406 220 OFFCURVE",
"389 223 OFFCURVE",
"373 223 CURVE SMOOTH",
"310 223 OFFCURVE",
"261 169 OFFCURVE",
"261 100 CURVE SMOOTH",
"261 19 OFFCURVE",
"326 -31 OFFCURVE",
"430 -31 CURVE SMOOTH",
"582 -31 OFFCURVE",
"703 79 OFFCURVE",
"703 217 CURVE SMOOTH",
"703 327 OFFCURVE",
"619 411 OFFCURVE",
"493 427 CURVE"
);
}
);
width = 723;
},
{
background = {
paths = (
{
closed = 1;
nodes = (
"220 552 LINE",
"199 553 OFFCURVE",
"178 554 OFFCURVE",
"158 554 CURVE SMOOTH",
"84 554 OFFCURVE",
"24 541 OFFCURVE",
"24 461 CURVE SMOOTH",
"24 450 OFFCURVE",
"25 439 OFFCURVE",
"26 428 CURVE",
"98 460 OFFCURVE",
"152 469 OFFCURVE",
"212 470 CURVE"
);
}
);
};
layerId = "BF8042A9-B348-454C-A59B-E2F834F64B4C";
paths = (
{
closed = 1;
nodes = (
"578 443 LINE",
"672 489 OFFCURVE",
"734 571 OFFCURVE",
"734 649 CURVE SMOOTH",
"734 747 OFFCURVE",
"645 806 OFFCURVE",
"505 806 CURVE SMOOTH",
"334 806 OFFCURVE",
"214 707 OFFCURVE",
"157 534 CURVE",
"72 533 OFFCURVE",
"24 489 OFFCURVE",
"24 423 CURVE SMOOTH",
"24 412 OFFCURVE",
"25 388 OFFCURVE",
"26 377 CURVE",
"88 404 OFFCURVE",
"111 411 OFFCURVE",
"137 416 CURVE",
"110 261 OFFCURVE",
"97 157 OFFCURVE",
"97 98 CURVE SMOOTH",
"97 -27 OFFCURVE",
"151 -77 OFFCURVE",
"300 -106 CURVE",
"286 -30 OFFCURVE",
"284 -5 OFFCURVE",
"284 39 CURVE SMOOTH",
"284 140 OFFCURVE",
"296 258 OFFCURVE",
"327 472 CURVE SMOOTH",
"349 623 OFFCURVE",
"401 700 OFFCURVE",
"473 700 CURVE SMOOTH",
"520 700 OFFCURVE",
"549 668 OFFCURVE",
"549 616 CURVE SMOOTH",
"549 533 OFFCURVE",
"487 444 OFFCURVE",
"411 419 CURVE",
"417 382 LINE",
"532 382 OFFCURVE",
"584 339 OFFCURVE",
"584 227 CURVE SMOOTH",
"584 131 OFFCURVE",
"528 51 OFFCURVE",
"463 51 CURVE SMOOTH",
"438 51 OFFCURVE",
"424 70 OFFCURVE",
"424 109 CURVE SMOOTH",
"424 158 OFFCURVE",
"444 203 OFFCURVE",
"478 235 CURVE",
"459 241 OFFCURVE",
"441 244 OFFCURVE",
"421 244 CURVE SMOOTH",
"339 244 OFFCURVE",
"275 183 OFFCURVE",
"275 101 CURVE SMOOTH",
"275 17 OFFCURVE",
"347 -31 OFFCURVE",
"462 -31 CURVE SMOOTH",
"637 -31 OFFCURVE",
"779 80 OFFCURVE",
"779 222 CURVE SMOOTH",
"779 320 OFFCURVE",
"700 404 OFFCURVE",
"579 438 CURVE"
);
}
);
width = 795;
}
);
unicode = 1E9E;
},
{
glyphname = Schwa;
lastChange = "2017-12-05 20:42:37 +0000";
layers = (
{
hints = (
{
horizontal = 1;
origin = "{0, 31}";
target = "{0, 14}";
},
{
horizontal = 1;
origin = "{0, 20}";
target = "{0, 25}";
},
{
horizontal = 1;
origin = "{0, 37}";
target = "{0, 8}";
},
{
origin = "{0, 28}";
target = "{0, 17}";
},
{
origin = "{0, 11}";
target = "{0, 34}";
}
);
layerId = UUID0;
paths = (
{
closed = 1;
nodes = (
"250 804 OFFCURVE",
"163 750 OFFCURVE",
"81 615 CURVE",
"81 596 OFFCURVE",
"96 589 OFFCURVE",
"133 585 CURVE",
"189 675 OFFCURVE",
"271 722 OFFCURVE",
"365 722 CURVE SMOOTH",
"466 722 OFFCURVE",
"518 633 OFFCURVE",
"518 469 CURVE SMOOTH",
"518 284 OFFCURVE",
"418 40 OFFCURVE",
"262 40 CURVE SMOOTH",
"199 40 OFFCURVE",
"164 79 OFFCURVE",
"164 150 CURVE SMOOTH",
"164 285 OFFCURVE",
"285 375 OFFCURVE",
"462 375 CURVE SMOOTH",
"522 375 LINE",
"526 421 LINE",
"476 432 OFFCURVE",
"417 439 OFFCURVE",
"356 439 CURVE SMOOTH",
"183 439 OFFCURVE",
"49 324 OFFCURVE",
"49 178 CURVE SMOOTH",
"49 42 OFFCURVE",
"111 -25 OFFCURVE",
"244 -25 CURVE SMOOTH",
"457 -25 OFFCURVE",
"621 185 OFFCURVE",
"621 462 CURVE SMOOTH",
"621 658 OFFCURVE",
"520 804 OFFCURVE",
"387 804 CURVE SMOOTH"
);
}
);
userData = {
RMXScaler = {
height = 140;
verticalShift = -4;
width = 138;
};
};
width = 686;
},
{
layerId = UUID1;
paths = (
{
closed = 1;
nodes = (
"253 804 OFFCURVE",
"156 746 OFFCURVE",
"76 615 CURVE",
"76 593 OFFCURVE",
"91 584 OFFCURVE",
"127 578 CURVE",
"184 668 OFFCURVE",
"261 716 OFFCURVE",
"350 716 CURVE SMOOTH",
"446 716 OFFCURVE",
"496 630 OFFCURVE",
"496 467 CURVE SMOOTH",
"496 289 OFFCURVE",
"409 47 OFFCURVE",
"269 47 CURVE SMOOTH",
"212 47 OFFCURVE",
"180 86 OFFCURVE",
"180 150 CURVE SMOOTH",
"180 283 OFFCURVE",
"288 372 OFFCURVE",
"449 372 CURVE SMOOTH",
"501 372 LINE",
"505 420 LINE",
"457 432 OFFCURVE",
"402 439 OFFCURVE",
"346 439 CURVE SMOOTH",
"169 439 OFFCURVE",
"38 327 OFFCURVE",
"37 178 CURVE SMOOTH",
"37 45 OFFCURVE",
"107 -25 OFFCURVE",
"243 -25 CURVE SMOOTH",
"466 -25 OFFCURVE",
"637 185 OFFCURVE",
"638 462 CURVE SMOOTH",
"638 662 OFFCURVE",
"533 804 OFFCURVE",
"387 804 CURVE SMOOTH"
);
}
);
userData = {
RMXScaler = {
height = 140;
verticalShift = -4;
width = 138;
};
};
width = 688;
},
{
layerId = "BF8042A9-B348-454C-A59B-E2F834F64B4C";
paths = (
{
closed = 1;
nodes = (
"255 804 OFFCURVE",
"144 737 OFFCURVE",
"72 615 CURVE",
"73 590 OFFCURVE",
"92 573 OFFCURVE",
"124 563 CURVE",
"178 651 OFFCURVE",
"249 700 OFFCURVE",
"328 700 CURVE SMOOTH",
"417 700 OFFCURVE",
"468 607 OFFCURVE",
"468 441 CURVE SMOOTH",
"468 278 OFFCURVE",
"414 62 OFFCURVE",
"298 62 CURVE SMOOTH",
"255 62 OFFCURVE",
"225 99 OFFCURVE",
"225 160 CURVE SMOOTH",
"225 284 OFFCURVE",
"309 364 OFFCURVE",
"443 364 CURVE SMOOTH",
"479 364 LINE",
"481 420 LINE",
"435 432 OFFCURVE",
"386 439 OFFCURVE",
"339 439 CURVE SMOOTH",
"158 439 OFFCURVE",
"36 338 OFFCURVE",
"36 188 CURVE SMOOTH",
"36 56 OFFCURVE",
"124 -25 OFFCURVE",
"266 -25 CURVE SMOOTH",
"502 -25 OFFCURVE",
"676 175 OFFCURVE",
"676 440 CURVE SMOOTH",
"676 660 OFFCURVE",
"561 804 OFFCURVE",
"387 804 CURVE SMOOTH"
);
}
);
userData = {
RMXScaler = {
height = 140;
verticalShift = -4;
width = 138;
};
};
width = 723;
}
);
leftMetricsKey = "=O*.75";
rightMetricsKey = O;
unicode = 018F;
userData = {
RMXScaler = {
source = e;
};
};
},
{
glyphname = T;
lastChange = "2017-12-05 20:42:37 +0000";
layers = (
{
anchors = (
{
name = bottom;
position = "{239, 0}";
},
{
name = center;
position = "{271, 380}";
},
{
name = top;
position = "{313, 847}";
}
);
background = {
paths = (
{
closed = 1;
nodes = (
"20 682 OFFCURVE",
"28 639 OFFCURVE",
"66 639 CURVE SMOOTH",
"164 639 OFFCURVE",
"367 648 OFFCURVE",
"474 660 CURVE SMOOTH",
"542 667 OFFCURVE",
"591 708 OFFCURVE",
"603 799 CURVE",
"493 775 OFFCURVE",
"379 763 OFFCURVE",
"265 763 CURVE SMOOTH",
"186 763 OFFCURVE",
"106 768 OFFCURVE",
"28 781 CURVE",
"24 768 OFFCURVE",
"21 746 OFFCURVE",
"20 721 CURVE"
);
},
{
closed = 1;
nodes = (
"227 733 LINE",
"227 720 LINE SMOOTH",
"227 493 OFFCURVE",
"169 237 OFFCURVE",
"169 129 CURVE SMOOTH",
"169 46 OFFCURVE",
"198 -1 OFFCURVE",
"316 -31 CURVE",
"307 -10 OFFCURVE",
"302 29 OFFCURVE",
"302 78 CURVE SMOOTH",
"302 255 OFFCURVE",
"368 587 OFFCURVE",
"368 684 CURVE SMOOTH",
"368 704 OFFCURVE",
"367 722 OFFCURVE",
"363 738 CURVE"
);
}
);
};
hints = (
{
place = "{186, 99}";
},
{
place = "{244, 41}";
},
{
place = "{244, 107}";
},
{
horizontal = 1;
place = "{668, 65}";
},
{
horizontal = 1;
place = "{668, 91}";
},
{
horizontal = 1;
place = "{785, -20}";
target = down;
type = TopGhost;
},
{
horizontal = 1;
place = "{-31, 21}";
target = up;
type = BottomGhost;
}
);
layerId = UUID0;
paths = (
{
closed = 1;
nodes = (
"49 700 OFFCURVE",
"56 668 OFFCURVE",
"93 668 CURVE SMOOTH",
"181 668 OFFCURVE",
"362 675 OFFCURVE",
"458 684 CURVE SMOOTH",
"519 689 OFFCURVE",
"564 719 OFFCURVE",
"574 785 CURVE",
"475 767 OFFCURVE",
"374 759 OFFCURVE",
"271 759 CURVE SMOOTH",
"200 759 OFFCURVE",
"129 763 OFFCURVE",
"56 772 CURVE",
"53 763 OFFCURVE",
"49 747 OFFCURVE",
"49 729 CURVE SMOOTH"
);
},
{
closed = 1;
nodes = (
"244 720 LINE",
"244 493 OFFCURVE",
"186 237 OFFCURVE",
"186 129 CURVE SMOOTH",
"186 46 OFFCURVE",
"215 -1 OFFCURVE",
"299 -31 CURVE",
"290 -10 OFFCURVE",
"285 29 OFFCURVE",
"285 78 CURVE SMOOTH",
"285 266 OFFCURVE",
"355 620 OFFCURVE",
"355 723 CURVE"
);
}
);
width = 543;
},
{
anchors = (
{
name = bottom;
position = "{238, 0}";
},
{
name = center;
position = "{271, 380}";
},
{
name = top;
position = "{313, 847}";
}
);
background = {
paths = (
{
closed = 1;
nodes = (
"20 682 OFFCURVE",
"28 639 OFFCURVE",
"66 639 CURVE SMOOTH",
"164 639 OFFCURVE",
"367 648 OFFCURVE",
"474 660 CURVE SMOOTH",
"542 667 OFFCURVE",
"591 708 OFFCURVE",
"603 799 CURVE",
"493 775 OFFCURVE",
"379 763 OFFCURVE",
"265 763 CURVE SMOOTH",
"186 763 OFFCURVE",
"106 768 OFFCURVE",
"28 781 CURVE",
"24 768 OFFCURVE",
"21 746 OFFCURVE",
"20 721 CURVE"
);
},
{
closed = 1;
nodes = (
"227 733 LINE",
"227 720 LINE SMOOTH",
"227 493 OFFCURVE",
"169 237 OFFCURVE",
"169 129 CURVE SMOOTH",
"169 46 OFFCURVE",
"198 -1 OFFCURVE",
"316 -31 CURVE",
"307 -10 OFFCURVE",
"302 29 OFFCURVE",
"302 78 CURVE SMOOTH",
"302 255 OFFCURVE",
"368 587 OFFCURVE",
"368 684 CURVE SMOOTH",
"368 704 OFFCURVE",
"367 722 OFFCURVE",
"363 738 CURVE"
);
}
);
};
layerId = UUID1;
paths = (
{
closed = 1;
nodes = (
"20 682 OFFCURVE",
"28 639 OFFCURVE",
"66 639 CURVE SMOOTH",
"164 639 OFFCURVE",
"367 648 OFFCURVE",
"474 660 CURVE SMOOTH",
"542 667 OFFCURVE",
"591 708 OFFCURVE",
"603 799 CURVE",
"493 775 OFFCURVE",
"379 763 OFFCURVE",
"265 763 CURVE SMOOTH",
"186 763 OFFCURVE",
"106 768 OFFCURVE",
"28 781 CURVE",
"24 768 OFFCURVE",
"20 746 OFFCURVE",
"20 721 CURVE SMOOTH"
);
},
{
closed = 1;
nodes = (
"227 720 LINE",
"227 493 OFFCURVE",
"169 237 OFFCURVE",
"169 129 CURVE SMOOTH",
"169 46 OFFCURVE",
"198 -1 OFFCURVE",
"316 -31 CURVE",
"307 -10 OFFCURVE",
"302 29 OFFCURVE",
"302 78 CURVE SMOOTH",
"302 255 OFFCURVE",
"368 587 OFFCURVE",
"368 684 CURVE"
);
}
);
width = 543;
},
{
anchors = (
{
name = bottom;
position = "{236, 0}";
},
{
name = center;
position = "{286, 380}";
},
{
name = top;
position = "{311, 847}";
}
);
background = {
paths = (
{
closed = 1;
nodes = (
"9 682 OFFCURVE",
"17 639 OFFCURVE",
"55 639 CURVE SMOOTH",
"153 639 OFFCURVE",
"356 648 OFFCURVE",
"463 660 CURVE SMOOTH",
"531 667 OFFCURVE",
"580 708 OFFCURVE",
"592 799 CURVE",
"482 775 OFFCURVE",
"368 763 OFFCURVE",
"254 763 CURVE SMOOTH",
"175 763 OFFCURVE",
"95 768 OFFCURVE",
"17 781 CURVE",
"13 768 OFFCURVE",
"10 746 OFFCURVE",
"9 721 CURVE"
);
},
{
closed = 1;
nodes = (
"216 733 LINE",
"216 720 LINE SMOOTH",
"216 493 OFFCURVE",
"158 237 OFFCURVE",
"158 129 CURVE SMOOTH",
"158 46 OFFCURVE",
"187 -1 OFFCURVE",
"305 -31 CURVE",
"296 -10 OFFCURVE",
"291 29 OFFCURVE",
"291 78 CURVE SMOOTH",
"291 255 OFFCURVE",
"357 587 OFFCURVE",
"357 684 CURVE SMOOTH",
"357 704 OFFCURVE",
"356 722 OFFCURVE",
"352 738 CURVE"
);
}
);
};
layerId = "BF8042A9-B348-454C-A59B-E2F834F64B4C";
paths = (
{
closed = 1;
nodes = (
"-10 654 OFFCURVE",
"3 594 OFFCURVE",
"54 594 CURVE SMOOTH",
"155 594 OFFCURVE",
"362 608 OFFCURVE",
"467 623 CURVE SMOOTH",
"560 636 OFFCURVE",
"588 692 OFFCURVE",
"602 821 CURVE",
"489 788 OFFCURVE",
"366 769 OFFCURVE",
"245 769 CURVE SMOOTH",
"159 769 OFFCURVE",
"76 776 OFFCURVE",
"-1 795 CURVE",
"-7 774 OFFCURVE",
"-10 741 OFFCURVE",
"-10 709 CURVE SMOOTH"
);
},
{
closed = 1;
nodes = (
"194 720 LINE",
"194 529 OFFCURVE",
"139 233 OFFCURVE",
"139 129 CURVE SMOOTH",
"139 49 OFFCURVE",
"164 -1 OFFCURVE",
"336 -31 CURVE",
"328 -10 OFFCURVE",
"323 28 OFFCURVE",
"323 78 CURVE SMOOTH",
"323 240 OFFCURVE",
"385 576 OFFCURVE",
"385 684 CURVE"
);
}
);
width = 562;
}
);
leftKerningGroup = T;
rightKerningGroup = T;
unicode = 0054;
},
{
glyphname = U;
lastChange = "2017-12-05 20:42:37 +0000";
layers = (
{
anchors = (
{
name = bottom;
position = "{344, 0}";
},
{
name = ogonek;
position = "{616, -31}";
},
{
name = top;
position = "{418, 847}";
},
{
name = topright;
position = "{557, 802}";
}
);
background = {
paths = (
{
closed = 1;
nodes = (
"233 729 OFFCURVE",
"201 773 OFFCURVE",
"121 802 CURVE",
"128 783 OFFCURVE",
"132 750 OFFCURVE",
"132 707 CURVE SMOOTH",
"132 606 OFFCURVE",
"87 354 OFFCURVE",
"87 220 CURVE SMOOTH",
"87 50 OFFCURVE",
"146 -20 OFFCURVE",
"254 -20 CURVE SMOOTH",
"451 -20 OFFCURVE",
"530 192 OFFCURVE",
"564 388 CURVE",
"545 474 LINE",
"503 130 OFFCURVE",
"371 62 OFFCURVE",
"298 62 CURVE SMOOTH",
"236 62 OFFCURVE",
"190 95 OFFCURVE",
"190 239 CURVE SMOOTH",
"190 386 OFFCURVE",
"233 518 OFFCURVE",
"233 653 CURVE SMOOTH"
);
},
{
closed = 1;
nodes = (
"668 753 OFFCURVE",
"662 796 OFFCURVE",
"557 802 CURVE",
"559 776 OFFCURVE",
"561 748 OFFCURVE",
"561 720 CURVE SMOOTH",
"561 529 OFFCURVE",
"503 233 OFFCURVE",
"503 129 CURVE SMOOTH",
"503 46 OFFCURVE",
"532 -1 OFFCURVE",
"616 -31 CURVE",
"607 -10 OFFCURVE",
"602 29 OFFCURVE",
"602 78 CURVE SMOOTH",
"602 240 OFFCURVE",
"668 576 OFFCURVE",
"668 684 CURVE SMOOTH"
);
}
);
};
hints = (
{
place = "{87, 103}";
},
{
place = "{132, 58}";
},
{
place = "{503, 99}";
},
{
place = "{561, 107}";
},
{
place = "{132, 101}";
},
{
horizontal = 1;
place = "{-20, 82}";
},
{
horizontal = 1;
place = "{802, -20}";
target = down;
type = TopGhost;
},
{
horizontal = 1;
place = "{-31, 21}";
target = up;
type = BottomGhost;
}
);
layerId = UUID0;
paths = (
{
closed = 1;
nodes = (
"233 729 OFFCURVE",
"201 773 OFFCURVE",
"121 802 CURVE",
"128 783 OFFCURVE",
"132 750 OFFCURVE",
"132 707 CURVE SMOOTH",
"132 606 OFFCURVE",
"87 354 OFFCURVE",
"87 220 CURVE SMOOTH",
"87 50 OFFCURVE",
"146 -20 OFFCURVE",
"254 -20 CURVE SMOOTH",
"451 -20 OFFCURVE",
"530 192 OFFCURVE",
"564 388 CURVE",
"561 720 LINE",
"561 146 OFFCURVE",
"376 62 OFFCURVE",
"298 62 CURVE SMOOTH",
"236 62 OFFCURVE",
"190 95 OFFCURVE",
"190 239 CURVE SMOOTH",
"190 386 OFFCURVE",
"233 518 OFFCURVE",
"233 653 CURVE SMOOTH"
);
},
{
closed = 1;
nodes = (
"668 753 OFFCURVE",
"662 796 OFFCURVE",
"557 802 CURVE",
"559 776 OFFCURVE",
"561 748 OFFCURVE",
"561 720 CURVE SMOOTH",
"561 529 OFFCURVE",
"503 233 OFFCURVE",
"503 129 CURVE SMOOTH",
"503 46 OFFCURVE",
"532 -1 OFFCURVE",
"616 -31 CURVE",
"607 -10 OFFCURVE",
"602 29 OFFCURVE",
"602 78 CURVE SMOOTH",
"602 240 OFFCURVE",
"668 576 OFFCURVE",
"668 684 CURVE SMOOTH"
);
}
);
width = 755;
},
{
anchors = (
{
name = bottom;
position = "{344, 0}";
},
{
name = ogonek;
position = "{633, -31}";
},
{
name = top;
position = "{418, 847}";
},
{
name = topright;
position = "{540, 802}";
}
);
background = {
paths = (
{
closed = 1;
nodes = (
"250 729 OFFCURVE",
"218 773 OFFCURVE",
"104 802 CURVE",
"111 783 OFFCURVE",
"115 750 OFFCURVE",
"115 707 CURVE SMOOTH",
"115 606 OFFCURVE",
"70 354 OFFCURVE",
"70 220 CURVE SMOOTH",
"70 50 OFFCURVE",
"129 -20 OFFCURVE",
"238 -20 CURVE SMOOTH",
"436 -20 OFFCURVE",
"525 197 OFFCURVE",
"559 393 CURVE",
"528 479 LINE",
"490 143 OFFCURVE",
"369 77 OFFCURVE",
"301 77 CURVE SMOOTH",
"250 77 OFFCURVE",
"210 107 OFFCURVE",
"210 239 CURVE SMOOTH",
"210 386 OFFCURVE",
"250 518 OFFCURVE",
"250 653 CURVE SMOOTH"
);
},
{
closed = 1;
nodes = (
"685 753 OFFCURVE",
"679 796 OFFCURVE",
"540 802 CURVE",
"542 776 OFFCURVE",
"544 748 OFFCURVE",
"544 720 CURVE SMOOTH",
"544 529 OFFCURVE",
"486 233 OFFCURVE",
"486 129 CURVE SMOOTH",
"486 46 OFFCURVE",
"515 -1 OFFCURVE",
"633 -31 CURVE",
"624 -10 OFFCURVE",
"619 29 OFFCURVE",
"619 78 CURVE SMOOTH",
"619 240 OFFCURVE",
"685 576 OFFCURVE",
"685 684 CURVE SMOOTH"
);
}
);
};
layerId = UUID1;
paths = (
{
closed = 1;
nodes = (
"250 729 OFFCURVE",
"218 773 OFFCURVE",
"104 802 CURVE",
"111 783 OFFCURVE",
"115 750 OFFCURVE",
"115 707 CURVE SMOOTH",
"115 606 OFFCURVE",
"70 354 OFFCURVE",
"70 220 CURVE SMOOTH",
"70 50 OFFCURVE",
"129 -20 OFFCURVE",
"238 -20 CURVE SMOOTH",
"436 -20 OFFCURVE",
"525 197 OFFCURVE",
"559 393 CURVE",
"544 720 LINE",
"544 157 OFFCURVE",
"374 77 OFFCURVE",
"301 77 CURVE SMOOTH",
"250 77 OFFCURVE",
"210 107 OFFCURVE",
"210 239 CURVE SMOOTH",
"210 386 OFFCURVE",
"250 518 OFFCURVE",
"250 653 CURVE SMOOTH"
);
},
{
closed = 1;
nodes = (
"685 753 OFFCURVE",
"679 796 OFFCURVE",
"540 802 CURVE",
"542 776 OFFCURVE",
"544 748 OFFCURVE",
"544 720 CURVE SMOOTH",
"544 529 OFFCURVE",
"486 233 OFFCURVE",
"486 129 CURVE SMOOTH",
"486 46 OFFCURVE",
"515 -1 OFFCURVE",
"633 -31 CURVE",
"624 -10 OFFCURVE",
"619 29 OFFCURVE",
"619 78 CURVE SMOOTH",
"619 240 OFFCURVE",
"685 576 OFFCURVE",
"685 684 CURVE SMOOTH"
);
}
);
width = 755;
},
{
anchors = (
{
name = bottom;
position = "{369, 0}";
},
{
name = ogonek;
position = "{686, -31}";
},
{
name = top;
position = "{443, 847}";
},
{
name = topright;
position = "{540, 802}";
}
);
layerId = "BF8042A9-B348-454C-A59B-E2F834F64B4C";
paths = (
{
closed = 1;
nodes = (
"309 731 OFFCURVE",
"274 773 OFFCURVE",
"113 802 CURVE",
"120 783 OFFCURVE",
"124 750 OFFCURVE",
"124 707 CURVE SMOOTH",
"124 606 OFFCURVE",
"79 354 OFFCURVE",
"79 220 CURVE SMOOTH",
"79 50 OFFCURVE",
"131 -20 OFFCURVE",
"242 -20 CURVE SMOOTH",
"457 -20 OFFCURVE",
"565 228 OFFCURVE",
"565 400 CURVE",
"544 720 LINE",
"544 167 OFFCURVE",
"393 99 OFFCURVE",
"348 99 CURVE SMOOTH",
"311 99 OFFCURVE",
"273 125 OFFCURVE",
"273 239 CURVE SMOOTH",
"273 386 OFFCURVE",
"309 518 OFFCURVE",
"309 653 CURVE SMOOTH"
);
},
{
closed = 1;
nodes = (
"735 753 OFFCURVE",
"729 796 OFFCURVE",
"540 802 CURVE",
"542 774 OFFCURVE",
"544 745 OFFCURVE",
"544 720 CURVE SMOOTH",
"544 529 OFFCURVE",
"489 233 OFFCURVE",
"489 129 CURVE SMOOTH",
"489 49 OFFCURVE",
"514 -1 OFFCURVE",
"686 -31 CURVE",
"678 -10 OFFCURVE",
"673 28 OFFCURVE",
"673 78 CURVE SMOOTH",
"673 240 OFFCURVE",
"735 576 OFFCURVE",
"735 684 CURVE SMOOTH"
);
}
);
width = 806;
}
);
leftKerningGroup = U;
rightKerningGroup = U;
unicode = 0055;
},
{
glyphname = V;
lastChange = "2017-12-05 20:42:37 +0000";
layers = (
{
hints = (
{
place = "{531, 98}";
},
{
horizontal = 1;
place = "{807, -20}";
target = down;
type = TopGhost;
},
{
horizontal = 1;
place = "{-14, 21}";
target = up;
type = BottomGhost;
}
);
layerId = UUID0;
paths = (
{
closed = 1;
nodes = (
"406 215 OFFCURVE",
"629 639 OFFCURVE",
"629 733 CURVE SMOOTH",
"629 768 OFFCURVE",
"603 794 OFFCURVE",
"541 807 CURVE",
"541 699 OFFCURVE",
"373 241 OFFCURVE",
"294 81 CURVE",
"306 85 LINE",
"248 384 LINE SMOOTH",
"179 741 OFFCURVE",
"175 792 OFFCURVE",
"101 792 CURVE SMOOTH",
"83 792 OFFCURVE",
"55 781 OFFCURVE",
"31 766 CURVE",
"108 656 OFFCURVE",
"191 182 OFFCURVE",
"228 1 CURVE SMOOTH",
"230 -10 OFFCURVE",
"244 -14 OFFCURVE",
"257 -14 CURVE SMOOTH",
"279 -14 OFFCURVE",
"320 -4 OFFCURVE",
"327 0 CURVE"
);
}
);
width = 661;
},
{
layerId = UUID1;
paths = (
{
closed = 1;
nodes = (
"420 214 OFFCURVE",
"644 640 OFFCURVE",
"644 732 CURVE SMOOTH",
"644 770 OFFCURVE",
"607 795 OFFCURVE",
"531 807 CURVE",
"531 721 OFFCURVE",
"388 298 OFFCURVE",
"296 112 CURVE",
"311 120 LINE",
"262 384 LINE SMOOTH",
"194 749 OFFCURVE",
"178 792 OFFCURVE",
"111 792 CURVE SMOOTH",
"87 792 OFFCURVE",
"50 782 OFFCURVE",
"16 766 CURVE",
"93 656 OFFCURVE",
"174 184 OFFCURVE",
"213 1 CURVE SMOOTH",
"215 -8 OFFCURVE",
"231 -14 OFFCURVE",
"251 -14 CURVE SMOOTH",
"271 -14 OFFCURVE",
"327 -5 OFFCURVE",
"342 0 CURVE"
);
}
);
width = 661;
},
{
layerId = "BF8042A9-B348-454C-A59B-E2F834F64B4C";
paths = (
{
closed = 1;
nodes = (
"462 215 OFFCURVE",
"685 639 OFFCURVE",
"685 733 CURVE SMOOTH",
"685 767 OFFCURVE",
"637 794 OFFCURVE",
"523 807 CURVE",
"523 656 OFFCURVE",
"329 166 OFFCURVE",
"281 118 CURVE",
"333 177 LINE",
"301 383 LINE SMOOTH",
"247 731 OFFCURVE",
"228 792 OFFCURVE",
"142 792 CURVE SMOOTH",
"104 792 OFFCURVE",
"46 781 OFFCURVE",
"-2 766 CURVE",
"74 656 OFFCURVE",
"159 185 OFFCURVE",
"195 3 CURVE SMOOTH",
"198 -11 OFFCURVE",
"226 -14 OFFCURVE",
"251 -14 CURVE SMOOTH",
"292 -14 OFFCURVE",
"370 -4 OFFCURVE",
"383 0 CURVE"
);
}
);
width = 677;
}
);
unicode = 0056;
},
{
glyphname = W;
lastChange = "2017-12-05 20:42:37 +0000";
layers = (
{
anchors = (
{
name = bottom;
position = "{457, 0}";
},
{
name = top;
position = "{531, 847}";
}
);
background = {
paths = (
{
closed = 1;
nodes = (
"495 678 LINE",
"447 515 OFFCURVE",
"350 261 OFFCURVE",
"293 138 CURVE",
"286 194 OFFCURVE",
"262 350 OFFCURVE",
"258 384 CURVE SMOOTH",
"213 742 OFFCURVE",
"207 792 OFFCURVE",
"129 792 CURVE SMOOTH",
"104 792 OFFCURVE",
"66 781 OFFCURVE",
"34 766 CURVE",
"105 656 OFFCURVE",
"149 182 OFFCURVE",
"192 1 CURVE",
"192 -10 OFFCURVE",
"210 -14 OFFCURVE",
"227 -14 CURVE SMOOTH",
"255 -14 OFFCURVE",
"309 -4 OFFCURVE",
"317 0 CURVE",
"368 140 OFFCURVE",
"477 364 OFFCURVE",
"549 532 CURVE"
);
}
);
};
hints = (
{
place = "{864, 93}";
},
{
horizontal = 1;
place = "{807, -20}";
target = down;
type = TopGhost;
},
{
horizontal = 1;
place = "{-14, 21}";
target = up;
type = BottomGhost;
}
);
layerId = UUID0;
paths = (
{
closed = 1;
nodes = (
"608 -14 OFFCURVE",
"649 -4 OFFCURVE",
"655 0 CURVE",
"706 133 OFFCURVE",
"957 650 OFFCURVE",
"957 737 CURVE SMOOTH",
"957 769 OFFCURVE",
"923 794 OFFCURVE",
"875 807 CURVE",
"869 701 OFFCURVE",
"707 279 OFFCURVE",
"637 101 CURVE",
"596 384 LINE SMOOTH",
"539 780 OFFCURVE",
"522 792 OFFCURVE",
"472 792 CURVE SMOOTH",
"454 792 OFFCURVE",
"426 781 OFFCURVE",
"402 766 CURVE",
"473 656 OFFCURVE",
"531 182 OFFCURVE",
"560 1 CURVE",
"560 -10 OFFCURVE",
"574 -14 OFFCURVE",
"587 -14 CURVE SMOOTH"
);
},
{
closed = 1;
nodes = (
"255 -14 OFFCURVE",
"296 -4 OFFCURVE",
"302 0 CURVE",
"336 88 OFFCURVE",
"457 344 OFFCURVE",
"535 532 CURVE",
"489 669 LINE",
"443 508 OFFCURVE",
"337 234 OFFCURVE",
"284 101 CURVE",
"243 384 LINE SMOOTH",
"186 780 OFFCURVE",
"169 792 OFFCURVE",
"119 792 CURVE SMOOTH",
"101 792 OFFCURVE",
"73 781 OFFCURVE",
"49 766 CURVE",
"120 656 OFFCURVE",
"179 182 OFFCURVE",
"207 1 CURVE",
"207 -10 OFFCURVE",
"221 -14 OFFCURVE",
"234 -14 CURVE SMOOTH"
);
}
);
width = 983;
},
{
anchors = (
{
name = bottom;
position = "{457, 0}";
},
{
name = top;
position = "{531, 847}";
}
);
background = {
paths = (
{
closed = 1;
nodes = (
"495 678 LINE",
"447 515 OFFCURVE",
"350 261 OFFCURVE",
"293 138 CURVE",
"286 194 OFFCURVE",
"262 350 OFFCURVE",
"258 384 CURVE SMOOTH",
"213 742 OFFCURVE",
"207 792 OFFCURVE",
"129 792 CURVE SMOOTH",
"104 792 OFFCURVE",
"66 781 OFFCURVE",
"34 766 CURVE",
"105 656 OFFCURVE",
"149 182 OFFCURVE",
"192 1 CURVE",
"192 -10 OFFCURVE",
"210 -14 OFFCURVE",
"227 -14 CURVE SMOOTH",
"255 -14 OFFCURVE",
"309 -4 OFFCURVE",
"317 0 CURVE",
"368 140 OFFCURVE",
"477 364 OFFCURVE",
"549 532 CURVE"
);
}
);
};
layerId = UUID1;
paths = (
{
closed = 1;
nodes = (
"603 -14 OFFCURVE",
"660 -5 OFFCURVE",
"670 0 CURVE",
"719 128 OFFCURVE",
"972 652 OFFCURVE",
"972 734 CURVE SMOOTH",
"972 767 OFFCURVE",
"932 793 OFFCURVE",
"864 807 CURVE",
"860 739 OFFCURVE",
"763 440 OFFCURVE",
"646 138 CURVE",
"611 384 LINE SMOOTH",
"560 741 OFFCURVE",
"548 792 OFFCURVE",
"486 792 CURVE SMOOTH",
"457 792 OFFCURVE",
"421 782 OFFCURVE",
"387 766 CURVE",
"458 656 OFFCURVE",
"502 182 OFFCURVE",
"545 1 CURVE",
"545 -8 OFFCURVE",
"559 -14 OFFCURVE",
"580 -14 CURVE SMOOTH"
);
},
{
closed = 1;
nodes = (
"250 -14 OFFCURVE",
"307 -5 OFFCURVE",
"317 0 CURVE",
"351 88 OFFCURVE",
"472 344 OFFCURVE",
"550 532 CURVE",
"489 705 LINE",
"456 586 OFFCURVE",
"371 340 OFFCURVE",
"293 138 CURVE",
"258 384 LINE SMOOTH",
"207 741 OFFCURVE",
"195 792 OFFCURVE",
"133 792 CURVE SMOOTH",
"104 792 OFFCURVE",
"68 782 OFFCURVE",
"34 766 CURVE",
"105 656 OFFCURVE",
"149 182 OFFCURVE",
"192 1 CURVE",
"192 -8 OFFCURVE",
"206 -14 OFFCURVE",
"227 -14 CURVE SMOOTH"
);
}
);
width = 983;
},
{
anchors = (
{
name = bottom;
position = "{491, 0}";
},
{
name = top;
position = "{565, 847}";
}
);
background = {
paths = (
{
closed = 1;
nodes = (
"493 678 LINE",
"445 515 OFFCURVE",
"348 261 OFFCURVE",
"291 138 CURVE",
"284 194 OFFCURVE",
"260 350 OFFCURVE",
"256 384 CURVE SMOOTH",
"211 742 OFFCURVE",
"205 792 OFFCURVE",
"127 792 CURVE SMOOTH",
"102 792 OFFCURVE",
"64 781 OFFCURVE",
"32 766 CURVE",
"103 656 OFFCURVE",
"147 182 OFFCURVE",
"190 1 CURVE",
"190 -10 OFFCURVE",
"208 -14 OFFCURVE",
"225 -14 CURVE SMOOTH",
"253 -14 OFFCURVE",
"307 -4 OFFCURVE",
"315 0 CURVE",
"366 140 OFFCURVE",
"475 364 OFFCURVE",
"547 532 CURVE"
);
}
);
};
layerId = "BF8042A9-B348-454C-A59B-E2F834F64B4C";
paths = (
{
closed = 1;
nodes = (
"681 -14 OFFCURVE",
"763 -5 OFFCURVE",
"781 0 CURVE",
"859 215 OFFCURVE",
"1053 639 OFFCURVE",
"1053 733 CURVE SMOOTH",
"1053 770 OFFCURVE",
"998 795 OFFCURVE",
"891 807 CURVE",
"891 711 OFFCURVE",
"809 407 OFFCURVE",
"727 203 CURVE",
"699 383 LINE SMOOTH",
"643 743 OFFCURVE",
"624 792 OFFCURVE",
"540 792 CURVE SMOOTH",
"502 792 OFFCURVE",
"445 782 OFFCURVE",
"396 766 CURVE",
"472 656 OFFCURVE",
"554 184 OFFCURVE",
"593 3 CURVE SMOOTH",
"595 -8 OFFCURVE",
"615 -14 OFFCURVE",
"649 -14 CURVE SMOOTH"
);
},
{
closed = 1;
nodes = (
"281 -14 OFFCURVE",
"363 -5 OFFCURVE",
"381 0 CURVE",
"425 121 OFFCURVE",
"516 308 OFFCURVE",
"586 466 CURVE",
"504 715 LINE",
"473 577 OFFCURVE",
"394 349 OFFCURVE",
"327 203 CURVE",
"299 383 LINE SMOOTH",
"243 743 OFFCURVE",
"224 792 OFFCURVE",
"140 792 CURVE SMOOTH",
"102 792 OFFCURVE",
"45 782 OFFCURVE",
"-4 766 CURVE",
"72 656 OFFCURVE",
"157 185 OFFCURVE",
"193 3 CURVE SMOOTH",
"195 -8 OFFCURVE",
"215 -14 OFFCURVE",
"249 -14 CURVE SMOOTH"
);
}
);
width = 1051;
}
);
leftKerningGroup = W;
rightKerningGroup = W;
unicode = 0057;
},
{
glyphname = X;
lastChange = "2017-12-05 20:42:37 +0000";
layers = (
{
hints = (
{
place = "{590, 50}";
},
{
horizontal = 1;
place = "{809, -20}";
target = down;
type = TopGhost;
},
{
horizontal = 1;
place = "{-33, 21}";
target = up;
type = BottomGhost;
},
{
horizontal = 1;
place = "{803, -20}";
target = down;
type = TopGhost;
}
);
layerId = UUID0;
paths = (
{
closed = 1;
nodes = (
"30 44 OFFCURVE",
"47 6 OFFCURVE",
"84 -31 CURVE",
"223 382 OFFCURVE",
"640 548 OFFCURVE",
"640 715 CURVE SMOOTH",
"640 742 OFFCURVE",
"626 784 OFFCURVE",
"590 809 CURVE",
"578 591 OFFCURVE",
"30 269 OFFCURVE",
"30 81 CURVE SMOOTH"
);
},
{
closed = 1;
nodes = (
"591 -33 OFFCURVE",
"607 -32 OFFCURVE",
"620 -28 CURVE",
"550 47 OFFCURVE",
"454 187 OFFCURVE",
"357 457 CURVE SMOOTH",
"255 742 OFFCURVE",
"223 803 OFFCURVE",
"174 803 CURVE SMOOTH",
"142 803 OFFCURVE",
"114 793 OFFCURVE",
"90 779 CURVE",
"258 546 OFFCURVE",
"348 -33 OFFCURVE",
"581 -33 CURVE SMOOTH"
);
}
);
width = 671;
},
{
layerId = UUID1;
paths = (
{
closed = 1;
nodes = (
"15 44 OFFCURVE",
"42 6 OFFCURVE",
"99 -31 CURVE",
"238 382 OFFCURVE",
"655 548 OFFCURVE",
"655 715 CURVE SMOOTH",
"655 742 OFFCURVE",
"633 784 OFFCURVE",
"575 809 CURVE",
"563 591 OFFCURVE",
"15 269 OFFCURVE",
"15 81 CURVE SMOOTH"
);
},
{
closed = 1;
nodes = (
"587 -33 OFFCURVE",
"608 -30 OFFCURVE",
"630 -22 CURVE",
"560 53 OFFCURVE",
"468 190 OFFCURVE",
"372 457 CURVE SMOOTH",
"308 635 OFFCURVE",
"258 803 OFFCURVE",
"178 803 CURVE SMOOTH",
"149 803 OFFCURVE",
"109 792 OFFCURVE",
"75 776 CURVE",
"245 544 OFFCURVE",
"336 -33 OFFCURVE",
"559 -33 CURVE SMOOTH"
);
}
);
width = 671;
},
{
layerId = "BF8042A9-B348-454C-A59B-E2F834F64B4C";
paths = (
{
closed = 1;
nodes = (
"-4 51 OFFCURVE",
"12 -25 OFFCURVE",
"138 -25 CURVE",
"277 418 OFFCURVE",
"694 554 OFFCURVE",
"694 721 CURVE SMOOTH",
"694 748 OFFCURVE",
"667 815 OFFCURVE",
"556 815 CURVE",
"544 567 OFFCURVE",
"-4 248 OFFCURVE",
"-4 87 CURVE SMOOTH"
);
},
{
closed = 1;
nodes = (
"589 -25 OFFCURVE",
"620 -18 OFFCURVE",
"659 -2 CURVE",
"589 73 OFFCURVE",
"507 197 OFFCURVE",
"411 464 CURVE SMOOTH",
"298 778 OFFCURVE",
"277 811 OFFCURVE",
"184 811 CURVE SMOOTH",
"135 811 OFFCURVE",
"88 798 OFFCURVE",
"56 784 CURVE",
"230 553 OFFCURVE",
"323 -25 OFFCURVE",
"527 -25 CURVE SMOOTH"
);
}
);
width = 687;
}
);
unicode = 0058;
},
{
glyphname = Y;
lastChange = "2017-12-05 20:42:37 +0000";
layers = (
{
anchors = (
{
name = bottom;
position = "{249, 0}";
},
{
name = top;
position = "{333, 847}";
},
{
name = topleft;
position = "{20, 847}";
}
);
background = {
paths = (
{
closed = 0;
nodes = (
"249 395 LINE SMOOTH",
"180 752 OFFCURVE",
"176 803 OFFCURVE",
"102 803 CURVE SMOOTH",
"84 803 OFFCURVE",
"56 792 OFFCURVE",
"32 777 CURVE"
);
}
);
};
hints = (
{
place = "{193, 103}";
},
{
place = "{250, 46}";
},
{
horizontal = 1;
place = "{833, -20}";
target = down;
type = TopGhost;
},
{
horizontal = 1;
place = "{-31, 21}";
target = up;
type = BottomGhost;
},
{
horizontal = 1;
place = "{803, -20}";
target = down;
type = TopGhost;
}
);
layerId = UUID0;
paths = (
{
closed = 1;
nodes = (
"512 582 OFFCURVE",
"565 678 OFFCURVE",
"565 729 CURVE SMOOTH",
"565 762 OFFCURVE",
"535 789 OFFCURVE",
"477 807 CURVE",
"462 698 OFFCURVE",
"380 495 OFFCURVE",
"278 316 CURVE",
"198 744 OFFCURVE",
"177 803 OFFCURVE",
"107 803 CURVE SMOOTH",
"81 803 OFFCURVE",
"57 795 OFFCURVE",
"33 777 CURVE",
"83 696 OFFCURVE",
"137 539 OFFCURVE",
"206 273 CURVE",
"195 182 OFFCURVE",
"193 155 OFFCURVE",
"193 125 CURVE SMOOTH",
"193 0 OFFCURVE",
"228 -31 OFFCURVE",
"310 -31 CURVE",
"301 -10 OFFCURVE",
"296 29 OFFCURVE",
"296 78 CURVE SMOOTH",
"296 138 OFFCURVE",
"302 209 OFFCURVE",
"313 274 CURVE"
);
}
);
width = 565;
},
{
anchors = (
{
name = bottom;
position = "{249, 0}";
},
{
name = top;
position = "{333, 847}";
},
{
name = topleft;
position = "{20, 847}";
}
);
background = {
paths = (
{
closed = 1;
nodes = (
"265 188 LINE",
"279 211 OFFCURVE",
"294 234 OFFCURVE",
"309 256 CURVE SMOOTH",
"436 443 OFFCURVE",
"580 644 OFFCURVE",
"580 722 CURVE SMOOTH",
"580 750 OFFCURVE",
"568 798 OFFCURVE",
"505 833 CURVE",
"492 740 OFFCURVE",
"409 548 OFFCURVE",
"269 336 CURVE SMOOTH",
"257 318 OFFCURVE",
"244 297 OFFCURVE",
"233 278 CURVE"
);
},
{
closed = 1;
nodes = (
"207 377 LINE",
"193 272 OFFCURVE",
"178 183 OFFCURVE",
"178 129 CURVE SMOOTH",
"178 46 OFFCURVE",
"207 -1 OFFCURVE",
"325 -31 CURVE",
"316 -10 OFFCURVE",
"311 29 OFFCURVE",
"311 78 CURVE SMOOTH",
"311 147 OFFCURVE",
"322 239 OFFCURVE",
"334 332 CURVE",
"287 321 LINE"
);
},
{
closed = 1;
nodes = (
"281 404 LINE",
"209 759 OFFCURVE",
"185 803 OFFCURVE",
"94 803 CURVE SMOOTH",
"69 803 OFFCURVE",
"33 793 OFFCURVE",
"8 777 CURVE",
"82 667 OFFCURVE",
"148 441 OFFCURVE",
"198 260 CURVE SMOOTH",
"201 249 OFFCURVE",
"205 280 OFFCURVE",
"222 280 CURVE SMOOTH",
"250 280 OFFCURVE",
"291 290 OFFCURVE",
"300 294 CURVE"
);
}
);
};
layerId = UUID1;
paths = (
{
closed = 1;
nodes = (
"534 595 OFFCURVE",
"580 678 OFFCURVE",
"580 732 CURVE SMOOTH",
"580 770 OFFCURVE",
"543 795 OFFCURVE",
"467 807 CURVE",
"456 716 OFFCURVE",
"384 539 OFFCURVE",
"287 368 CURVE",
"223 738 OFFCURVE",
"195 803 OFFCURVE",
"100 803 CURVE SMOOTH",
"69 803 OFFCURVE",
"35 793 OFFCURVE",
"8 777 CURVE",
"62 697 OFFCURVE",
"119 542 OFFCURVE",
"193 278 CURVE",
"184 217 OFFCURVE",
"178 165 OFFCURVE",
"178 129 CURVE SMOOTH",
"178 2 OFFCURVE",
"207 -31 OFFCURVE",
"325 -31 CURVE",
"316 -10 OFFCURVE",
"311 29 OFFCURVE",
"311 78 CURVE SMOOTH",
"311 135 OFFCURVE",
"319 209 OFFCURVE",
"329 285 CURVE"
);
}
);
width = 565;
},
{
anchors = (
{
name = bottom;
position = "{257, 0}";
},
{
name = top;
position = "{331, 847}";
},
{
name = topleft;
position = "{20, 847}";
}
);
background = {
paths = (
{
closed = 1;
nodes = (
"235 188 LINE",
"249 211 OFFCURVE",
"264 234 OFFCURVE",
"279 256 CURVE SMOOTH",
"406 443 OFFCURVE",
"550 644 OFFCURVE",
"550 722 CURVE SMOOTH",
"550 750 OFFCURVE",
"538 798 OFFCURVE",
"475 833 CURVE",
"462 740 OFFCURVE",
"379 548 OFFCURVE",
"239 336 CURVE SMOOTH",
"227 318 OFFCURVE",
"214 297 OFFCURVE",
"203 278 CURVE"
);
},
{
closed = 1;
nodes = (
"177 377 LINE",
"163 272 OFFCURVE",
"148 183 OFFCURVE",
"148 129 CURVE SMOOTH",
"148 46 OFFCURVE",
"177 -1 OFFCURVE",
"295 -31 CURVE",
"286 -10 OFFCURVE",
"281 29 OFFCURVE",
"281 78 CURVE SMOOTH",
"281 147 OFFCURVE",
"292 239 OFFCURVE",
"304 332 CURVE",
"257 321 LINE"
);
},
{
closed = 1;
nodes = (
"251 404 LINE",
"179 759 OFFCURVE",
"155 803 OFFCURVE",
"64 803 CURVE SMOOTH",
"39 803 OFFCURVE",
"3 793 OFFCURVE",
"-22 777 CURVE",
"52 667 OFFCURVE",
"118 441 OFFCURVE",
"168 260 CURVE SMOOTH",
"171 249 OFFCURVE",
"175 280 OFFCURVE",
"192 280 CURVE SMOOTH",
"220 280 OFFCURVE",
"261 290 OFFCURVE",
"270 294 CURVE"
);
}
);
};
layerId = "BF8042A9-B348-454C-A59B-E2F834F64B4C";
paths = (
{
closed = 1;
nodes = (
"553 596 OFFCURVE",
"601 682 OFFCURVE",
"601 733 CURVE SMOOTH",
"601 772 OFFCURVE",
"554 794 OFFCURVE",
"439 807 CURVE",
"431 731 OFFCURVE",
"377 587 OFFCURVE",
"298 428 CURVE",
"244 733 OFFCURVE",
"209 803 OFFCURVE",
"111 803 CURVE SMOOTH",
"69 803 OFFCURVE",
"15 792 OFFCURVE",
"-22 777 CURVE",
"35 693 OFFCURVE",
"97 521 OFFCURVE",
"167 265 CURVE",
"156 209 OFFCURVE",
"148 162 OFFCURVE",
"148 129 CURVE SMOOTH",
"148 0 OFFCURVE",
"189 -31 OFFCURVE",
"346 -31 CURVE",
"337 -10 OFFCURVE",
"332 33 OFFCURVE",
"332 78 CURVE SMOOTH",
"332 130 OFFCURVE",
"340 207 OFFCURVE",
"349 285 CURVE"
);
}
);
width = 581;
}
);
leftKerningGroup = Y;
rightKerningGroup = Y;
unicode = 0059;
},
{
glyphname = Z;
lastChange = "2017-12-05 20:42:37 +0000";
layers = (
{
anchors = (
{
name = bottom;
position = "{251, 0}";
},
{
name = top;
position = "{355, 847}";
}
);
background = {
paths = (
{
closed = 1;
nodes = (
"144 81 LINE",
"314 355 OFFCURVE",
"583 578 OFFCURVE",
"583 706 CURVE SMOOTH",
"583 738 OFFCURVE",
"565 790 OFFCURVE",
"517 838 CURVE",
"485 696 OFFCURVE",
"277 385 OFFCURVE",
"-7 55 CURVE"
);
},
{
closed = 1;
nodes = (
"249 10 OFFCURVE",
"330 -12 OFFCURVE",
"399 -12 CURVE SMOOTH",
"470 -12 OFFCURVE",
"522 44 OFFCURVE",
"534 144 CURVE",
"467 122 OFFCURVE",
"321 106 OFFCURVE",
"175 106 CURVE SMOOTH",
"155 106 OFFCURVE",
"132 108 OFFCURVE",
"112 108 CURVE SMOOTH",
"-30 108 OFFCURVE",
"-61 21 OFFCURVE",
"-69 -10 CURVE",
"-7 6 OFFCURVE",
"65 10 OFFCURVE",
"128 10 CURVE SMOOTH"
);
},
{
closed = 1;
nodes = (
"57 676 OFFCURVE",
"65 627 OFFCURVE",
"105 627 CURVE SMOOTH",
"180 627 OFFCURVE",
"466 686 OFFCURVE",
"466 686 CURVE",
"481 717 OFFCURVE",
"494 742 OFFCURVE",
"509 775 CURVE",
"461 769 OFFCURVE",
"407 767 OFFCURVE",
"357 767 CURVE SMOOTH",
"219 767 OFFCURVE",
"94 780 OFFCURVE",
"65 784 CURVE",
"61 772 OFFCURVE",
"58 747 OFFCURVE",
"57 719 CURVE"
);
}
);
};
hints = (
{
horizontal = 1;
origin = "{1, 2}";
target = "{1, 8}";
},
{
horizontal = 1;
place = "{699, 64}";
},
{
horizontal = 1;
origin = "{1, 8}";
target = "{1, 17}";
}
);
layerId = UUID0;
paths = (
{
closed = 1;
nodes = (
"130 62 LINE",
"301 344 OFFCURVE",
"553 574 OFFCURVE",
"553 711 CURVE SMOOTH",
"553 737 OFFCURVE",
"544 790 OFFCURVE",
"507 838 CURVE",
"477 696 OFFCURVE",
"275 366 OFFCURVE",
"4 36 CURVE"
);
},
{
closed = 1;
nodes = (
"249 12 OFFCURVE",
"327 -5 OFFCURVE",
"375 -5 CURVE SMOOTH",
"447 -5 OFFCURVE",
"492 33 OFFCURVE",
"505 117 CURVE",
"442 98 OFFCURVE",
"290 87 OFFCURVE",
"192 87 CURVE SMOOTH",
"150 87 OFFCURVE",
"147 89 OFFCURVE",
"125 89 CURVE SMOOTH",
"-5 89 OFFCURVE",
"-32 21 OFFCURVE",
"-40 -3 CURVE",
"16 9 OFFCURVE",
"83 12 OFFCURVE",
"132 12 CURVE SMOOTH"
);
},
{
closed = 1;
nodes = (
"83 686 OFFCURVE",
"91 654 OFFCURVE",
"137 654 CURVE SMOOTH",
"184 654 OFFCURVE",
"398 689 OFFCURVE",
"459 700 CURVE",
"498 769 LINE",
"454 765 OFFCURVE",
"406 763 OFFCURVE",
"355 763 CURVE SMOOTH",
"234 763 OFFCURVE",
"118 774 OFFCURVE",
"91 777 CURVE",
"87 766 OFFCURVE",
"83 748 OFFCURVE",
"83 722 CURVE SMOOTH"
);
}
);
width = 573;
},
{
anchors = (
{
name = bottom;
position = "{270, 0}";
},
{
name = top;
position = "{364, 847}";
}
);
background = {
paths = (
{
closed = 1;
nodes = (
"163 81 LINE",
"333 355 OFFCURVE",
"602 578 OFFCURVE",
"602 706 CURVE SMOOTH",
"602 738 OFFCURVE",
"584 790 OFFCURVE",
"536 838 CURVE",
"504 696 OFFCURVE",
"296 385 OFFCURVE",
"12 55 CURVE"
);
},
{
closed = 1;
nodes = (
"268 10 OFFCURVE",
"349 -12 OFFCURVE",
"418 -12 CURVE SMOOTH",
"489 -12 OFFCURVE",
"541 44 OFFCURVE",
"553 144 CURVE",
"486 122 OFFCURVE",
"340 106 OFFCURVE",
"194 106 CURVE SMOOTH",
"174 106 OFFCURVE",
"151 108 OFFCURVE",
"131 108 CURVE SMOOTH",
"-11 108 OFFCURVE",
"-42 21 OFFCURVE",
"-50 -10 CURVE",
"12 6 OFFCURVE",
"84 10 OFFCURVE",
"147 10 CURVE SMOOTH"
);
},
{
closed = 1;
nodes = (
"76 676 OFFCURVE",
"84 627 OFFCURVE",
"124 627 CURVE SMOOTH",
"199 627 OFFCURVE",
"485 686 OFFCURVE",
"485 686 CURVE",
"500 717 OFFCURVE",
"513 742 OFFCURVE",
"528 775 CURVE",
"480 769 OFFCURVE",
"426 767 OFFCURVE",
"376 767 CURVE SMOOTH",
"238 767 OFFCURVE",
"113 780 OFFCURVE",
"84 784 CURVE",
"80 772 OFFCURVE",
"77 747 OFFCURVE",
"76 719 CURVE"
);
}
);
};
layerId = UUID1;
paths = (
{
closed = 1;
nodes = (
"163 81 LINE",
"332 354 OFFCURVE",
"602 579 OFFCURVE",
"602 705 CURVE SMOOTH",
"602 738 OFFCURVE",
"584 790 OFFCURVE",
"536 838 CURVE",
"504 696 OFFCURVE",
"296 385 OFFCURVE",
"12 55 CURVE"
);
},
{
closed = 1;
nodes = (
"270 10 OFFCURVE",
"356 -12 OFFCURVE",
"410 -12 CURVE SMOOTH",
"493 -12 OFFCURVE",
"539 41 OFFCURVE",
"553 144 CURVE",
"486 121 OFFCURVE",
"324 106 OFFCURVE",
"205 106 CURVE SMOOTH",
"162 106 OFFCURVE",
"155 108 OFFCURVE",
"133 108 CURVE SMOOTH",
"-11 108 OFFCURVE",
"-42 21 OFFCURVE",
"-50 -10 CURVE",
"12 6 OFFCURVE",
"86 10 OFFCURVE",
"141 10 CURVE SMOOTH"
);
},
{
closed = 1;
nodes = (
"76 667 OFFCURVE",
"84 627 OFFCURVE",
"133 627 CURVE SMOOTH",
"180 627 OFFCURVE",
"426 673 OFFCURVE",
"485 686 CURVE",
"528 775 LINE",
"480 769 OFFCURVE",
"426 767 OFFCURVE",
"373 767 CURVE SMOOTH",
"239 767 OFFCURVE",
"113 780 OFFCURVE",
"84 784 CURVE",
"80 772 OFFCURVE",
"76 749 OFFCURVE",
"76 715 CURVE SMOOTH"
);
}
);
width = 612;
},
{
anchors = (
{
name = bottom;
position = "{292, 0}";
},
{
name = top;
position = "{376, 847}";
}
);
background = {
paths = (
{
closed = 1;
nodes = (
"187 81 LINE",
"357 355 OFFCURVE",
"626 578 OFFCURVE",
"626 706 CURVE SMOOTH",
"626 738 OFFCURVE",
"608 790 OFFCURVE",
"560 838 CURVE",
"528 696 OFFCURVE",
"320 385 OFFCURVE",
"36 55 CURVE"
);
},
{
closed = 1;
nodes = (
"292 10 OFFCURVE",
"373 -12 OFFCURVE",
"442 -12 CURVE SMOOTH",
"513 -12 OFFCURVE",
"565 44 OFFCURVE",
"577 144 CURVE",
"510 122 OFFCURVE",
"364 106 OFFCURVE",
"218 106 CURVE SMOOTH",
"198 106 OFFCURVE",
"175 108 OFFCURVE",
"155 108 CURVE SMOOTH",
"13 108 OFFCURVE",
"-18 21 OFFCURVE",
"-26 -10 CURVE",
"36 6 OFFCURVE",
"108 10 OFFCURVE",
"171 10 CURVE SMOOTH"
);
},
{
closed = 1;
nodes = (
"100 676 OFFCURVE",
"108 627 OFFCURVE",
"148 627 CURVE SMOOTH",
"223 627 OFFCURVE",
"509 686 OFFCURVE",
"509 686 CURVE",
"524 717 OFFCURVE",
"537 742 OFFCURVE",
"552 775 CURVE",
"504 769 OFFCURVE",
"450 767 OFFCURVE",
"400 767 CURVE SMOOTH",
"262 767 OFFCURVE",
"137 780 OFFCURVE",
"108 784 CURVE",
"104 772 OFFCURVE",
"101 747 OFFCURVE",
"100 719 CURVE"
);
}
);
};
layerId = "BF8042A9-B348-454C-A59B-E2F834F64B4C";
paths = (
{
closed = 1;
nodes = (
"195 75 LINE",
"370 385 OFFCURVE",
"631 562 OFFCURVE",
"631 714 CURVE SMOOTH",
"631 769 OFFCURVE",
"591 809 OFFCURVE",
"535 838 CURVE",
"498 688 OFFCURVE",
"304 401 OFFCURVE",
"16 49 CURVE"
);
},
{
closed = 1;
nodes = (
"295 6 OFFCURVE",
"385 -19 OFFCURVE",
"435 -19 CURVE SMOOTH",
"524 -19 OFFCURVE",
"571 55 OFFCURVE",
"588 196 CURVE",
"532 167 OFFCURVE",
"375 143 OFFCURVE",
"231 143 CURVE SMOOTH",
"191 143 OFFCURVE",
"177 145 OFFCURVE",
"159 145 CURVE SMOOTH",
"14 145 OFFCURVE",
"-22 28 OFFCURVE",
"-31 -19 CURVE",
"36 2 OFFCURVE",
"111 6 OFFCURVE",
"165 6 CURVE SMOOTH"
);
},
{
closed = 1;
nodes = (
"83 634 OFFCURVE",
"93 595 OFFCURVE",
"144 595 CURVE SMOOTH",
"210 595 OFFCURVE",
"406 655 OFFCURVE",
"483 679 CURVE",
"529 787 LINE",
"483 777 OFFCURVE",
"430 775 OFFCURVE",
"382 775 CURVE SMOOTH",
"239 775 OFFCURVE",
"122 792 OFFCURVE",
"97 797 CURVE",
"89 779 OFFCURVE",
"83 733 OFFCURVE",
"83 696 CURVE SMOOTH"
);
}
);
width = 656;
}
);
unicode = 005A;
},
{
glyphname = a;
lastChange = "2017-12-07 20:41:17 +0000";
layers = (
{
anchors = (
{
name = bottom;
position = "{295, 0}";
},
{
name = ogonek;
position = "{543, -33}";
},
{
name = top;
position = "{367, 599}";
}
);
background = {
paths = (
{
closed = 1;
nodes = (
"372 145 OFFCURVE",
"380 137 OFFCURVE",
"390 137 CURVE SMOOTH",
"400 137 OFFCURVE",
"409 145 OFFCURVE",
"409 155 CURVE SMOOTH",
"409 165 OFFCURVE",
"400 174 OFFCURVE",
"390 174 CURVE SMOOTH",
"380 174 OFFCURVE",
"372 165 OFFCURVE",
"372 155 CURVE SMOOTH"
);
}
);
};
hints = (
{
horizontal = 1;
origin = "{0, 39}";
target = "{0, 24}";
},
{
origin = "{0, 36}";
target = "{0, 27}";
},
{
origin = "{0, 3}";
target = "{0, 9}";
},
{
origin = "{0, 21}";
target = "{0, 12}";
}
);
layerId = UUID0;
paths = (
{
closed = 1;
nodes = (
"424 168 LINE",
"423 162 OFFCURVE",
"423 160 OFFCURVE",
"423 149 CURVE SMOOTH",
"423 38 OFFCURVE",
"458 -16 OFFCURVE",
"543 -33 CURVE",
"520 19 OFFCURVE",
"512 54 OFFCURVE",
"512 111 CURVE SMOOTH",
"512 258 OFFCURVE",
"560 419 OFFCURVE",
"560 488 CURVE SMOOTH",
"560 541 OFFCURVE",
"530 570 OFFCURVE",
"476 570 CURVE SMOOTH",
"466 570 OFFCURVE",
"456 569 OFFCURVE",
"443 568 CURVE",
"448 540 OFFCURVE",
"451 501 OFFCURVE",
"451 466 CURVE SMOOTH",
"451 263 OFFCURVE",
"350 73 OFFCURVE",
"242 73 CURVE SMOOTH",
"190 73 OFFCURVE",
"161 118 OFFCURVE",
"161 199 CURVE SMOOTH",
"161 361 OFFCURVE",
"262 501 OFFCURVE",
"407 537 CURVE",
"375 546 OFFCURVE",
"350 551 OFFCURVE",
"328 551 CURVE SMOOTH",
"176 551 OFFCURVE",
"53 387 OFFCURVE",
"53 186 CURVE SMOOTH",
"53 60 OFFCURVE",
"105 -12 OFFCURVE",
"195 -12 CURVE SMOOTH",
"284 -12 OFFCURVE",
"378 65 OFFCURVE",
"417 170 CURVE"
);
}
);
width = 635;
},
{
anchors = (
{
name = bottom;
position = "{295, 0}";
},
{
name = ogonek;
position = "{558, -33}";
},
{
name = top;
position = "{367, 599}";
}
);
background = {
paths = (
{
closed = 1;
nodes = (
"377 146 OFFCURVE",
"385 138 OFFCURVE",
"395 138 CURVE SMOOTH",
"405 138 OFFCURVE",
"414 146 OFFCURVE",
"414 156 CURVE SMOOTH",
"414 166 OFFCURVE",
"405 175 OFFCURVE",
"395 175 CURVE SMOOTH",
"385 175 OFFCURVE",
"377 166 OFFCURVE",
"377 156 CURVE SMOOTH"
);
}
);
};
layerId = UUID1;
paths = (
{
closed = 1;
nodes = (
"414 170 LINE",
"413 166 OFFCURVE",
"413 164 OFFCURVE",
"413 156 CURVE SMOOTH",
"413 38 OFFCURVE",
"452 -13 OFFCURVE",
"558 -33 CURVE",
"535 18 OFFCURVE",
"527 53 OFFCURVE",
"527 111 CURVE SMOOTH",
"527 258 OFFCURVE",
"575 419 OFFCURVE",
"575 488 CURVE SMOOTH",
"575 544 OFFCURVE",
"543 570 OFFCURVE",
"474 570 CURVE SMOOTH",
"449 570 OFFCURVE",
"442 570 OFFCURVE",
"430 568 CURVE",
"434 544 OFFCURVE",
"436 506 OFFCURVE",
"436 465 CURVE SMOOTH",
"436 268 OFFCURVE",
"348 83 OFFCURVE",
"254 83 CURVE SMOOTH",
"211 83 OFFCURVE",
"186 123 OFFCURVE",
"186 191 CURVE SMOOTH",
"186 338 OFFCURVE",
"286 494 OFFCURVE",
"407 537 CURVE",
"388 550 OFFCURVE",
"359 557 OFFCURVE",
"326 557 CURVE SMOOTH",
"173 557 OFFCURVE",
"38 380 OFFCURVE",
"38 181 CURVE SMOOTH",
"38 63 OFFCURVE",
"93 -12 OFFCURVE",
"181 -12 CURVE SMOOTH",
"273 -12 OFFCURVE",
"368 66 OFFCURVE",
"408 172 CURVE"
);
}
);
width = 635;
},
{
anchors = (
{
name = bottom;
position = "{305, 0}";
},
{
name = ogonek;
position = "{588, -33}";
},
{
name = top;
position = "{377, 599}";
}
);
background = {
paths = (
{
closed = 1;
nodes = (
"387 146 OFFCURVE",
"395 138 OFFCURVE",
"405 138 CURVE SMOOTH",
"415 138 OFFCURVE",
"424 146 OFFCURVE",
"424 156 CURVE SMOOTH",
"424 166 OFFCURVE",
"415 175 OFFCURVE",
"405 175 CURVE SMOOTH",
"395 175 OFFCURVE",
"387 166 OFFCURVE",
"387 156 CURVE SMOOTH"
);
}
);
};
layerId = "BF8042A9-B348-454C-A59B-E2F834F64B4C";
paths = (
{
closed = 1;
nodes = (
"384 147 LINE",
"383 143 OFFCURVE",
"383 142 OFFCURVE",
"383 127 CURVE SMOOTH",
"383 17 OFFCURVE",
"447 -33 OFFCURVE",
"588 -33 CURVE",
"565 19 OFFCURVE",
"557 54 OFFCURVE",
"557 110 CURVE SMOOTH",
"557 257 OFFCURVE",
"605 421 OFFCURVE",
"605 486 CURVE SMOOTH",
"605 544 OFFCURVE",
"568 570 OFFCURVE",
"486 570 CURVE SMOOTH",
"453 570 OFFCURVE",
"430 567 OFFCURVE",
"400 558 CURVE",
"404 534 OFFCURVE",
"406 500 OFFCURVE",
"406 464 CURVE SMOOTH",
"406 286 OFFCURVE",
"334 83 OFFCURVE",
"271 83 CURVE SMOOTH",
"243 83 OFFCURVE",
"226 122 OFFCURVE",
"226 184 CURVE SMOOTH",
"226 338 OFFCURVE",
"328 493 OFFCURVE",
"457 537 CURVE",
"427 549 OFFCURVE",
"381 557 OFFCURVE",
"344 557 CURVE SMOOTH",
"174 557 OFFCURVE",
"28 384 OFFCURVE",
"28 182 CURVE SMOOTH",
"28 59 OFFCURVE",
"82 -12 OFFCURVE",
"177 -12 CURVE SMOOTH",
"264 -12 OFFCURVE",
"338 47 OFFCURVE",
"377 148 CURVE"
);
}
);
width = 655;
}
);
leftKerningGroup = a;
unicode = 0061;
},
